<svg width="64" height="64" viewBox="0 0 64 64" fill="none" xmlns="http://www.w3.org/2000/svg">
<path fill-rule="evenodd" clip-rule="evenodd" d="M42 21.3334C42 19.1242 43.7908 17.3334 46 17.3334C48.2092 17.3334 50 19.1242 50 21.3334V48.4038L46 54.4038L42 48.4038V21.3334ZM46 20C45.2636 20 44.6667 20.597 44.6667 21.3334V47.5963L46 49.5963L47.3333 47.5963V21.3334C47.3333 20.597 46.7364 20 46 20Z" fill="#4BB9B5"/>
<path fill-rule="evenodd" clip-rule="evenodd" d="M48.6673 26.6667H43.334V24H48.6673V26.6667Z" fill="#4BB9B5"/>
<path fill-rule="evenodd" clip-rule="evenodd" d="M7.33333 10.6667C5.86057 10.6667 4.66667 11.8606 4.66667 13.3333V50.6656C4.66667 52.1384 5.86057 53.3323 7.33333 53.3323H34C35.4728 53.3323 36.6667 52.1384 36.6667 50.6656V13.3333C36.6667 11.8606 35.4728 10.6667 34 10.6667H7.33333ZM2 13.3333C2 10.3878 4.38781 8 7.33333 8H34C36.9455 8 39.3333 10.3878 39.3333 13.3333V50.6656C39.3333 53.6112 36.9455 55.9989 34 55.9989H7.33333C4.38781 55.9989 2 53.6112 2 50.6656V13.3333Z" fill="#4BB9B5"/>
<path fill-rule="evenodd" clip-rule="evenodd" d="M20.666 20C20.666 19.2636 21.2629 18.6666 21.9993 18.6666H32.666C33.4024 18.6666 33.9993 19.2636 33.9993 20C33.9993 20.7364 33.4024 21.3333 32.666 21.3333H21.9993C21.2629 21.3333 20.666 20.7364 20.666 20Z" fill="#4BB9B5"/>
<path fill-rule="evenodd" clip-rule="evenodd" d="M20.666 25.3333C20.666 24.5969 21.2629 24 21.9993 24H32.666C33.4024 24 33.9993 24.5969 33.9993 25.3333C33.9993 26.0697 33.4024 26.6667 32.666 26.6667H21.9993C21.2629 26.6667 20.666 26.0697 20.666 25.3333Z" fill="#4BB9B5"/>
<path fill-rule="evenodd" clip-rule="evenodd" d="M20.666 37.3333C20.666 36.5969 21.2629 36 21.9993 36H32.666C33.4024 36 33.9993 36.5969 33.9993 37.3333C33.9993 38.0697 33.4024 38.6667 32.666 38.6667H21.9993C21.2629 38.6667 20.666 38.0697 20.666 37.3333Z" fill="#4BB9B5"/>
<path fill-rule="evenodd" clip-rule="evenodd" d="M20.666 42.6667C20.666 41.9303 21.2629 41.3334 21.9993 41.3334H32.666C33.4024 41.3334 33.9993 41.9303 33.9993 42.6667C33.9993 43.4031 33.4024 44 32.666 44H21.9993C21.2629 44 20.666 43.4031 20.666 42.6667Z" fill="#4BB9B5"/>
<path fill-rule="evenodd" clip-rule="evenodd" d="M10.0007 37.3333V41.3333H14.0007V37.3333H10.0007ZM8.66732 34.6666H15.334C16.0704 34.6666 16.6673 35.2636 16.6673 36V42.6666C16.6673 43.403 16.0704 44 15.334 44H8.66732C7.93092 44 7.33398 43.403 7.33398 42.6666V36C7.33398 35.2636 7.93092 34.6666 8.66732 34.6666Z" fill="#4BB9B5"/>
<path fill-rule="evenodd" clip-rule="evenodd" d="M17.6101 19.0572C18.1308 19.5779 18.1308 20.4222 17.6101 20.9428L11.334 27.219L7.72451 23.6095C7.20381 23.0888 7.20381 22.2446 7.72451 21.7239C8.24518 21.2032 9.08945 21.2032 9.61011 21.7239L11.334 23.4478L15.7245 19.0572C16.2452 18.5366 17.0894 18.5366 17.6101 19.0572Z" fill="#4BB9B5"/>
</svg>
