<svg width="64" height="64" viewBox="0 0 64 64" fill="none" xmlns="http://www.w3.org/2000/svg">
<path fill-rule="evenodd" clip-rule="evenodd" d="M7.33333 10.6667C5.86057 10.6667 4.66667 11.8606 4.66667 13.3333V50.6656C4.66667 52.1384 5.86057 53.3323 7.33333 53.3323H34C35.4728 53.3323 36.6667 52.1384 36.6667 50.6656V13.3333C36.6667 11.8606 35.4728 10.6667 34 10.6667H7.33333ZM2 13.3333C2 10.3878 4.38781 8 7.33333 8H34C36.9455 8 39.3333 10.3878 39.3333 13.3333V50.6656C39.3333 53.6112 36.9455 55.9989 34 55.9989H7.33333C4.38781 55.9989 2 53.6112 2 50.6656V13.3333Z" fill="#4BB9B5"/>
<path fill-rule="evenodd" clip-rule="evenodd" d="M9.4 23.4V27H13V23.4H9.4ZM8.2 21H14.2C14.8628 21 15.4 21.5372 15.4 22.2V28.2C15.4 28.8628 14.8628 29.4 14.2 29.4H8.2C7.53724 29.4 7 28.8628 7 28.2V22.2C7 21.5372 7.53724 21 8.2 21Z" fill="#4BB9B5"/>
<path fill-rule="evenodd" clip-rule="evenodd" d="M18.8004 23.4V27H22.4004V23.4H18.8004ZM17.6004 21H23.6004C24.2632 21 24.8004 21.5372 24.8004 22.2V28.2C24.8004 28.8628 24.2632 29.4 23.6004 29.4H17.6004C16.9376 29.4 16.4004 28.8628 16.4004 28.2V22.2C16.4004 21.5372 16.9376 21 17.6004 21Z" fill="#4BB9B5"/>
<path fill-rule="evenodd" clip-rule="evenodd" d="M28.2008 23.4V27H31.8008V23.4H28.2008ZM27.0008 21H33.0008C33.6635 21 34.2008 21.5372 34.2008 22.2V28.2C34.2008 28.8628 33.6635 29.4 33.0008 29.4H27.0008C26.338 29.4 25.8008 28.8628 25.8008 28.2V22.2C25.8008 21.5372 26.338 21 27.0008 21Z" fill="#4BB9B5"/>
<path fill-rule="evenodd" clip-rule="evenodd" d="M9.4 33.8V37.4H13V33.8H9.4ZM8.2 31.4H14.2C14.8628 31.4 15.4 31.9373 15.4 32.6V38.6C15.4 39.2628 14.8628 39.8 14.2 39.8H8.2C7.53724 39.8 7 39.2628 7 38.6V32.6C7 31.9373 7.53724 31.4 8.2 31.4Z" fill="#4BB9B5"/>
<path fill-rule="evenodd" clip-rule="evenodd" d="M18.8004 33.8V37.4H22.4004V33.8H18.8004ZM17.6004 31.4H23.6004C24.2632 31.4 24.8004 31.9373 24.8004 32.6V38.6C24.8004 39.2628 24.2632 39.8 23.6004 39.8H17.6004C16.9376 39.8 16.4004 39.2628 16.4004 38.6V32.6C16.4004 31.9373 16.9376 31.4 17.6004 31.4Z" fill="#4BB9B5"/>
<path fill-rule="evenodd" clip-rule="evenodd" d="M28.2008 33.8V37.4H31.8008V33.8H28.2008ZM27.0008 31.4H33.0008C33.6635 31.4 34.2008 31.9373 34.2008 32.6V38.6C34.2008 39.2628 33.6635 39.8 33.0008 39.8H27.0008C26.338 39.8 25.8008 39.2628 25.8008 38.6V32.6C25.8008 31.9373 26.338 31.4 27.0008 31.4Z" fill="#4BB9B5"/>
<path fill-rule="evenodd" clip-rule="evenodd" d="M9.4 44.2V47.8H22.3V44.2H9.4ZM8.2 41.8H23.5C24.1628 41.8 24.7 42.3373 24.7 43V49C24.7 49.6628 24.1628 50.2 23.5 50.2H8.2C7.53724 50.2 7 49.6628 7 49V43C7 42.3373 7.53724 41.8 8.2 41.8Z" fill="#4BB9B5"/>
<path fill-rule="evenodd" clip-rule="evenodd" d="M28.0992 44.2V47.8H31.6992V44.2H28.0992ZM26.8992 41.8H32.8992C33.562 41.8 34.0992 42.3373 34.0992 43V49C34.0992 49.6628 33.562 50.2 32.8992 50.2H26.8992C26.2365 50.2 25.6992 49.6628 25.6992 49V43C25.6992 42.3373 26.2365 41.8 26.8992 41.8Z" fill="#4BB9B5"/>
</svg>
