<svg display="none" xmlns="http://www.w3.org/2000/svg">

    <symbol id="time" viewBox="0 0 20 20">
        <g>
            <path d="M9.99935 18.3334C14.6017 18.3334 18.3327 14.6025 18.3327 10.0001C18.3327 5.39771 14.6017 1.66675 9.99935 1.66675C5.39698 1.66675 1.66602 5.39771 1.66602 10.0001C1.66602 14.6025 5.39698 18.3334 9.99935 18.3334Z" stroke="#4BB9B5" stroke-linecap="round" stroke-linejoin="round"/>
            <path d="M10 5V10L13.3333 11.6667" stroke="#4BB9B5" stroke-linecap="round" stroke-linejoin="round"/>
        </g>
    </symbol>


    <symbol id="eye" viewBox="0 0 20 20">
        <g>
            <path d="M0.833984 9.99999C0.833984 9.99999 4.16732 3.33333 10.0007 3.33333C15.834 3.33333 19.1673 9.99999 19.1673 9.99999C19.1673 9.99999 15.834 16.6667 10.0007 16.6667C4.16732 16.6667 0.833984 9.99999 0.833984 9.99999Z" stroke="#313033" stroke-linecap="round" stroke-linejoin="round"/>
            <path d="M10 12.5C11.3807 12.5 12.5 11.3807 12.5 10C12.5 8.61929 11.3807 7.5 10 7.5C8.61929 7.5 7.5 8.61929 7.5 10C7.5 11.3807 8.61929 12.5 10 12.5Z" stroke="#313033" stroke-linecap="round" stroke-linejoin="round"/>
        </g>
    </symbol>
</svg>






