<svg width="24" height="24" viewBox="0 0 24 24" fill="none" xmlns="http://www.w3.org/2000/svg">
<path fill-rule="evenodd" clip-rule="evenodd" d="M4.68934 2.74636C5.13494 2.27256 5.74627 2 6.39087 2H13.9055C14.0468 2 14.1819 2.05837 14.2787 2.16129L19.9147 8.15398C20.004 8.24897 20.0538 8.37447 20.0538 8.50488V20.4902C20.0538 21.1461 19.809 21.7809 19.3644 22.2536C18.9188 22.7274 18.3075 23 17.6629 23H6.39087C5.74627 23 5.13494 22.7274 4.68934 22.2536C4.24473 21.7809 4 21.1461 4 20.4902V4.50976C4 3.85392 4.24473 3.21911 4.68934 2.74636ZM6.39087 3.02439C6.03895 3.02439 5.69459 3.17275 5.43555 3.44817C5.17552 3.72466 5.02439 4.10602 5.02439 4.50976V20.4902C5.02439 20.894 5.17552 21.2753 5.43555 21.5518C5.69459 21.8273 6.03895 21.9756 6.39087 21.9756H17.6629C18.0148 21.9756 18.3592 21.8273 18.6182 21.5518C18.8782 21.2753 19.0294 20.894 19.0294 20.4902V8.70789L13.6841 3.02439H6.39087Z" fill="#4BB9B5"/>
<path fill-rule="evenodd" clip-rule="evenodd" d="M13.9067 2C14.1896 2 14.4189 2.22932 14.4189 2.5122V7.99273H19.5427C19.8256 7.99273 20.0549 8.22205 20.0549 8.50493C20.0549 8.78781 19.8256 9.01712 19.5427 9.01712H13.9067C13.6238 9.01712 13.3945 8.78781 13.3945 8.50493V2.5122C13.3945 2.22932 13.6238 2 13.9067 2Z" fill="#4BB9B5"/>
<path d="M7.79742 15.656V14.4656H8.67041C9.55472 14.4656 10.0309 13.8761 10.0309 13.1731C10.0309 12.4645 9.55472 11.875 8.67041 11.875H6.65234V15.656H7.79742ZM8.52302 13.4679H7.79742V12.8727H8.52302C8.71575 12.8727 8.86881 12.9691 8.86881 13.1731C8.86881 13.3715 8.71575 13.4679 8.52302 13.4679Z" fill="#4BB9B5"/>
<path d="M12.1006 15.656C13.2854 15.656 14.1697 14.9701 14.1697 13.7627C14.1697 12.5552 13.2854 11.875 12.0949 11.875H10.4057V15.656H12.1006ZM12.0949 14.6583H11.5507V12.8727H12.1006C12.7128 12.8727 13.0076 13.2525 13.0076 13.7627C13.0076 14.2389 12.6675 14.6583 12.0949 14.6583Z" fill="#4BB9B5"/>
<path d="M15.7248 15.656V14.2445H17.4084V13.2468H15.7248V12.8727H17.4481V11.875H14.5797V15.656H15.7248Z" fill="#4BB9B5"/>
</svg>
