<svg width="59" height="77" viewBox="0 0 59 77" fill="none" xmlns="http://www.w3.org/2000/svg">
<path d="M7.7073 7.07688C7.7073 8.34189 7.28579 8.98946 6.42773 8.9744C5.56966 8.9744 5.14816 8.32683 5.14816 7.06182C5.14816 6.79075 5.1331 6.50462 5.19332 6.2486C5.31375 5.57092 5.88579 5.10407 6.48794 5.13419C7.15031 5.16431 7.66214 5.6914 7.7073 6.41426C7.72235 6.64015 7.7073 6.85099 7.7073 7.07688Z" fill="#DAEBEF"/>
<path d="M7.70715 16.6574C7.70715 17.8773 7.7222 19.1122 7.70715 20.347C7.69209 21.2356 7.19532 21.8078 6.44263 21.8078C5.705 21.8078 5.16306 21.2356 5.14801 20.3621C5.13296 17.9375 5.13296 15.4978 5.14801 13.0732C5.14801 12.1245 5.67489 11.5673 6.47274 11.5823C7.24048 11.5974 7.70715 12.1395 7.70715 13.0582C7.7222 14.2629 7.70715 15.4527 7.70715 16.6574Z" fill="#DAEBEF"/>
<path d="M40.9022 53.8985C39.3065 53.8684 37.6958 53.8684 36.1001 53.8985C35.2119 53.9136 34.67 54.4708 34.7001 55.2237C34.7302 55.9466 35.242 56.4285 36.1151 56.4586C36.913 56.4888 37.7108 56.4586 38.5087 56.4586C39.3065 56.4586 40.1044 56.4737 40.9022 56.4586C41.8055 56.4285 42.3474 55.9315 42.3474 55.1786C42.3474 54.4406 41.7904 53.9136 40.9022 53.8985ZM40.9022 53.8985C39.3065 53.8684 37.6958 53.8684 36.1001 53.8985C35.2119 53.9136 34.67 54.4708 34.7001 55.2237C34.7302 55.9466 35.242 56.4285 36.1151 56.4586C36.913 56.4888 37.7108 56.4586 38.5087 56.4586C39.3065 56.4586 40.1044 56.4737 40.9022 56.4586C41.8055 56.4285 42.3474 55.9315 42.3474 55.1786C42.3474 54.4406 41.7904 53.9136 40.9022 53.8985ZM40.9022 53.8985C39.3065 53.8684 37.6958 53.8684 36.1001 53.8985C35.2119 53.9136 34.67 54.4708 34.7001 55.2237C34.7302 55.9466 35.242 56.4285 36.1151 56.4586C36.913 56.4888 37.7108 56.4586 38.5087 56.4586C39.3065 56.4586 40.1044 56.4737 40.9022 56.4586C41.8055 56.4285 42.3474 55.9315 42.3474 55.1786C42.3474 54.4406 41.7904 53.9136 40.9022 53.8985ZM40.9022 53.8985C39.3065 53.8684 37.6958 53.8684 36.1001 53.8985C35.2119 53.9136 34.67 54.4708 34.7001 55.2237C34.7302 55.9466 35.242 56.4285 36.1151 56.4586C36.913 56.4888 37.7108 56.4586 38.5087 56.4586C39.3065 56.4586 40.1044 56.4737 40.9022 56.4586C41.8055 56.4285 42.3474 55.9315 42.3474 55.1786C42.3474 54.4406 41.7904 53.9136 40.9022 53.8985ZM40.9022 53.8985C39.3065 53.8684 37.6958 53.8684 36.1001 53.8985C35.2119 53.9136 34.67 54.4708 34.7001 55.2237C34.7302 55.9466 35.242 56.4285 36.1151 56.4586C36.913 56.4888 37.7108 56.4586 38.5087 56.4586C39.3065 56.4586 40.1044 56.4737 40.9022 56.4586C41.8055 56.4285 42.3474 55.9315 42.3474 55.1786C42.3474 54.4406 41.7904 53.9136 40.9022 53.8985ZM40.9022 53.8985C39.3065 53.8684 37.6958 53.8684 36.1001 53.8985C35.2119 53.9136 34.67 54.4708 34.7001 55.2237C34.7302 55.9466 35.242 56.4285 36.1151 56.4586C36.913 56.4888 37.7108 56.4586 38.5087 56.4586C39.3065 56.4586 40.1044 56.4737 40.9022 56.4586C41.8055 56.4285 42.3474 55.9315 42.3474 55.1786C42.3474 54.4406 41.7904 53.9136 40.9022 53.8985ZM29.4764 11.5809C29.2506 11.114 28.8291 10.9032 28.242 10.8731C28.1065 10.9182 27.8807 10.9634 27.685 11.0688C25.2915 12.3188 23.7861 15.8126 24.4936 18.4029C24.6442 18.93 24.9302 19.2914 25.4872 19.4119C26.3904 19.5926 27.0979 18.945 26.9775 17.9511C26.7366 15.9482 27.3237 14.3669 29.0248 13.2224C29.1452 13.1471 29.2506 13.0266 29.356 12.9212C29.6571 12.5146 29.7022 12.0477 29.4764 11.5809ZM40.9022 53.8985C39.3065 53.8684 37.6958 53.8684 36.1001 53.8985C35.2119 53.9136 34.67 54.4708 34.7001 55.2237C34.7302 55.9466 35.242 56.4285 36.1151 56.4586C36.913 56.4888 37.7108 56.4586 38.5087 56.4586C39.3065 56.4586 40.1044 56.4737 40.9022 56.4586C41.8055 56.4285 42.3474 55.9315 42.3474 55.1786C42.3474 54.4406 41.7904 53.9136 40.9022 53.8985ZM57.7022 36.9413C57.5216 36.2185 56.8442 35.8119 56.0764 36.0076C55.4743 36.1582 54.8721 36.3389 54.285 36.5648C50.7775 37.9051 48.5797 41.0074 48.5947 44.6519C48.5044 45.0886 48.7001 45.6157 48.7452 46.1729C48.7603 46.2934 48.8055 46.4138 48.8356 46.5343C49.0313 47.212 49.528 47.5132 50.1904 47.4831C50.8227 47.453 51.2893 46.8807 51.3044 46.188C51.3044 45.8115 51.2592 45.435 51.2291 45.0585C51.1087 42.7845 51.8614 40.9472 53.8184 39.6671C54.7065 39.0798 55.685 38.7334 56.7087 38.4774C57.4764 38.2816 57.8678 37.604 57.7022 36.9413ZM57.7022 36.9413C57.5216 36.2185 56.8442 35.8119 56.0764 36.0076C55.4743 36.1582 54.8721 36.3389 54.285 36.5648C50.7775 37.9051 48.5797 41.0074 48.5947 44.6519C48.5044 45.0886 48.7001 45.6157 48.7452 46.1729C48.7603 46.2934 48.8055 46.4138 48.8356 46.5343C49.0313 47.212 49.528 47.5132 50.1904 47.4831C50.8227 47.453 51.2893 46.8807 51.3044 46.188C51.3044 45.8115 51.2592 45.435 51.2291 45.0585C51.1087 42.7845 51.8614 40.9472 53.8184 39.6671C54.7065 39.0798 55.685 38.7334 56.7087 38.4774C57.4764 38.2816 57.8678 37.604 57.7022 36.9413ZM29.4764 11.5809C29.2506 11.114 28.8291 10.9032 28.242 10.8731C28.1065 10.9182 27.8807 10.9634 27.685 11.0688C25.2915 12.3188 23.7861 15.8126 24.4936 18.4029C24.6442 18.93 24.9302 19.2914 25.4872 19.4119C26.3904 19.5926 27.0979 18.945 26.9775 17.9511C26.7366 15.9482 27.3237 14.3669 29.0248 13.2224C29.1452 13.1471 29.2506 13.0266 29.356 12.9212C29.6571 12.5146 29.7022 12.0477 29.4764 11.5809ZM40.9022 53.8985C39.3065 53.8684 37.6958 53.8684 36.1001 53.8985C35.2119 53.9136 34.67 54.4708 34.7001 55.2237C34.7302 55.9466 35.242 56.4285 36.1151 56.4586C36.913 56.4888 37.7108 56.4586 38.5087 56.4586C39.3065 56.4586 40.1044 56.4737 40.9022 56.4586C41.8055 56.4285 42.3474 55.9315 42.3474 55.1786C42.3474 54.4406 41.7904 53.9136 40.9022 53.8985ZM29.4764 11.5809C29.2506 11.114 28.8291 10.9032 28.242 10.8731C28.1065 10.9182 27.8807 10.9634 27.685 11.0688C25.2915 12.3188 23.7861 15.8126 24.4936 18.4029C24.6442 18.93 24.9302 19.2914 25.4872 19.4119C26.3904 19.5926 27.0979 18.945 26.9775 17.9511C26.7366 15.9482 27.3237 14.3669 29.0248 13.2224C29.1452 13.1471 29.2506 13.0266 29.356 12.9212C29.6571 12.5146 29.7022 12.0477 29.4764 11.5809ZM40.9022 53.8985C39.3065 53.8684 37.6958 53.8684 36.1001 53.8985C35.2119 53.9136 34.67 54.4708 34.7001 55.2237C34.7302 55.9466 35.242 56.4285 36.1151 56.4586C36.913 56.4888 37.7108 56.4586 38.5087 56.4586C39.3065 56.4586 40.1044 56.4737 40.9022 56.4586C41.8055 56.4285 42.3474 55.9315 42.3474 55.1786C42.3474 54.4406 41.7904 53.9136 40.9022 53.8985ZM57.7022 36.9413C57.5216 36.2185 56.8442 35.8119 56.0764 36.0076C55.4743 36.1582 54.8721 36.3389 54.285 36.5648C50.7775 37.9051 48.5797 41.0074 48.5947 44.6519C48.5044 45.0886 48.7001 45.6157 48.7452 46.1729C48.7603 46.2934 48.8055 46.4138 48.8356 46.5343C49.0313 47.212 49.528 47.5132 50.1904 47.4831C50.8227 47.453 51.2893 46.8807 51.3044 46.188C51.3044 45.8115 51.2592 45.435 51.2291 45.0585C51.1087 42.7845 51.8614 40.9472 53.8184 39.6671C54.7065 39.0798 55.685 38.7334 56.7087 38.4774C57.4764 38.2816 57.8678 37.604 57.7022 36.9413ZM57.7022 36.9413C57.5216 36.2185 56.8442 35.8119 56.0764 36.0076C55.4743 36.1582 54.8721 36.3389 54.285 36.5648C50.7775 37.9051 48.5797 41.0074 48.5947 44.6519C48.5044 45.0886 48.7001 45.6157 48.7452 46.1729C48.7603 46.2934 48.8055 46.4138 48.8356 46.5343C49.0313 47.212 49.528 47.5132 50.1904 47.4831C50.8227 47.453 51.2893 46.8807 51.3044 46.188C51.3044 45.8115 51.2592 45.435 51.2291 45.0585C51.1087 42.7845 51.8614 40.9472 53.8184 39.6671C54.7065 39.0798 55.685 38.7334 56.7087 38.4774C57.4764 38.2816 57.8678 37.604 57.7022 36.9413ZM29.4764 11.5809C29.2506 11.114 28.8291 10.9032 28.242 10.8731C28.1065 10.9182 27.8807 10.9634 27.685 11.0688C25.2915 12.3188 23.7861 15.8126 24.4936 18.4029C24.6442 18.93 24.9302 19.2914 25.4872 19.4119C26.3904 19.5926 27.0979 18.945 26.9775 17.9511C26.7366 15.9482 27.3237 14.3669 29.0248 13.2224C29.1452 13.1471 29.2506 13.0266 29.356 12.9212C29.6571 12.5146 29.7022 12.0477 29.4764 11.5809ZM40.9022 53.8985C39.3065 53.8684 37.6958 53.8684 36.1001 53.8985C35.2119 53.9136 34.67 54.4708 34.7001 55.2237C34.7302 55.9466 35.242 56.4285 36.1151 56.4586C36.913 56.4888 37.7108 56.4586 38.5087 56.4586C39.3065 56.4586 40.1044 56.4737 40.9022 56.4586C41.8055 56.4285 42.3474 55.9315 42.3474 55.1786C42.3474 54.4406 41.7904 53.9136 40.9022 53.8985ZM77.0012 58.5068V3.16253C76.8356 1.47585 75.5259 0.180716 73.8399 0H3.19254C1.50652 0.165656 0.196841 1.47585 0.03125 3.16253V58.5068C0.528024 60.6151 1.43125 61.4434 3.64415 61.8048C4.14093 61.8801 4.6377 61.8952 5.14953 61.8952H22.356C23.9818 61.8952 25.6076 61.9102 27.2485 61.8952C27.8506 61.8952 28.1065 62.106 28.0915 62.7385C28.0614 63.6722 28.0915 64.5909 28.0764 65.5246C28.0764 66.4583 28.0614 66.4583 27.1732 66.639C24.9001 67.1209 23.199 68.3558 22.2356 70.5093C21.4528 72.2412 21.5581 74.0784 21.6786 75.9157C21.7237 76.5332 22.1603 76.8795 22.7474 77.0301H54.3151C55.113 76.8042 55.4141 76.247 55.4141 75.4639C55.4141 74.8164 55.4291 74.1688 55.4141 73.5062C55.384 69.8919 53.1861 67.2564 49.6334 66.6239C49.1366 66.5335 48.9409 66.3378 48.956 65.8559C48.9711 64.7716 48.9711 63.7023 48.956 62.618C48.9409 62.1211 49.1065 61.8801 49.6485 61.8801C53.1861 61.8952 56.7087 61.8199 60.2313 61.9253C61.4657 61.9554 62.5646 62.347 63.2721 63.6873C65.3044 67.4522 67.5173 71.1267 69.6549 74.8314C70.3625 76.0512 71.2657 76.9849 72.8012 77.0301H73.8549C75.6764 76.8344 76.7151 75.8254 77.0162 74.0182V72.6628C76.9409 71.9249 76.6399 71.2773 76.2786 70.6448C75.1194 68.657 73.9904 66.654 72.8162 64.6661C72.2893 63.7776 71.7625 62.8891 71.2657 61.8952C73.87 61.8349 76.3689 61.7295 77.0012 58.5068ZM52.6442 74.0483C52.599 74.6356 52.2227 74.4248 51.9517 74.4248C47.4657 74.4399 42.9947 74.4248 38.5087 74.4248C34.0227 74.4248 29.5517 74.4097 25.0657 74.4399C24.4936 74.4399 24.3732 74.2893 24.3732 73.7321C24.4033 71.4129 25.3818 69.937 27.3237 69.4099C27.7753 69.2895 28.2119 69.3045 28.6635 69.3045C35.227 69.3045 41.7904 69.3497 48.3388 69.2744C50.5818 69.2593 52.885 70.69 52.6442 74.0483ZM46.2012 66.1872C46.2012 66.5787 46.156 66.7594 45.6893 66.7594C40.9022 66.7444 36.1302 66.7444 31.3431 66.7594C30.9667 66.7594 30.8162 66.6691 30.8313 66.2625C30.8614 64.877 30.8614 63.5066 30.8313 62.1211C30.8162 61.6693 30.9818 61.594 31.3883 61.594C33.7667 61.609 36.1452 61.609 38.5237 61.609C40.8721 61.609 43.2356 61.6241 45.584 61.594C46.0506 61.594 46.2313 61.6693 46.2162 62.1964C46.171 63.5216 46.1861 64.8619 46.2012 66.1872ZM4.62265 59.0338C4.39684 59.0338 4.17104 59.0489 3.94523 59.0188C3.07211 58.9435 2.60544 58.4917 2.59039 57.6182C2.56028 55.6605 2.59039 53.7027 2.57534 51.76C2.57534 51.3835 2.72587 51.2781 3.05706 51.3082C3.17749 51.3233 3.31297 51.3082 3.4334 51.3082C17.0872 51.3082 30.7409 51.3082 44.3947 51.2932C44.9366 51.2932 45.2528 51.4438 45.5538 51.8956C48.0829 55.7207 51.6807 57.6634 56.2119 57.9495C56.5883 57.9646 56.9797 57.9646 57.3409 57.8893C58.2442 57.6785 58.5603 58.2206 58.8463 59.0188H4.62265V59.0338ZM44.8614 16.5957C43.928 14.2314 42.513 12.1983 40.571 10.4514C44.0184 8.34305 48.3237 8.53882 51.2592 10.9032C53.1861 12.4543 53.8184 14.6079 53.8786 16.9572C53.9388 19.8787 53.156 22.5895 51.6657 25.1044C50.3409 27.3483 48.8958 29.532 48.384 32.1222C48.0829 33.6583 47.556 34.9384 46.4119 36.0829C45.1323 37.363 44.3947 39.0497 43.8377 40.9773C43.356 39.2906 42.9646 37.7696 42.7087 36.2034C42.4979 34.9233 42.3926 33.6131 41.9259 32.3933C41.3237 30.7518 39.9237 29.6675 38.4936 29.6675C37.0184 29.6826 35.6635 30.7368 35.0614 32.3933C34.5044 33.9143 34.4592 35.5257 34.128 37.0919C33.7517 38.9593 33.3603 40.8117 32.6076 42.5736C32.442 42.9652 32.3216 43.5525 31.8248 43.5676C31.2829 43.5826 31.0119 43.0254 30.8162 42.5736C29.9581 40.5707 29.5517 38.4624 29.3409 36.3239C28.9796 32.7547 28.0162 29.4266 26.0592 26.3845C24.8098 24.4418 23.7861 22.3937 23.3796 20.0745C22.9431 17.6047 22.8678 15.15 24.1022 12.8911C25.713 9.95443 28.4227 8.94543 31.6141 9.02073C33.8571 9.06591 35.8743 9.77372 37.5904 11.2646C39.6528 13.0567 41.5345 14.9542 42.513 17.5897C42.8141 18.4029 43.5065 18.689 44.184 18.418C44.9366 18.1168 45.1926 17.424 44.8614 16.5957ZM56.5582 55.4195C50.5065 55.3442 45.7646 50.3294 45.885 44.1097C45.9904 38.2816 51.0786 33.6131 57.1904 33.7487C62.9259 33.8842 67.6678 38.9141 67.5474 44.7422C67.4119 50.7661 62.5495 55.4948 56.5582 55.4195ZM62.1883 59.5609C61.8119 58.9134 61.4506 58.2809 61.0743 57.6634C60.9237 57.4225 60.9087 57.2719 61.2098 57.1664C62.8657 56.6394 64.3259 55.7207 65.6657 54.5762C66.0872 55.3141 66.8549 56.037 66.7797 56.6845C66.7044 57.3622 65.5754 57.558 64.928 57.9646C64.0399 58.5068 63.1216 59.0188 62.1883 59.5609ZM74.0205 72.2562C74.2012 72.5875 74.3969 72.9038 74.442 73.2803C74.3969 73.7622 74.1861 74.1236 73.7194 74.3344C73.2678 74.5302 72.8764 74.4248 72.5452 74.1086C72.3495 73.9278 72.199 73.6869 72.0635 73.4459C69.7754 69.4852 67.5022 65.5095 65.184 61.5639C64.8979 61.0669 64.9582 60.8862 65.4399 60.6151C66.8549 59.832 66.8399 59.8169 67.6528 61.2024C69.7754 64.892 71.8979 68.5666 74.0205 72.2562ZM74.4571 51.8956C74.427 52.8443 74.442 53.7931 74.442 54.7569C74.442 55.6906 74.4571 56.6092 74.442 57.5429C74.427 58.5369 73.9603 59.0188 72.9668 59.0489C71.8829 59.079 70.8141 59.064 69.7302 59.0489C69.1732 59.0338 68.8872 58.5821 69.1431 58.0851C69.685 57.0761 69.5345 56.1123 68.9775 55.1635C68.5711 54.4708 68.1797 53.778 67.7732 53.0853C67.3668 52.3624 67.9689 51.3233 68.8119 51.3233C70.4979 51.3233 72.1689 51.3384 73.8399 51.3082C74.3065 51.3082 74.4721 51.4137 74.4571 51.8956ZM73.6442 48.7632C72.47 48.7029 71.2958 48.733 70.1065 48.7632C69.5797 48.7782 69.4291 48.7029 69.5947 48.1156C70.3323 45.4651 70.3022 42.8146 69.3539 40.2243C67.6076 35.4354 64.2205 32.5138 59.2678 31.4596C56.9947 30.9777 54.3603 31.0078 50.9732 32.4837C51.3646 31.0681 51.9216 29.8482 52.599 28.6736C53.728 26.7008 54.9775 24.7882 55.6399 22.5895C56.4528 19.8637 56.8141 17.0927 56.1517 14.2916C55.0979 9.78877 51.3797 6.74672 46.7581 6.47565C43.928 6.30999 41.2786 6.8672 38.9151 8.46352C38.4936 8.74966 38.2829 8.52376 37.9969 8.32799C34.0076 5.73773 28.4528 5.78291 24.6893 8.49364C21.9796 10.4514 20.7603 13.2073 20.6248 16.4903C20.4743 20.0896 21.3925 23.4178 23.2141 26.505C24.4485 28.5832 25.7431 30.6464 26.285 33.0559C26.6915 34.833 26.7517 36.6853 27.113 38.4624C27.4442 40.0587 27.7001 41.655 28.3323 43.176C28.6635 43.9591 29.085 44.6971 29.7323 45.2844C31.4033 46.7602 33.4055 46.4289 34.5044 44.4712C35.7689 42.2273 36.2657 39.7575 36.7323 37.2726C36.9431 36.1733 37.1087 35.0589 37.3345 33.9595C37.5603 32.83 38.0119 32.1975 38.5689 32.2879C39.4571 32.4385 39.5926 33.2216 39.7431 33.9294C40.1947 36.1582 40.4356 38.4322 41.0829 40.6309C41.5796 42.3327 42.0463 44.0495 43.2807 45.4199C43.4463 45.6006 43.4614 45.8416 43.4764 46.0524C43.5216 46.7753 43.642 47.4981 43.8829 48.1909C44.0635 48.718 43.8829 48.7632 43.4162 48.7632C41.685 48.7481 39.9538 48.7632 38.2227 48.7632C26.6313 48.7632 15.0248 48.7632 3.41835 48.7782C2.78609 48.7782 2.59039 48.6577 2.59039 47.9801C2.6205 33.4626 2.60544 18.9601 2.60544 4.4426C2.60544 2.96675 2.99684 2.5752 4.48717 2.5752H72.5603C74.0356 2.5752 74.442 2.96675 74.442 4.4426C74.442 18.9601 74.442 33.4626 74.4571 47.9801C74.4571 48.6427 74.2764 48.7933 73.6442 48.7632ZM56.0764 36.0076C55.4743 36.1582 54.8721 36.3389 54.285 36.5648C50.7775 37.9051 48.5797 41.0074 48.5947 44.6519C48.5044 45.0886 48.7001 45.6157 48.7452 46.1729C48.7603 46.2934 48.8055 46.4138 48.8356 46.5343C49.0313 47.212 49.528 47.5132 50.1904 47.4831C50.8227 47.453 51.2893 46.8807 51.3044 46.188C51.3044 45.8115 51.2592 45.435 51.2291 45.0585C51.1087 42.7845 51.8614 40.9472 53.8184 39.6671C54.7065 39.0798 55.685 38.7334 56.7087 38.4774C57.4614 38.2816 57.8678 37.604 57.6872 36.9413C57.5216 36.2185 56.8442 35.8119 56.0764 36.0076ZM40.9022 53.8985C39.3065 53.8684 37.6958 53.8684 36.1001 53.8985C35.2119 53.9136 34.67 54.4708 34.7001 55.2237C34.7302 55.9466 35.242 56.4285 36.1151 56.4586C36.913 56.4888 37.7108 56.4586 38.5087 56.4586C39.3065 56.4586 40.1044 56.4737 40.9022 56.4586C41.8055 56.4285 42.3474 55.9315 42.3474 55.1786C42.3474 54.4406 41.7904 53.9136 40.9022 53.8985ZM28.227 10.8881C28.0915 10.9333 27.8657 10.9785 27.67 11.0839C25.2764 12.3339 23.771 15.8277 24.4786 18.418C24.6291 18.945 24.9151 19.3065 25.4721 19.427C26.3753 19.6077 27.0829 18.9601 26.9624 17.9662C26.7216 15.9632 27.3087 14.382 29.0098 13.2374C29.1302 13.1621 29.2356 13.0417 29.3409 12.9362C29.6721 12.5146 29.7022 12.0628 29.4764 11.5959C29.2356 11.114 28.8291 10.9182 28.227 10.8881ZM40.9022 53.8985C39.3065 53.8684 37.6958 53.8684 36.1001 53.8985C35.2119 53.9136 34.67 54.4708 34.7001 55.2237C34.7302 55.9466 35.242 56.4285 36.1151 56.4586C36.913 56.4888 37.7108 56.4586 38.5087 56.4586C39.3065 56.4586 40.1044 56.4737 40.9022 56.4586C41.8055 56.4285 42.3474 55.9315 42.3474 55.1786C42.3474 54.4406 41.7904 53.9136 40.9022 53.8985ZM29.4764 11.5809C29.2506 11.114 28.8291 10.9032 28.242 10.8731C28.1065 10.9182 27.8807 10.9634 27.685 11.0688C25.2915 12.3188 23.7861 15.8126 24.4936 18.4029C24.6442 18.93 24.9302 19.2914 25.4872 19.4119C26.3904 19.5926 27.0979 18.945 26.9775 17.9511C26.7366 15.9482 27.3237 14.3669 29.0248 13.2224C29.1452 13.1471 29.2506 13.0266 29.356 12.9212C29.6571 12.5146 29.7022 12.0477 29.4764 11.5809ZM57.7022 36.9413C57.5216 36.2185 56.8442 35.8119 56.0764 36.0076C55.4743 36.1582 54.8721 36.3389 54.285 36.5648C50.7775 37.9051 48.5797 41.0074 48.5947 44.6519C48.5044 45.0886 48.7001 45.6157 48.7452 46.1729C48.7603 46.2934 48.8055 46.4138 48.8356 46.5343C49.0313 47.212 49.528 47.5132 50.1904 47.4831C50.8227 47.453 51.2893 46.8807 51.3044 46.188C51.3044 45.8115 51.2592 45.435 51.2291 45.0585C51.1087 42.7845 51.8614 40.9472 53.8184 39.6671C54.7065 39.0798 55.685 38.7334 56.7087 38.4774C57.4764 38.2816 57.8678 37.604 57.7022 36.9413ZM57.7022 36.9413C57.5216 36.2185 56.8442 35.8119 56.0764 36.0076C55.4743 36.1582 54.8721 36.3389 54.285 36.5648C50.7775 37.9051 48.5797 41.0074 48.5947 44.6519C48.5044 45.0886 48.7001 45.6157 48.7452 46.1729C48.7603 46.2934 48.8055 46.4138 48.8356 46.5343C49.0313 47.212 49.528 47.5132 50.1904 47.4831C50.8227 47.453 51.2893 46.8807 51.3044 46.188C51.3044 45.8115 51.2592 45.435 51.2291 45.0585C51.1087 42.7845 51.8614 40.9472 53.8184 39.6671C54.7065 39.0798 55.685 38.7334 56.7087 38.4774C57.4764 38.2816 57.8678 37.604 57.7022 36.9413ZM40.9022 53.8985C39.3065 53.8684 37.6958 53.8684 36.1001 53.8985C35.2119 53.9136 34.67 54.4708 34.7001 55.2237C34.7302 55.9466 35.242 56.4285 36.1151 56.4586C36.913 56.4888 37.7108 56.4586 38.5087 56.4586C39.3065 56.4586 40.1044 56.4737 40.9022 56.4586C41.8055 56.4285 42.3474 55.9315 42.3474 55.1786C42.3474 54.4406 41.7904 53.9136 40.9022 53.8985ZM29.4764 11.5809C29.2506 11.114 28.8291 10.9032 28.242 10.8731C28.1065 10.9182 27.8807 10.9634 27.685 11.0688C25.2915 12.3188 23.7861 15.8126 24.4936 18.4029C24.6442 18.93 24.9302 19.2914 25.4872 19.4119C26.3904 19.5926 27.0979 18.945 26.9775 17.9511C26.7366 15.9482 27.3237 14.3669 29.0248 13.2224C29.1452 13.1471 29.2506 13.0266 29.356 12.9212C29.6571 12.5146 29.7022 12.0477 29.4764 11.5809ZM29.4764 11.5809C29.2506 11.114 28.8291 10.9032 28.242 10.8731C28.1065 10.9182 27.8807 10.9634 27.685 11.0688C25.2915 12.3188 23.7861 15.8126 24.4936 18.4029C24.6442 18.93 24.9302 19.2914 25.4872 19.4119C26.3904 19.5926 27.0979 18.945 26.9775 17.9511C26.7366 15.9482 27.3237 14.3669 29.0248 13.2224C29.1452 13.1471 29.2506 13.0266 29.356 12.9212C29.6571 12.5146 29.7022 12.0477 29.4764 11.5809ZM40.9022 53.8985C39.3065 53.8684 37.6958 53.8684 36.1001 53.8985C35.2119 53.9136 34.67 54.4708 34.7001 55.2237C34.7302 55.9466 35.242 56.4285 36.1151 56.4586C36.913 56.4888 37.7108 56.4586 38.5087 56.4586C39.3065 56.4586 40.1044 56.4737 40.9022 56.4586C41.8055 56.4285 42.3474 55.9315 42.3474 55.1786C42.3474 54.4406 41.7904 53.9136 40.9022 53.8985ZM40.9022 53.8985C39.3065 53.8684 37.6958 53.8684 36.1001 53.8985C35.2119 53.9136 34.67 54.4708 34.7001 55.2237C34.7302 55.9466 35.242 56.4285 36.1151 56.4586C36.913 56.4888 37.7108 56.4586 38.5087 56.4586C39.3065 56.4586 40.1044 56.4737 40.9022 56.4586C41.8055 56.4285 42.3474 55.9315 42.3474 55.1786C42.3474 54.4406 41.7904 53.9136 40.9022 53.8985ZM29.4764 11.5809C29.2506 11.114 28.8291 10.9032 28.242 10.8731C28.1065 10.9182 27.8807 10.9634 27.685 11.0688C25.2915 12.3188 23.7861 15.8126 24.4936 18.4029C24.6442 18.93 24.9302 19.2914 25.4872 19.4119C26.3904 19.5926 27.0979 18.945 26.9775 17.9511C26.7366 15.9482 27.3237 14.3669 29.0248 13.2224C29.1452 13.1471 29.2506 13.0266 29.356 12.9212C29.6571 12.5146 29.7022 12.0477 29.4764 11.5809ZM40.9022 53.8985C39.3065 53.8684 37.6958 53.8684 36.1001 53.8985C35.2119 53.9136 34.67 54.4708 34.7001 55.2237C34.7302 55.9466 35.242 56.4285 36.1151 56.4586C36.913 56.4888 37.7108 56.4586 38.5087 56.4586C39.3065 56.4586 40.1044 56.4737 40.9022 56.4586C41.8055 56.4285 42.3474 55.9315 42.3474 55.1786C42.3474 54.4406 41.7904 53.9136 40.9022 53.8985ZM40.9022 53.8985C39.3065 53.8684 37.6958 53.8684 36.1001 53.8985C35.2119 53.9136 34.67 54.4708 34.7001 55.2237C34.7302 55.9466 35.242 56.4285 36.1151 56.4586C36.913 56.4888 37.7108 56.4586 38.5087 56.4586C39.3065 56.4586 40.1044 56.4737 40.9022 56.4586C41.8055 56.4285 42.3474 55.9315 42.3474 55.1786C42.3474 54.4406 41.7904 53.9136 40.9022 53.8985ZM40.9022 53.8985C39.3065 53.8684 37.6958 53.8684 36.1001 53.8985C35.2119 53.9136 34.67 54.4708 34.7001 55.2237C34.7302 55.9466 35.242 56.4285 36.1151 56.4586C36.913 56.4888 37.7108 56.4586 38.5087 56.4586C39.3065 56.4586 40.1044 56.4737 40.9022 56.4586C41.8055 56.4285 42.3474 55.9315 42.3474 55.1786C42.3474 54.4406 41.7904 53.9136 40.9022 53.8985ZM40.9022 53.8985C39.3065 53.8684 37.6958 53.8684 36.1001 53.8985C35.2119 53.9136 34.67 54.4708 34.7001 55.2237C34.7302 55.9466 35.242 56.4285 36.1151 56.4586C36.913 56.4888 37.7108 56.4586 38.5087 56.4586C39.3065 56.4586 40.1044 56.4737 40.9022 56.4586C41.8055 56.4285 42.3474 55.9315 42.3474 55.1786C42.3474 54.4406 41.7904 53.9136 40.9022 53.8985ZM40.9022 53.8985C39.3065 53.8684 37.6958 53.8684 36.1001 53.8985C35.2119 53.9136 34.67 54.4708 34.7001 55.2237C34.7302 55.9466 35.242 56.4285 36.1151 56.4586C36.913 56.4888 37.7108 56.4586 38.5087 56.4586C39.3065 56.4586 40.1044 56.4737 40.9022 56.4586C41.8055 56.4285 42.3474 55.9315 42.3474 55.1786C42.3474 54.4406 41.7904 53.9136 40.9022 53.8985ZM40.9022 53.8985C39.3065 53.8684 37.6958 53.8684 36.1001 53.8985C35.2119 53.9136 34.67 54.4708 34.7001 55.2237C34.7302 55.9466 35.242 56.4285 36.1151 56.4586C36.913 56.4888 37.7108 56.4586 38.5087 56.4586C39.3065 56.4586 40.1044 56.4737 40.9022 56.4586C41.8055 56.4285 42.3474 55.9315 42.3474 55.1786C42.3474 54.4406 41.7904 53.9136 40.9022 53.8985Z" fill="#DAEBEF"/>
<path d="M17.9887 73.8233C18.0038 73.4469 17.9737 73.0704 17.9586 72.6939C17.7328 68.5976 14.7973 65.149 10.8834 64.3659C6.72851 63.5527 2.73926 65.5405 0.902705 69.3055C0.616683 69.8928 0.345716 70.5102 0.180124 71.1427C-0.0155747 71.8957 -0.000520923 72.6939 0.0295866 73.4619C0.0446404 74.23 -0.0456823 75.1185 0.315608 75.8413C0.631737 76.4889 1.30916 76.8654 2.00163 77.0009H15.9866C17.4618 76.4588 17.9285 75.3896 17.9887 73.8233ZM13.4425 74.4408H9.01668C7.05969 74.4408 5.11776 74.4257 3.16077 74.4559C2.6941 74.4559 2.58873 74.3203 2.58873 73.8685C2.52851 70.8566 3.73281 68.5976 6.48765 67.2724C7.6769 66.7001 7.72206 66.7453 7.72206 68.0404C7.72206 68.4621 7.69195 68.8988 7.73711 69.3205C7.81238 70.1036 8.35432 70.5855 9.06184 70.5705C9.78443 70.5554 10.2511 70.0584 10.2812 69.2302C10.2963 68.6127 10.3113 67.9802 10.2812 67.3477C10.2661 66.9561 10.3866 66.8959 10.7479 66.9863C13.0511 67.5585 15.1135 69.9078 15.3543 72.2722C15.5801 74.4408 15.5801 74.4408 13.4425 74.4408Z" fill="#DAEBEF"/>
<path d="M7.7073 7.07688C7.7073 8.34189 7.28579 8.98946 6.42773 8.9744C5.56966 8.9744 5.14816 8.32683 5.14816 7.06182C5.14816 6.79075 5.1331 6.50462 5.19332 6.2486C5.31375 5.57092 5.88579 5.10407 6.48794 5.13419C7.15031 5.16431 7.66214 5.6914 7.7073 6.41426C7.72235 6.64015 7.7073 6.85099 7.7073 7.07688Z" fill="#DAEBEF"/>
<path d="M7.70715 16.6574C7.70715 17.8773 7.7222 19.1122 7.70715 20.347C7.69209 21.2356 7.19532 21.8078 6.44263 21.8078C5.705 21.8078 5.16306 21.2356 5.14801 20.3621C5.13296 17.9375 5.13296 15.4978 5.14801 13.0732C5.14801 12.1245 5.67489 11.5673 6.47274 11.5823C7.24048 11.5974 7.70715 12.1395 7.70715 13.0582C7.7222 14.2629 7.70715 15.4527 7.70715 16.6574Z" fill="#DAEBEF"/>
<path d="M29.3386 12.9212C29.2483 13.0416 29.1429 13.1471 29.0075 13.2224C27.3064 14.3518 26.7042 15.9481 26.9602 17.9511C27.0806 18.945 26.3731 19.5775 25.4698 19.4119C24.9128 19.3065 24.6268 18.93 24.4763 18.4029C23.7688 15.7976 25.2741 12.3188 27.6677 11.0688C27.8634 10.9634 28.0892 10.9182 28.2247 10.873C28.8268 10.9032 29.2333 11.114 29.4591 11.5809C29.6999 12.0477 29.6548 12.5145 29.3386 12.9212Z" fill="#DAEBEF"/>
<path d="M42.3458 55.1777C42.3458 55.9306 41.8038 56.4276 40.9006 56.4577C40.1028 56.4879 39.3049 56.4577 38.5071 56.4577C37.7092 56.4577 36.9114 56.4879 36.1135 56.4577C35.2404 56.4276 34.7286 55.9457 34.6985 55.2228C34.6684 54.4699 35.2103 53.9277 36.0985 53.8976C37.6942 53.8675 39.2899 53.8675 40.9006 53.8976C41.7888 53.9126 42.3458 54.4397 42.3458 55.1777Z" fill="#DAEBEF"/>
<path d="M56.7225 38.4622C55.6988 38.7182 54.7203 39.0646 53.8321 39.6519C51.8752 40.932 51.1225 42.7692 51.2429 45.0432C51.2579 45.4197 51.3182 45.7962 51.3182 46.1727C51.3182 46.8655 50.8515 47.4377 50.2042 47.4678C49.5418 47.498 49.045 47.1968 48.8493 46.5191C48.8192 46.3986 48.7741 46.2781 48.759 46.1577C48.7139 45.6155 48.5182 45.0734 48.6085 44.6366C48.5934 40.9922 50.8063 37.8899 54.2988 36.5496C54.8859 36.3237 55.473 36.143 56.0902 35.9924C56.8579 35.7966 57.5354 36.2032 57.716 36.9261C57.8665 37.6038 57.4751 38.2815 56.7225 38.4622Z" fill="#DAEBEF"/>
<path d="M7.70715 16.6574C7.70715 17.8773 7.7222 19.1122 7.70715 20.347C7.69209 21.2356 7.19532 21.8078 6.44263 21.8078C5.705 21.8078 5.16306 21.2356 5.14801 20.3621C5.13296 17.9375 5.13296 15.4978 5.14801 13.0732C5.14801 12.1245 5.67489 11.5673 6.47274 11.5823C7.24048 11.5974 7.70715 12.1395 7.70715 13.0582C7.7222 14.2629 7.70715 15.4527 7.70715 16.6574Z" fill="#DAEBEF"/>
<path d="M7.7073 7.07688C7.7073 8.34189 7.28579 8.98946 6.42773 8.9744C5.56966 8.9744 5.14816 8.32683 5.14816 7.06182C5.14816 6.79075 5.1331 6.50462 5.19332 6.2486C5.31375 5.57092 5.88579 5.10407 6.48794 5.13419C7.15031 5.16431 7.66214 5.6914 7.7073 6.41426C7.72235 6.64015 7.7073 6.85099 7.7073 7.07688Z" fill="#DAEBEF"/>
<path d="M29.3386 12.9212C29.2483 13.0416 29.1429 13.1471 29.0075 13.2224C27.3064 14.3518 26.7042 15.9481 26.9602 17.9511C27.0806 18.945 26.3731 19.5775 25.4698 19.4119C24.9128 19.3065 24.6268 18.93 24.4763 18.4029C23.7688 15.7976 25.2741 12.3188 27.6677 11.0688C27.8634 10.9634 28.0892 10.9182 28.2247 10.873C28.8268 10.9032 29.2333 11.114 29.4591 11.5809C29.6999 12.0477 29.6548 12.5145 29.3386 12.9212Z" fill="#DAEBEF"/>
<path d="M42.3458 55.1777C42.3458 55.9306 41.8038 56.4276 40.9006 56.4577C40.1028 56.4879 39.3049 56.4577 38.5071 56.4577C37.7092 56.4577 36.9114 56.4879 36.1135 56.4577C35.2404 56.4276 34.7286 55.9457 34.6985 55.2228C34.6684 54.4699 35.2103 53.9277 36.0985 53.8976C37.6942 53.8675 39.2899 53.8675 40.9006 53.8976C41.7888 53.9126 42.3458 54.4397 42.3458 55.1777Z" fill="#DAEBEF"/>
<path d="M56.7225 38.4622C55.6988 38.7182 54.7203 39.0646 53.8321 39.6519C51.8752 40.932 51.1225 42.7692 51.2429 45.0432C51.2579 45.4197 51.3182 45.7962 51.3182 46.1727C51.3182 46.8655 50.8515 47.4377 50.2042 47.4678C49.5418 47.498 49.045 47.1968 48.8493 46.5191C48.8192 46.3986 48.7741 46.2781 48.759 46.1577C48.7139 45.6155 48.5182 45.0734 48.6085 44.6366C48.5934 40.9922 50.8063 37.8899 54.2988 36.5496C54.8859 36.3237 55.473 36.143 56.0902 35.9924C56.8579 35.7966 57.5354 36.2032 57.716 36.9261C57.8665 37.6038 57.4751 38.2815 56.7225 38.4622Z" fill="#DAEBEF"/>
</svg>
