<svg width="59" height="78" viewBox="0 0 59 78" fill="none" xmlns="http://www.w3.org/2000/svg">
<path d="M76.384 19.795C74.3956 17.786 72.3871 15.7769 70.3785 13.788C69.5149 12.9241 68.7115 12.9241 67.8478 13.8081C67.2252 14.451 66.6427 15.114 66 15.8171C63.2282 13.0446 60.6171 10.4128 57.986 7.80103C57.5843 7.39922 57.1022 6.95723 56.6001 6.85678C56.1181 6.75633 55.5557 7.07778 54.9933 7.21841C54.9732 7.15814 54.933 7.0175 54.9129 6.85678C53.9087 1.131 47.5417 -1.82229 42.5806 1.21137C41.4559 1.89444 40.5119 2.93914 39.5277 3.8633C38.7042 4.64683 38.7042 5.37009 39.4072 6.23398C40.5721 7.6604 40.4918 9.22745 39.1862 10.5534C38.2623 11.4977 37.3183 12.4218 36.3743 13.3661C31.9355 17.8262 31.9355 24.2551 36.3944 28.7152C38.7042 31.0256 40.9939 33.3159 43.3037 35.6263C43.4845 35.8071 43.6652 36.008 43.8862 36.2491C42.0584 37.0326 40.2507 37.2938 38.3828 37.3541C33.5423 37.4746 29.3646 39.2024 25.93 42.658C18.2775 50.3124 10.605 57.9468 2.91235 65.5811C1.58673 66.887 0.381619 68.213 0 70.1015V71.9096C0.180767 72.4521 0.341448 72.9945 0.562386 73.5169C1.36579 75.2848 2.75167 76.3697 4.6196 76.872C4.78028 76.9122 4.94096 76.9724 5.10164 77.0327H6.90931C7.8734 76.5907 9.01826 76.3295 9.76141 75.6465C12.3122 73.316 14.7225 70.8248 17.1528 68.3737C17.7553 67.771 17.6951 66.9272 17.1327 66.3446C16.5703 65.762 15.6865 65.7419 15.0237 66.3044C14.8631 66.445 14.7024 66.6258 14.5417 66.7665C12.4327 68.876 10.3238 70.9855 8.19476 73.0749C7.3311 73.9388 6.28667 74.2602 5.10164 73.8785C3.97687 73.5169 3.29397 72.7333 3.05295 71.5882C2.81193 70.4028 3.29397 69.4586 4.13755 68.6148C12.1114 60.6791 20.0852 52.7634 27.9988 44.8277C30.891 41.9347 34.3658 40.448 38.423 40.3877C43.364 40.3074 47.5015 38.459 50.9562 34.9633C56.7809 29.0969 62.6457 23.2506 68.4905 17.4043C68.6914 17.2034 68.7918 16.9422 68.8521 16.8216C70.3986 18.3686 71.8046 19.7548 73.311 21.2415C73.1101 21.3822 72.849 21.5429 72.6482 21.7639C65.9799 28.4138 59.2915 35.0638 52.6634 41.7539C49.6908 44.7674 46.216 46.3747 41.958 46.3948C39.0055 46.4149 36.2136 47.1783 33.6226 48.6248C29.927 50.7142 27.3761 54.0693 24.4236 56.9824C24.1424 57.2436 24.2027 58.0472 24.3433 58.5093C24.524 59.0919 25.1266 59.3933 25.7492 59.2527C26.171 59.1522 26.5928 58.9111 26.8941 58.6299C28.4607 57.1231 30.0274 55.5962 31.5338 54.0291C34.5265 50.895 38.2021 49.4284 42.4802 49.3682C46.9793 49.3079 50.8557 47.7207 54.0292 44.5465C61.4808 37.1532 68.8922 29.6996 76.3238 22.2862C77.2075 21.4224 77.2276 20.6589 76.384 19.795ZM37.9409 16.1185C38.8849 15.0738 39.8892 14.1094 40.8935 13.125C43.4041 10.6338 43.8259 8.48411 42.44 5.22945C43.9464 3.44141 45.8344 2.59761 48.1643 3.2405C50.2933 3.82312 51.5788 5.28973 51.9604 7.45949C52.2617 9.10691 51.8399 10.6338 50.6549 11.8392C46.2562 16.2792 41.7973 20.679 37.3384 25.1391C35.4504 22.6077 35.7115 18.5896 37.9409 16.1185ZM46.9793 34.8227C44.3481 32.1908 41.9379 29.7599 39.5478 27.3691C40.8533 26.0833 42.2593 24.6971 43.605 23.3711C45.975 25.7418 48.4254 28.1928 50.675 30.4631C49.4699 31.8895 48.2045 33.3762 46.9793 34.8227ZM53.1856 28.2933L45.8746 20.9804C47.2002 19.6544 48.5861 18.2682 49.9117 16.9422C52.342 19.3731 54.7924 21.8242 57.2227 24.2551C55.877 25.6213 54.4911 26.9874 53.1856 28.2933ZM59.4924 21.9648C57.0821 19.5539 54.6518 17.123 52.2818 14.7523C53.6677 13.3862 55.0535 11.9999 56.3992 10.674C58.7291 13.0045 61.1795 15.4555 63.5898 17.8663C62.2842 19.1722 60.8983 20.5585 59.4924 21.9648Z" fill="#DAEBEF"/>
<path d="M22.3554 62.5892C22.3353 63.3928 21.6524 64.0759 20.849 64.0759C20.0255 64.0759 19.3828 63.4129 19.3828 62.5892C19.3828 61.7655 20.0055 61.1025 20.8289 61.0825C21.6524 61.0624 22.3755 61.7655 22.3554 62.5892Z" fill="#DAEBEF"/>
</svg>
