<svg width="59" height="77" viewBox="0 0 59 77" fill="none" xmlns="http://www.w3.org/2000/svg">
<path d="M0.0824908 13.8623C0.598058 12.2813 1.73231 11.366 3.25839 10.8875C3.77395 10.7211 4.24827 10.4714 4.76384 10.2634C6.74362 9.49367 8.62029 10.2634 9.50706 12.2189C9.69267 12.6141 9.85765 13.0302 10.0639 13.5295C10.765 13.2382 11.425 12.947 12.1055 12.6558C13.7966 11.9484 15.2195 12.5309 15.9413 14.2368C16.8075 16.3171 17.6736 18.3974 18.5192 20.4778C19.1791 22.1212 18.6223 23.5358 17.0343 24.2639C16.3538 24.576 15.6732 24.8464 14.9308 25.1585C14.9927 25.3665 15.0546 25.5745 15.1164 25.741C17.1993 30.7545 19.3028 35.7681 21.3651 40.8025C21.592 41.3641 21.9013 41.5514 22.4581 41.5098C23.3243 41.4682 24.3966 41.7594 25.0153 41.3641C25.634 40.9689 25.8196 39.8663 26.1702 39.0758C26.6239 38.0564 27.0364 37.0371 27.5313 35.8513C26.7683 35.8513 26.129 35.8097 25.469 35.8513C22.355 36.0801 21.5095 34.6655 21.6951 32.0027C21.7157 31.7531 21.6951 31.4826 21.7363 31.233C21.9219 29.8808 22.8912 28.9654 24.2523 28.9654C26.7476 28.9446 29.243 28.9446 31.7383 28.9654C32.522 28.9654 32.9963 29.4439 32.9963 30.1304C32.9963 30.7961 32.5014 31.2746 31.7177 31.2954C29.4492 31.3162 27.1807 31.337 24.9328 31.2954C24.2317 31.2746 23.9842 31.4618 24.0048 32.1899C24.0667 33.7294 23.8811 33.5421 25.3247 33.5421C30.0679 33.5421 34.7905 33.5213 39.5337 33.563C40.2555 33.563 40.4617 33.3549 40.4205 32.6476C40.3586 31.0666 40.5648 31.337 39.1006 31.3162C38.5026 31.3162 37.9251 31.337 37.3271 31.3162C36.5847 31.2746 36.131 30.8169 36.1103 30.172C36.0897 29.4855 36.564 29.0071 37.3477 29.0071C38.317 28.9863 39.3069 28.9863 40.2761 29.0071C41.5753 29.0487 42.5652 30.0056 42.6684 31.3162C42.7302 32.0651 42.7302 32.814 42.6684 33.563C42.5859 34.8736 41.596 35.8305 40.2967 35.8721C38.75 35.9137 37.2033 35.9137 35.6566 35.8721C35.1204 35.8513 34.8936 36.0385 34.6874 36.517C34.0274 38.1397 33.3263 39.7623 32.6045 41.4682C37.6777 41.4682 42.6684 41.4682 47.7415 41.4682C47.7622 41.1977 47.7828 40.9273 47.7828 40.636C47.7828 33.2093 47.7828 25.7826 47.7622 18.3766C47.7622 17.9814 47.5766 17.5445 47.3291 17.2117C46.5454 16.1507 46.1742 14.9857 46.1948 13.6543C46.1948 13.3839 46.1536 13.0302 45.9886 12.843C45.0193 11.678 44.0088 10.5338 42.9983 9.38966C42.6065 8.93198 41.3279 8.74476 40.8123 9.0568C39.245 9.99295 37.657 10.9291 36.131 11.9276C35.8216 12.1149 35.636 12.6141 35.5535 12.9886C35.038 15.277 33.8418 17.0244 31.7177 18.0438C31.264 18.2518 30.7278 18.3558 30.2329 18.3974C29.5111 18.4598 28.9336 18.1062 28.6243 17.4197C27.2426 14.1536 25.8609 10.8875 24.4998 7.62138C24.0873 6.60203 24.4791 5.68669 25.469 5.22902C27.7169 4.18886 29.9648 4.20966 32.1302 5.47866C32.6663 5.7907 33.0169 5.7491 33.4913 5.43705C34.7905 4.60492 36.1516 3.85601 37.4302 3.00308C38.1932 2.5038 38.9356 1.94212 39.5749 1.29722C41.9466 -1.03274 45.8855 -0.0965966 46.9991 3.08629C47.1641 3.52316 47.4116 3.98083 47.7209 4.33448C49.082 5.93633 50.4637 7.49657 51.8454 9.0568C52.361 9.63929 52.9178 10.1802 53.4953 10.6587C54.9801 11.9068 55.5369 13.9664 54.8564 15.797C54.712 16.1923 54.6295 16.65 54.6295 17.066C54.6089 18.7095 54.6295 20.3321 54.6089 21.9756C54.6089 22.9325 54.1552 23.4942 53.4334 23.4942C52.7116 23.4942 52.2991 22.9325 52.2991 21.9548C52.2991 20.8106 52.2991 19.6664 52.2991 18.5014C51.5567 18.5847 50.8556 18.6887 50.1131 18.7719C50.1131 26.3234 50.1131 33.875 50.1131 41.489C50.8349 41.489 51.5155 41.489 52.2579 41.489C52.2785 41.1977 52.2991 40.9273 52.2991 40.6568C52.2991 36.4754 52.2991 32.294 52.2991 28.1125C52.2991 27.4884 52.4229 26.9683 53.0209 26.6979C53.8252 26.3651 54.5883 26.9475 54.6089 27.9253C54.6295 29.9848 54.6089 32.0235 54.6089 34.083C54.6089 36.5378 54.6089 39.0134 54.6089 41.5514C56.6299 41.6138 58.1354 42.7788 59.7233 43.7773C65.4564 47.3971 71.1689 51.0168 76.902 54.6574C79.1705 56.0928 79.6036 58.0483 78.1806 60.3367C77.8094 60.9399 77.4588 61.5224 77.067 62.1049C75.8503 63.9772 73.8086 64.4557 71.9113 63.2491C68.3024 60.9816 64.714 58.714 61.1257 56.4257C59.1665 55.1775 57.2073 53.9501 55.2482 52.7019C55.0832 52.5979 54.8976 52.4939 54.6501 52.369C54.6501 56.4257 54.6501 60.3991 54.6501 64.4557C55.1657 64.6013 55.7019 64.7261 56.2381 64.8717C58.3622 65.5166 60.012 66.8272 61.435 68.4915C62.1156 69.3028 62.8167 69.8645 64.0128 69.8021C65.1883 69.7189 66.2195 70.7799 66.3432 71.9864C66.4463 72.881 66.4463 73.7963 66.3432 74.7116C66.2195 75.9598 65.209 76.8752 63.9716 76.9792C63.6829 77 63.4148 77 63.1261 77C46.9166 77 30.7072 77 14.4978 76.9792C13.776 76.9792 12.9717 76.8544 12.3736 76.4799C10.6207 75.3773 10.6413 71.3623 12.3942 70.239C12.8686 69.9477 13.5079 69.7813 14.0647 69.7813C14.7865 69.7813 15.2814 69.5941 15.7145 69.0116C16.0238 68.5955 16.4157 68.2419 16.7663 67.8674C18.911 65.5166 21.5713 64.3725 24.7266 64.3725C25.4072 64.3725 26.1083 64.3725 26.8301 64.3725C26.8301 62.1465 26.8301 60.0038 26.8301 57.7987C25.0566 57.8819 23.448 57.4866 22.1282 56.2384C20.8083 54.9902 20.2721 53.43 20.3134 51.5785C19.5297 51.5369 18.7873 51.5369 18.0655 51.4329C15.9826 51.1624 14.4359 50.0599 13.611 48.146C11.4456 43.1116 9.38333 38.0356 7.27981 32.9597C6.94985 32.1899 7.19732 31.545 7.85725 31.2746C8.49655 31.0042 9.09461 31.2954 9.42457 32.1067C11.425 36.8915 13.4048 41.6554 15.4052 46.4401C16.2919 48.6037 17.1993 49.2069 19.5297 49.2069C30.2122 49.2069 40.8742 49.2278 51.5567 49.1861C53.2684 49.1861 54.7739 49.6438 56.2175 50.5592C61.7856 54.1165 67.3537 57.6322 72.9425 61.148C74.0355 61.8345 74.6129 61.7097 75.2935 60.6279C75.6028 60.1286 75.9328 59.6085 76.2421 59.1093C76.9845 57.9027 76.8814 57.3826 75.7059 56.6337C70.7565 53.4924 65.8276 50.3719 60.8782 47.2514C59.6408 46.4609 58.3828 45.712 57.1661 44.8799C56.0937 44.1518 54.9595 43.8605 53.6809 43.8813C43.3695 43.9021 33.0376 43.8813 22.7262 43.8813C20.4783 43.8813 19.9215 43.5069 19.0554 41.4266C15.2195 32.2107 11.3837 22.9741 7.54791 13.7583C6.9086 12.2189 6.49615 12.0525 4.94945 12.6974C4.43388 12.9262 3.89769 13.1342 3.38212 13.3631C2.30974 13.8207 2.08289 14.3824 2.53659 15.4642C4.02142 19.0423 5.50626 22.6413 7.01172 26.2194C7.07358 26.3859 7.15607 26.5523 7.21794 26.7187C7.50666 27.4884 7.25919 28.1333 6.61988 28.4038C5.98058 28.6534 5.40315 28.383 5.0938 27.6132C3.44399 23.619 1.79417 19.6248 0.144359 15.6306C0.123736 15.5682 0.0618681 15.5058 0 15.4434C0.0824908 14.9025 0.0824908 14.3824 0.0824908 13.8623ZM18.3542 69.7397C18.8491 69.7397 19.1172 69.7397 19.3853 69.7397C23.9017 69.7397 28.4387 69.7397 32.9551 69.7397C33.2025 69.7397 33.4706 69.7189 33.7181 69.7605C34.3162 69.8437 34.6461 70.2182 34.708 70.7798C34.7699 71.3623 34.5018 71.7992 33.9243 71.9656C33.6356 72.0488 33.3263 72.0488 33.0169 72.0488C27.0157 72.0488 21.0351 72.0488 15.0339 72.0488C13.4254 72.0488 13.6316 71.9032 13.6316 73.4635C13.6316 74.6076 13.6316 74.6076 14.7658 74.6076C30.7278 74.6076 46.7104 74.6076 62.6724 74.6076C64.3428 74.6076 64.1984 74.8573 64.1984 73.089C64.1984 72.0696 64.1984 72.0696 63.1673 72.0696C55.2688 72.0696 47.3703 72.0696 39.4718 72.0696C38.317 72.0696 37.7189 71.6744 37.7395 70.8839C37.7395 70.0933 38.2963 69.7397 39.4925 69.7397C45.8442 69.7397 52.196 69.7397 58.5478 69.7397C58.7953 69.7397 59.0634 69.7397 59.4965 69.7397C57.6817 67.6594 55.5988 66.7232 53.1034 66.7024C43.6376 66.6816 34.1718 66.6816 24.706 66.7024C22.2519 66.7232 20.1484 67.6594 18.3542 69.7397ZM40.4617 51.5369C40.503 53.4092 39.9462 54.9694 38.6263 56.2176C37.3064 57.4658 35.6979 57.8611 33.945 57.7779C33.945 60.0038 33.945 62.1673 33.945 64.3101C38.5851 64.3101 43.1839 64.3101 47.7828 64.3101C47.7828 60.0246 47.7828 55.8016 47.7828 51.5369C45.3287 51.5369 42.9571 51.5369 40.4617 51.5369ZM22.7881 51.5577C22.685 53.7004 23.9429 55.3647 25.8402 55.4063C28.8924 55.4895 31.9652 55.4895 35.0173 55.4063C36.9971 55.3439 38.5026 53.3052 38.0076 51.5577C32.9551 51.5577 27.9025 51.5577 22.7881 51.5577ZM30.6041 15.9427C33.0994 14.9025 34.1306 11.8652 32.8932 9.41046C31.7589 7.18452 28.8099 6.10275 26.9332 7.24693C28.15 10.1178 29.3667 13.0094 30.6041 15.9427ZM50.2163 51.5577C50.2163 55.8224 50.2163 60.0662 50.2163 64.3101C50.9587 64.3101 51.6598 64.3101 52.361 64.3101C52.361 60.0246 52.361 55.8016 52.361 51.5577C51.6392 51.5577 50.9587 51.5577 50.2163 51.5577ZM10.9507 15.693C11.9818 18.1894 12.9923 20.5818 14.0028 23.0157C14.7246 22.7037 15.3639 22.4124 16.0032 22.1628C16.4775 21.9756 16.5394 21.7051 16.3538 21.2683C15.5083 19.2504 14.6627 17.2117 13.8172 15.1937C13.6522 14.7777 13.4254 14.6113 12.9923 14.8193C12.353 15.1105 11.6931 15.381 10.9507 15.693ZM29.3667 57.8195C29.3667 60.0246 29.3667 62.1673 29.3667 64.3101C30.1091 64.3101 30.8103 64.3101 31.5321 64.3101C31.5321 62.1049 31.5321 59.983 31.5321 57.8195C30.7897 57.8195 30.1091 57.8195 29.3667 57.8195ZM50.7937 11.9901C49.5976 11.9692 48.6283 12.9262 48.5871 14.112C48.5458 15.3186 49.577 16.3587 50.7731 16.3587C51.9486 16.3587 52.9178 15.381 52.9178 14.1744C52.9385 12.947 51.9898 11.9901 50.7937 11.9901ZM42.7715 2.31657C41.5753 2.33738 40.6473 3.29432 40.6679 4.52171C40.6886 5.72829 41.6578 6.68524 42.8333 6.68524C44.0294 6.68524 45.04 5.64508 44.9987 4.4385C44.9781 3.29432 43.9263 2.29577 42.7715 2.31657ZM27.7375 41.4058C29.7585 41.8426 30.0473 41.697 30.7897 39.9287C30.9753 39.4919 31.1609 39.0758 31.3259 38.6389C31.6971 37.7444 32.0683 36.8499 32.4807 35.8721C31.7177 35.8721 31.0784 35.8513 30.4391 35.8929C30.2741 35.8929 30.0266 36.0177 29.9648 36.1634C29.2224 37.89 28.4799 39.6375 27.7375 41.4058ZM35.5123 9.55608C36.7703 8.78636 38.0076 8.03745 39.1831 7.30934C38.8738 6.58123 38.5851 5.93633 38.2757 5.22902C37.0177 5.99874 35.7597 6.76845 34.5224 7.51737C34.8523 8.22468 35.1617 8.84877 35.5123 9.55608ZM47.5147 10.9083C48.1952 10.4922 48.8139 10.1178 49.4532 9.72251C48.5664 8.70315 47.6797 7.7046 46.8341 6.72685C46.2979 7.30934 45.803 7.82942 45.3081 8.3911C46.0505 9.24403 46.7929 10.097 47.5147 10.9083Z" fill="#DAEBEF"/>
</svg>
