<svg width="59" height="77" viewBox="0 0 59 77" fill="none" xmlns="http://www.w3.org/2000/svg">
<g clip-path="url(#clip0_483_24581)">
<path d="M42.79 2.46438C42.79 4.64011 42.79 6.67079 42.79 8.72219C42.79 11.9547 41.1079 13.6953 37.9079 13.7989C37.8053 13.7989 37.7028 13.8196 37.5182 13.8403C37.5182 14.8971 37.4771 15.9539 37.5182 17.0107C37.6618 19.9738 35.5284 22.3153 32.4515 22.0874C32.0207 22.0666 31.59 22.0874 31.1387 22.0874C31.1387 23.8072 31.1387 25.4442 31.1387 27.2469C31.7541 26.9983 32.3489 26.8532 32.8207 26.501C33.5592 25.9622 34.3387 25.382 34.8515 24.6361C38.5643 19.4143 44.5336 18.4404 50.031 21.1135C55.6515 23.8487 58.6874 28.4695 59.5079 34.6651C60.2053 40.0319 59.4259 45.2537 57.7438 50.3096C55.6105 56.6918 53.313 63.0117 51.0156 69.3524C50.4823 70.8029 49.7438 72.1705 48.9438 73.4967C46.1541 78.1382 38.831 78.4283 36.3694 72.6264C35.4464 70.4299 34.8925 68.0677 34.1746 65.7884C33.7643 64.4829 33.4156 63.1568 32.9438 61.8928C32.4515 60.5459 31.4464 59.7378 30.0105 59.6342C28.6566 59.5513 27.7541 60.2351 27.0771 61.3955C26.6874 62.0793 25.9079 62.2865 25.2925 61.9342C24.6977 61.6027 24.5746 60.9396 24.9643 60.1729C26.5233 56.9819 30.3797 56.0909 33.1489 58.2873C34.4823 59.3234 35.2412 60.7324 35.6925 62.3279C36.2669 64.4001 36.7592 66.4722 37.4156 68.5029C37.8259 69.7669 38.3387 71.0516 39.0156 72.1705C40.7592 75.0093 44.1643 75.2994 46.3182 72.7714C47.1797 71.7561 47.9182 70.5128 48.3694 69.2695C51.0361 61.7892 53.7438 54.3296 56.1438 46.7663C57.5387 42.3734 57.7233 37.7733 56.7387 33.1939C55.5284 27.5578 51.1592 23.2892 45.5182 22.3775C42.3182 21.8594 39.5489 22.854 37.3951 25.3613C36.8207 26.0244 36.2669 26.6875 35.6925 27.3505C34.0515 29.2155 31.9592 30.1065 29.5592 30.3344C26.1336 30.6659 22.7695 30.2308 19.4874 29.174C18.5643 28.8632 18.2771 28.3659 18.5028 27.5578C18.7079 26.8325 19.2618 26.5839 20.1438 26.7911C21.231 27.0605 22.3387 27.3091 23.4259 27.5578C23.6925 27.6199 23.9797 27.6199 24.2874 27.6614C21.0669 23.2478 16.7182 20.5747 10.4823 23.4964C5.96946 25.61 3.58997 29.4019 2.81048 34.2922C1.96946 39.5346 2.72843 44.6113 4.38997 49.5637C6.5233 55.9458 8.82074 62.2658 11.1387 68.5857C11.631 69.9326 12.3489 71.2173 13.1489 72.3985C14.2156 73.9733 15.7951 74.5949 17.6823 74.4291C19.2002 74.2841 20.3079 73.4345 20.8823 72.0876C21.6207 70.3056 22.1746 68.4614 22.79 66.638C22.913 66.3064 22.9541 65.9334 23.0977 65.6019C23.3438 65.001 23.8156 64.7109 24.4515 64.8974C25.0874 65.0631 25.4977 65.4983 25.4156 66.2028C25.313 66.8659 25.1695 67.529 24.9438 68.1506C24.3489 69.829 23.8771 71.5696 23.0771 73.1444C20.9848 77.3094 15.8361 78.2418 12.3284 75.1751C11.1592 74.1598 10.2771 72.9165 9.68228 71.5074C6.40023 63.4262 3.44638 55.2206 1.12843 46.8285C-0.163876 42.1455 -0.41003 37.3382 0.718175 32.5516C2.07202 26.7911 5.35407 22.5847 10.872 20.3882C15.7336 18.4612 20.6771 19.808 24.2054 23.7243C25.0259 24.6361 25.9694 25.4442 26.913 26.2109C27.3643 26.5839 27.9797 26.7704 28.6156 27.1019C28.6156 25.3613 28.6156 23.7865 28.6156 22.0874C28.0823 22.0874 27.5489 22.0874 27.0361 22.0874C24.1848 22.0666 22.3592 20.2017 22.3387 17.3008C22.3387 16.1611 22.3387 15.0422 22.3387 13.8403C21.8259 13.8196 21.3746 13.8196 20.9233 13.7574C18.7489 13.4466 17.1079 11.706 17.0464 9.42671C16.9643 6.73295 17.0054 4.03919 17.0259 1.36616C17.0259 0.516588 17.5592 -0.0221634 18.2771 -0.00144224C18.9951 0.019279 19.4464 0.55803 19.4464 1.42832C19.4464 3.89414 19.4464 6.33925 19.4464 8.80507C19.4464 10.5871 20.1848 11.3331 21.9695 11.3331C27.2618 11.3331 32.5746 11.3331 37.8669 11.3331C39.631 11.3331 40.3284 10.6285 40.3489 8.84651C40.3489 6.75367 40.3489 4.66083 40.3489 2.46438C40.0207 2.46438 39.7541 2.46438 39.4874 2.46438C34.4002 2.46438 29.2925 2.46438 24.2054 2.46438C23.9592 2.46438 23.6925 2.4851 23.4464 2.44366C22.8105 2.36078 22.3592 1.86347 22.4002 1.22111C22.4207 0.537309 22.7695 0.102164 23.4464 -0.00144224C23.713 -0.0428847 24.0002 -0.0221634 24.2874 -0.0221634C37.5387 -0.00144224 50.79 -0.00144224 64.0617 -0.00144224C66.6464 -0.00144224 68.0002 1.34544 68.0002 3.95631C68.0002 4.66083 68.0207 5.34463 68.0002 6.04915C67.9387 7.91406 66.5233 9.42671 64.6771 9.42671C58.5438 9.46815 52.39 9.44743 46.2566 9.44743C45.3951 9.44743 44.9233 8.97084 44.9438 8.18343C44.9643 7.41675 45.4361 6.9816 46.3387 6.9816C52.2259 6.9816 58.113 6.9816 64.0002 6.9816C65.3951 6.9816 65.5797 6.77439 65.6002 5.36535C65.6002 4.76444 65.6207 4.18424 65.6002 3.58333C65.5797 2.83736 65.2515 2.50582 64.513 2.4851C64.2669 2.46438 64.0002 2.4851 63.7541 2.4851C57.1284 2.4851 50.5028 2.4851 43.8566 2.4851C43.5079 2.46438 43.2002 2.46438 42.79 2.46438ZM35.0771 13.861C31.59 13.861 28.2053 13.861 24.8002 13.861C24.8002 15.1665 24.7797 16.4098 24.8002 17.6323C24.8207 18.7512 25.5592 19.5594 26.6874 19.5801C28.8412 19.6215 30.9746 19.6215 33.1284 19.5801C34.2566 19.5594 35.0156 18.8134 35.0566 17.6737C35.1182 16.4305 35.0771 15.1665 35.0771 13.861Z" fill="#DAEBEF"/>
<path d="M35.0764 13.8633C35.0764 15.1687 35.1174 16.4327 35.0559 17.6967C34.9944 18.8364 34.2559 19.5823 33.1277 19.6031C30.9738 19.6445 28.8405 19.6445 26.6867 19.6031C25.5585 19.5823 24.8405 18.7742 24.7995 17.6553C24.7585 16.412 24.7995 15.1687 24.7995 13.884C28.2046 13.8633 31.5892 13.8633 35.0764 13.8633Z" fill="#DAEBEF"/>
</g>
<defs>
<clipPath id="clip0_483_24581">
<rect width="68" height="77" fill="white"/>
</clipPath>
</defs>
</svg>
