<svg width="61" height="67" viewBox="0 0 61 67" fill="none" xmlns="http://www.w3.org/2000/svg">
<path fill-rule="evenodd" clip-rule="evenodd" d="M30.0852 9.93164C31.583 11.2145 33.7788 11.2576 35.3256 10.0358L35.3306 10.0319L35.3419 10.0232C35.3611 10.0084 35.396 9.98176 35.4459 9.94422C35.5457 9.86894 35.7055 9.75117 35.9194 9.6002C36.3482 9.29763 36.989 8.86574 37.7973 8.38064C39.431 7.39971 41.6618 6.25255 44.1473 5.48242C49.0827 3.95299 54.314 4.02767 58.572 8.96494C61.1407 11.9432 62.213 14.8233 62.4867 17.6501C62.6855 19.7038 62.4741 21.8506 61.9576 24.1289C59.2333 22.1429 55.8776 20.971 52.248 20.971C43.1353 20.971 35.748 28.3582 35.748 37.471C35.748 46.4597 42.9358 53.7699 51.8774 53.9668C51.2069 55.8765 50.6001 57.2091 49.9646 58.2719C49.2149 59.5261 48.3484 60.5347 47.0124 61.7427C46.3387 61.1043 45.4869 60.0838 44.3625 58.6382C44.1853 58.4105 44.0017 58.1725 43.8122 57.9272C42.6531 56.4259 41.2794 54.6466 39.8792 53.2262C38.4006 51.7265 35.9122 49.5673 32.6621 49.5772C29.4269 49.5871 26.9319 51.7119 25.4225 53.2221C24.0017 54.6437 22.6087 56.4222 21.4328 57.9235C21.2416 58.1677 21.056 58.4047 20.8772 58.6316C19.7292 60.0863 18.8615 61.1111 18.1755 61.7491C14.8522 58.5025 13.0201 53.8944 10.9139 45.3204C10.4377 43.3823 9.71021 41.0475 8.95864 38.6365C8.74311 37.9451 8.52572 37.2472 8.31184 36.5509C7.31998 33.3237 6.33514 29.9259 5.66008 26.5709C4.24263 19.526 4.51022 14.1336 7.13931 10.9416C10.6352 6.69723 14.1099 4.76632 17.4553 4.50335C20.8151 4.23902 25.0057 5.58038 30.0852 9.93164ZM56.3969 53.445C54.2905 60.1158 52.5493 62.4913 48.7158 65.7293C46.2433 67.8175 43.4548 64.2104 40.5202 60.414C37.978 57.1251 35.326 53.6942 32.6745 53.7022C29.9792 53.7105 27.2846 57.1468 24.7064 60.4344C21.7329 64.2265 18.9145 67.8206 16.4288 65.7293C11.4097 61.5057 9.20861 55.6698 6.90789 46.3044C6.46508 44.5014 5.79126 42.3389 5.04835 39.954C1.93222 29.9519 -2.40247 16.0381 3.9553 8.31897C11.829 -1.24047 21.6145 -2.75618 32.7689 6.7987C32.7689 6.7987 50.2134 -7.04284 61.6959 6.27091C67.6757 13.2046 67.4272 20.3875 65.3523 27.4431C67.4822 30.2225 68.748 33.6989 68.748 37.471C68.748 45.1507 63.5014 51.6051 56.3969 53.445ZM64.623 37.471C64.623 44.3055 59.0825 49.846 52.248 49.846C45.4135 49.846 39.873 44.3055 39.873 37.471C39.873 30.6365 45.4135 25.096 52.248 25.096C59.0825 25.096 64.623 30.6365 64.623 37.471ZM52.248 29.221C51.1089 29.221 50.1855 30.1443 50.1855 31.2835V35.4085H46.0605C44.9214 35.4085 43.998 36.3318 43.998 37.471C43.998 38.6101 44.9214 39.5335 46.0605 39.5335H50.1855V43.6585C50.1855 44.7976 51.1089 45.721 52.248 45.721C53.3871 45.721 54.3105 44.7976 54.3105 43.6585V39.5335H58.4355C59.5746 39.5335 60.498 38.6101 60.498 37.471C60.498 36.3318 59.5746 35.4085 58.4355 35.4085H54.3105V31.2835C54.3105 30.1443 53.3871 29.221 52.248 29.221Z" fill="#DAEBEF"/>
</svg>
