<svg width="59" height="67" viewBox="0 0 59 67" fill="none" xmlns="http://www.w3.org/2000/svg">
<path fill-rule="evenodd" clip-rule="evenodd" d="M32.4365 6.96258C32.8476 6.63959 50.0115 -6.71314 61.3561 6.44056C67.584 13.6618 67.056 21.1536 64.745 28.4903L56.614 51.7822C54.2366 59.8806 52.5414 62.3805 48.376 65.8989C45.9034 67.9872 43.1149 64.3801 40.1804 60.5837C37.6382 57.2948 34.9862 53.8638 32.3347 53.8719C29.6394 53.8801 26.9447 57.3165 24.3666 60.6041C21.3931 64.3962 18.5747 67.9903 16.089 65.8989C11.0699 61.6754 8.86877 55.8395 6.56805 46.4741C6.12524 44.6711 5.45142 42.5085 4.7085 40.1237C1.59238 30.1216 -2.74232 16.2077 3.61546 8.48863C11.4665 -1.04324 21.2182 -2.5777 32.3326 6.88606L32.4365 6.96258ZM26.9522 7.94144C23.1068 5.29918 19.8382 4.45877 17.1155 4.673C13.7701 4.93597 10.2954 6.86688 6.79947 11.1113C4.17038 14.3032 3.90279 19.6956 5.32024 26.7405C5.9953 30.0956 6.98014 33.4933 7.972 36.7205C8.18588 37.4168 8.40327 38.1146 8.6188 38.8059C9.37017 41.2172 10.0978 43.552 10.574 45.4901C12.6803 54.0641 14.5124 58.6721 17.8357 61.9187C18.5217 61.2808 19.3894 60.2559 20.5374 58.8013C20.7162 58.5744 20.9018 58.3374 21.093 58.0932C22.269 56.5919 23.6618 54.8134 25.0827 53.3917C26.592 51.8816 29.087 49.7568 32.3223 49.7469C35.5724 49.737 38.0608 51.8962 39.5394 53.3959C40.9396 54.8163 42.313 56.5952 43.4722 58.0965C43.6617 58.3419 43.8455 58.58 44.0226 58.8079C45.1471 60.2535 45.9989 61.274 46.6725 61.9123C48.0086 60.7043 48.8751 59.6958 49.6248 58.4416C50.5927 56.8225 51.4943 54.5775 52.6561 50.6201C52.6754 50.5537 52.6967 50.4879 52.7196 50.4226L60.8291 27.192C61.8895 23.8101 62.428 20.7219 62.1469 17.8198C61.8732 14.9929 60.8009 12.1129 58.2322 9.1346C53.9742 4.19732 48.7429 4.12264 43.8075 5.65207C41.322 6.42221 39.0912 7.56937 37.4575 8.55029C36.8445 8.91825 36.3279 9.25546 35.9269 9.52895L43.849 15.3539C44.7666 16.0287 44.9636 17.3196 44.2887 18.2372C43.6141 19.1551 42.3229 19.352 41.4053 18.6772L30.2167 10.4503C30.0618 10.3517 29.912 10.242 29.7687 10.1209L27.3801 8.36467C27.2133 8.24195 27.0703 8.09902 26.9522 7.94144ZM17.1124 62.4832L17.1204 62.4793C17.1149 62.482 17.1124 62.4832 17.1124 62.4832Z" fill="#DAEBEF"/>
</svg>
