<svg width="59" height="66" viewBox="0 0 59 66" fill="none" xmlns="http://www.w3.org/2000/svg">
<path fill-rule="evenodd" clip-rule="evenodd" d="M2.91445 7.63529C10.9114 -1.18677 20.7542 -3.07277 32.0833 5.74508C32.0833 5.74508 49.8967 -6.54153 61.5589 5.74517C69.1139 13.7047 65.4823 22.02 61.987 30.0229C60.0868 34.3735 58.2268 38.632 58.2268 42.6905C57.3439 44.2422 49.7 45.0668 40.5135 45.318L17.3206 53.6675L16.5884 50.4948L30.793 45.3812C27.3733 45.338 23.9833 45.2291 20.8565 45.0613L15.758 46.8967L15.703 46.6578C15.5476 45.984 15.5877 45.3193 15.7815 44.7161C10.2326 44.2457 6.30241 43.5518 5.91332 42.6905C5.91332 37.9911 4.34428 33.0988 2.82265 28.3543C0.316157 20.539 -2.06168 13.1248 2.91445 7.63529ZM29.8313 8.63867C29.9326 8.7175 30.0373 8.79047 30.1448 8.85739L41.9864 17.4972C42.8045 18.0941 43.9512 17.9148 44.5482 17.0968C45.1449 16.2787 44.9656 15.132 44.1476 14.5352L35.286 8.06979C35.6805 7.83952 36.1685 7.56672 36.736 7.27276C38.4268 6.39648 40.7559 5.3656 43.3699 4.68646C48.6255 3.32096 54.3644 3.49133 58.8995 8.26944C61.2647 10.7613 62.1339 13.1019 62.3018 15.3536C62.4793 17.7296 61.8977 20.3069 60.823 23.2439C60.2904 24.6989 59.6644 26.1727 58.9939 27.7136C58.8766 27.9831 58.7576 28.2559 58.6373 28.5311L58.6348 28.5368C58.0826 29.8012 57.5078 31.117 56.9855 32.4165C55.9962 34.8777 55.0656 37.5782 54.7112 40.374C54.6599 40.3865 54.6067 40.399 54.5516 40.4116C53.2396 40.7136 51.3392 40.9807 48.9533 41.1928C44.2139 41.6143 38.0094 41.7817 31.7696 41.7248C25.5337 41.6682 19.3681 41.3888 14.7154 40.9378C12.5017 40.7231 10.7189 40.4778 9.4633 40.2206C9.2092 37.4539 8.57065 34.743 7.84648 32.2009C7.37458 30.5439 6.84874 28.9016 6.3474 27.3381L6.32247 27.2606C5.8238 25.7055 5.35157 24.2332 4.93988 22.7962C3.19018 16.6888 3.08297 12.9089 5.6311 10.0978C9.23065 6.127 12.9078 4.08249 16.6027 3.72482C20.2798 3.3689 24.6646 4.61711 29.8313 8.63867ZM55.8749 39.9969C55.8749 39.9969 55.856 40.0105 55.8061 40.0338C55.8479 40.0079 55.8749 39.9969 55.8749 39.9969ZM8.07657 39.8501L8.08628 39.8545C8.07968 39.8515 8.07657 39.8501 8.07657 39.8501Z" fill="#DAEBEF"/>
<path d="M49.6747 49.3533L18.8831 60.4384L18.1509 57.2656L50.3884 45.6601C50.4035 45.9861 50.3745 46.3208 50.2968 46.6578L49.6747 49.3533Z" fill="#DAEBEF"/>
<path d="M20.1907 63.8647L48.6939 53.6036L47.8291 57.3511L23.9061 65.9633C22.4141 65.7906 21.0824 65.017 20.1907 63.8647Z" fill="#DAEBEF"/>
<path d="M46.8483 61.6013L34.6295 66H41.4579C44.0191 66 46.2412 64.2323 46.8171 61.7368L46.8483 61.6013Z" fill="#DAEBEF"/>
</svg>
