<svg width="59" height="66" viewBox="0 0 59 66" fill="none" xmlns="http://www.w3.org/2000/svg">
<path fill-rule="evenodd" clip-rule="evenodd" d="M24.8642 44C24.2174 44 23.6126 43.6873 23.2172 43.1754C22.3524 42.0559 20.8123 40.2094 20.1667 40.3564C10.259 42.6129 0 49.1234 0 56.0448V64C0 65.1046 0.895431 66 2 66H64C65.1046 66 66 65.1046 66 64V56.0448C66 49.1234 55.741 42.6129 45.8333 40.3564C45.1877 40.2094 43.6476 42.0559 42.7828 43.1754C42.3874 43.6873 41.7826 44 41.1358 44H36.0894C34.038 44.0004 33.2545 44.0004 32.1715 44.0002C31.5022 44 30.7186 44 29.4505 44H24.8642ZM36.0894 47.6667C34.0382 47.667 33.2537 47.667 32.1706 47.6669C31.5013 47.6667 30.7177 47.6667 29.4505 47.6667H22.9742C22.3274 47.6667 21.7205 47.3539 21.3453 46.8271L20.8468 46.1274L20.8289 46.1025L20.7554 46.0011C20.689 45.9105 20.5909 45.778 20.4695 45.6181C20.2233 45.2938 19.8979 44.8789 19.5591 44.4827C19.5122 44.4277 19.4663 44.3749 19.422 44.3243C15.4169 45.4295 11.4956 47.249 8.52922 49.4133C5.00449 51.9849 3.66667 54.3893 3.66667 56.0448V61.3333C3.66667 61.8856 4.11438 62.3333 4.66667 62.3333H61.3333C61.8856 62.3333 62.3333 61.8856 62.3333 61.3333V56.0448C62.3333 54.3893 60.9955 51.9849 57.4708 49.4133C54.5044 47.249 50.5831 45.4295 46.578 44.3243C46.5337 44.3749 46.4878 44.4277 46.4409 44.4827C46.1021 44.8789 45.7767 45.2938 45.5305 45.6181C45.4091 45.778 45.311 45.9105 45.2447 46.0011L45.1546 46.1252L45.1532 46.1274L44.6547 46.8271C44.2795 47.3539 43.6726 47.6667 43.0258 47.6667H36.0894Z" fill="#DAEBEF"/>
<path fill-rule="evenodd" clip-rule="evenodd" d="M15.5 59.6667C14.4875 59.6667 13.6667 58.8459 13.6667 57.8333V50.5C13.6667 49.4875 14.4875 48.6667 15.5 48.6667C16.5125 48.6667 17.3333 49.4875 17.3333 50.5V57.8333C17.3333 58.8459 16.5125 59.6667 15.5 59.6667Z" fill="#DAEBEF"/>
<path fill-rule="evenodd" clip-rule="evenodd" d="M21 54.1667C21 55.1792 20.1792 56 19.1667 56H11.8333C10.8208 56 10 55.1792 10 54.1667C10 53.1541 10.8208 52.3333 11.8333 52.3333H19.1667C20.1792 52.3333 21 53.1541 21 54.1667Z" fill="#DAEBEF"/>
<path fill-rule="evenodd" clip-rule="evenodd" d="M33 33C41.1002 33 47.6667 26.4336 47.6667 18.3333C47.6667 10.2331 41.1002 3.66667 33 3.66667C24.8998 3.66667 18.3333 10.2331 18.3333 18.3333C18.3333 26.4336 24.8998 33 33 33ZM33 36.6667C43.1251 36.6667 51.3333 28.4585 51.3333 18.3333C51.3333 8.2082 43.1251 0 33 0C22.8749 0 14.6667 8.2082 14.6667 18.3333C14.6667 28.4585 22.8749 36.6667 33 36.6667Z" fill="#DAEBEF"/>
</svg>
