<svg width="34" height="31" viewBox="0 0 34 31" fill="none" xmlns="http://www.w3.org/2000/svg">
<path d="M33.9267 21.2716C33.5885 19.7655 32.1093 18.5435 30.544 18.5831C29.6353 18.6095 28.7531 18.9993 27.851 18.953C26.7036 18.8936 25.7219 18.1669 24.8132 17.4668C24.4816 17.2091 24.1433 16.9515 23.8116 16.6939C23.5994 16.5288 23.3871 16.3636 23.2412 16.139C22.9759 15.7361 22.9958 15.168 23.2876 14.7849C23.5795 14.4018 24.1168 14.2168 24.5811 14.3555C24.6275 15.6238 25.6887 16.7798 26.9556 16.9317C28.2225 17.0836 29.5292 16.2183 29.8807 14.9963C29.9736 14.666 29.9537 14.23 29.6353 14.0913C29.1445 13.8799 28.846 14.6065 28.574 15.0623C28.0434 15.9475 26.5444 16.0003 25.9541 15.1548C25.6755 14.7519 25.6158 14.164 25.9342 13.7874C26.2525 13.4109 26.9755 13.4572 27.1546 13.913C26.876 14.1045 26.5576 14.3687 26.6107 14.699C26.6969 15.2473 27.5526 15.1416 27.9638 14.7651C28.3419 14.415 28.6271 13.9658 28.773 13.4704C28.899 13.0344 28.7796 12.4003 28.3286 12.3937C27.9174 12.3805 27.4597 12.9221 27.1878 12.6117C28.6735 11.0263 29.2307 8.63509 28.5873 6.56755C27.9439 4.5 26.1331 2.82879 24.0106 2.35979C21.8881 1.89079 19.5335 2.63062 18.0676 4.23578C17.9084 4.41413 17.7492 4.60569 17.5237 4.69156C17.2584 4.79725 16.9533 4.73119 16.6747 4.67835C15.4344 4.43394 14.0149 4.47358 13.0598 5.30588C12.2506 6.01268 11.9521 7.14223 11.899 8.21234C11.8858 8.46335 11.8725 8.73418 11.7001 8.91253C11.5541 9.06446 11.3353 9.10409 11.1296 9.15033C9.11325 9.57969 7.20298 11.3434 7.42187 13.3845C7.54789 14.5801 8.38363 15.6172 9.40509 16.2645C10.4266 16.9119 11.6138 17.229 12.7945 17.4866C11.0766 17.9556 9.35866 18.4312 7.64739 18.9002C7.36881 18.9794 7.06369 19.0719 6.89124 19.3031C6.73205 19.5145 6.71215 19.7919 6.71215 20.0561C6.69226 20.9743 6.76522 21.8925 6.92441 22.7975C5.98254 22.9164 5.02741 22.9428 4.08555 22.8767C3.84013 22.8569 3.58808 22.8305 3.38246 22.6918C3.07735 22.487 2.97123 22.0907 2.73244 21.8066C2.24825 21.2385 1.27985 21.298 0.729323 21.7934C0.172164 22.2888 -0.0201892 23.0881 0.0328736 23.8279C0.0992021 24.8386 0.822183 25.9681 1.83701 25.8691C2.68601 25.7832 3.21001 24.8914 3.40899 24.0657C4.46362 24.0261 5.51824 23.9931 6.5795 23.9534C6.81165 23.9468 7.07033 23.9402 7.26268 24.0789C7.4086 24.1846 7.49483 24.3498 7.57442 24.5083C7.81984 25.0037 8.06526 25.4991 8.3173 25.9946C7.44177 26.5098 6.51317 26.9326 5.54477 27.2496C5.34579 27.3157 5.13354 27.3751 4.93455 27.3157C4.6427 27.2298 4.48352 26.9392 4.258 26.741C3.74727 26.2984 2.9049 26.4173 2.41407 26.8797C1.92324 27.3421 1.73752 28.0489 1.73752 28.7227C1.74415 29.7597 2.41407 30.9554 3.45542 30.9355C4.2182 30.9223 4.84169 30.2089 4.96108 29.4559C5.00088 29.2247 5.00088 28.9737 5.1468 28.7821C5.25956 28.6302 5.43865 28.5509 5.6111 28.4717C6.72542 27.9828 7.83974 27.4874 8.95406 26.9986C9.7898 27.8441 10.7184 28.7425 11.899 28.9076C12.8608 29.0463 13.8159 28.6698 14.6782 28.2339C17.1324 26.9788 19.2615 25.083 20.7937 22.7975C22.8366 23.5439 24.3555 25.5322 24.5413 27.6922C24.5943 28.3395 24.5413 29.0001 24.7004 29.6276C24.8596 30.2552 25.2974 30.8761 25.9408 30.9884C26.5643 31.0941 27.1878 30.6713 27.5061 30.123C27.8245 29.5748 27.9107 28.9274 27.9903 28.2999C28.0235 28.0423 27.9837 27.4874 28.1363 27.276C28.2424 27.1373 28.4745 27.1241 28.5807 27.2628C28.7266 27.4544 28.6735 27.9828 28.6934 28.2206C28.7266 28.5972 28.7531 28.9671 28.8327 29.337C29.0184 30.1825 29.6684 31.0676 30.5374 31.0082C31.2603 30.9554 31.7843 30.2552 31.9568 29.555C32.1292 28.8548 32.0629 28.115 32.1757 27.4015C32.4874 25.4397 34.1191 23.7817 34.0329 21.8C33.9864 21.6151 33.9665 21.4433 33.9267 21.2716ZM1.92987 24.5678C1.80384 24.7197 1.63802 24.799 1.44567 24.5942C1.30638 24.4422 1.22679 24.2507 1.18036 24.0525C1.1074 23.7355 1.11403 23.3986 1.20689 23.0815C1.31965 22.705 1.69109 22.269 2.00946 22.7314C2.30131 23.1542 2.30794 23.8411 2.09569 24.2969C2.04926 24.3894 1.9962 24.4885 1.92987 24.5678ZM3.64778 29.6408C3.60798 29.7003 3.55492 29.7531 3.48859 29.7862C3.39573 29.8258 3.27634 29.806 3.19674 29.7465C2.89163 29.5418 2.81867 28.9406 2.83194 28.6104C2.8452 28.2867 2.9248 27.9564 3.14368 27.712C3.23654 27.6063 3.36256 27.5403 3.50185 27.6063C3.7539 27.7252 3.8534 28.2669 3.87993 28.5113C3.91972 28.8878 3.86003 29.2907 3.66104 29.6144C3.66104 29.621 3.65441 29.6342 3.64778 29.6408ZM26.949 5.8079C26.4581 5.55029 25.9474 5.25304 25.4102 5.02184C24.5744 4.65853 23.679 4.5 22.7703 4.46037C22.3657 4.44055 22.107 4.6255 22.0738 4.94918C22.0407 5.27946 22.2463 5.54368 22.6509 5.5701C23.5264 5.63616 24.3754 5.78809 25.1913 6.13818C26.299 6.61378 27.0883 7.37343 27.3536 8.58225C27.5526 9.48061 27.1811 10.2138 26.4184 10.4516C25.8678 10.6234 25.2775 10.4252 24.979 9.92979C24.8994 9.79768 24.8397 9.53345 24.9061 9.46079C25.0122 9.3485 25.2377 9.3551 25.4433 9.30226C25.45 9.46079 25.45 9.52024 25.4632 9.5863C25.503 9.81749 25.6688 10.0091 25.9076 10.0619C26.1663 10.1147 26.3587 10.0157 26.5046 9.80428C26.8031 9.36831 26.6306 8.79363 26.1066 8.45014C25.8546 8.285 25.6025 8.10665 25.3704 7.91508C24.7999 7.45269 24.1101 7.29416 23.4269 7.13563C22.558 6.93085 21.6759 6.77892 20.8202 6.54112C19.958 6.30332 19.3544 5.72864 18.963 4.92936C21.3708 2.30695 25.5826 3.13925 26.949 5.8079ZM19.5865 7.20168C21.0325 8.06701 22.6774 7.97453 24.1764 8.50959C23.5795 9.2296 23.5596 9.96282 24.1101 10.6762C24.6208 11.3368 25.304 11.6671 26.153 11.634C26.2592 11.6274 26.3653 11.634 26.478 11.634C24.6739 14.0385 20.4289 14.2432 18.386 11.1782C19.6396 10.1544 19.7722 8.7672 19.5865 7.20168ZM18.114 6.05892C18.7773 7.86224 18.6712 9.39473 17.8421 10.1081C17.3645 8.73418 17.4507 7.41306 18.114 6.05892ZM13.3715 6.66663C13.7098 5.98625 14.32 5.72203 15.0165 5.6824C15.6466 5.64937 16.2834 5.72203 16.9732 5.75506C15.8987 8.54922 16.4027 10.9206 18.439 13.008C18.3661 13.1071 18.2865 13.2194 18.1737 13.3713C17.5569 12.3342 16.8869 11.3698 16.018 10.5573C15.1491 9.74483 14.1608 9.15033 12.9271 8.99179C12.9669 8.17931 13.0067 7.39985 13.3715 6.66663ZM9.37856 14.8047C8.18465 13.7346 8.25098 12.2087 9.45152 11.1518C10.7715 9.98924 13.2455 9.51364 15.0364 11.1782C15.9716 12.0502 16.7012 13.0476 17.2982 14.164C17.3446 14.2498 17.3181 14.4414 17.2518 14.4942C16.5752 15.0689 15.9119 15.6832 15.169 16.1655C14.8374 16.3834 14.32 16.3174 14.0481 16.357C12.2241 16.2844 10.6521 15.9475 9.37856 14.8047ZM17.789 24.5942C16.489 25.8228 15.0364 26.8269 13.3981 27.5601C12.4496 27.9828 11.5939 27.8904 10.8312 27.1704C8.8214 25.2746 7.76678 22.9626 7.78004 20.1816C7.78004 19.9505 7.8928 19.9108 8.07189 19.8844C10.6786 19.5013 13.1261 18.6558 15.4145 17.3545C15.9384 17.0572 16.416 16.6741 16.9135 16.324C17.0395 16.2381 17.1523 16.139 17.3181 16.0003C17.4308 17.1431 17.6962 18.1934 18.1406 19.1974C18.5916 20.2015 19.1952 21.0998 19.9513 21.9189C19.3345 22.9164 18.6248 23.8081 17.789 24.5942ZM20.5217 20.8818C19.2416 19.3427 18.5518 17.6187 18.4324 15.67C18.4191 15.4983 18.3793 15.3265 18.3661 15.1482C18.3594 15.0689 18.3661 14.9765 18.4059 14.917C18.7176 14.5075 19.036 14.0979 19.3345 13.7214C19.8983 13.9394 20.4355 14.164 20.9794 14.3555C21.2447 14.448 21.5432 14.4612 21.8152 14.5405C21.9014 14.5669 22.0208 14.6792 22.0208 14.7519C21.9942 16.8921 21.5034 18.9266 20.5217 20.8818ZM22.6376 22.6323C22.2264 22.3417 21.8483 22.0841 21.4901 21.8C21.4371 21.7538 21.457 21.5688 21.4968 21.4631C21.8483 20.545 22.233 19.6334 22.5713 18.7086C22.7239 18.2858 22.7902 17.8367 22.9162 17.3346C23.5264 17.8169 24.1168 18.2792 24.7402 18.7681C23.0688 19.5343 22.5116 20.862 22.6376 22.6323ZM32.7992 22.3681C32.7461 22.7975 32.6201 23.2202 32.4542 23.6166C32.0762 24.5083 31.5124 25.3208 31.2205 26.239C30.9221 27.177 30.9221 28.181 30.8358 29.1652C30.8159 29.4096 30.7496 29.7003 30.5108 29.773C30.2256 29.8588 29.9935 29.5352 29.9072 29.2511C29.7679 28.7755 29.7679 28.2801 29.7414 27.7847C29.7149 27.2959 29.6552 26.7872 29.4164 26.3579C29.1776 25.9285 28.7266 25.5784 28.2358 25.5916C27.6786 25.6114 27.2276 26.0804 27.0286 26.6023C26.8296 27.1241 26.8296 27.6922 26.7898 28.2405C26.7566 28.6434 26.7036 29.0595 26.5311 29.4295C26.3852 29.7399 26.0668 30.0504 25.8148 29.5946C25.7285 29.4427 25.7219 29.2643 25.7086 29.0926C25.6224 27.5733 25.5097 25.9813 24.6673 24.7131C25.251 24.832 25.828 24.9443 26.4117 25.0632C26.6173 25.1028 26.8362 25.149 27.0418 25.1094C27.2475 25.0698 27.4531 24.9311 27.4995 24.7197C27.5459 24.5149 27.4199 24.3035 27.2541 24.178C27.0816 24.0525 26.876 23.9997 26.6704 23.9468C25.9275 23.7619 25.1913 23.5703 24.4484 23.3854C24.3356 23.3589 24.2229 23.3259 24.13 23.2598C24.0106 23.174 23.9377 23.0353 23.8846 22.8965C23.5264 21.985 23.8116 20.862 24.5545 20.2279C25.2974 19.5938 26.4581 19.4881 27.3072 19.9769C26.9291 20.4128 26.6041 20.9017 26.3388 21.4103C26.2459 21.582 26.1663 21.767 26.153 21.9585C26.1398 22.1501 26.2127 22.3615 26.3786 22.4672C26.5908 22.5993 26.876 22.5134 27.0617 22.3483C27.2475 22.1831 27.347 21.9519 27.4663 21.7274C27.9572 20.8026 28.7796 20.0099 29.7945 19.7523C30.8093 19.4947 32.0165 19.8844 32.5338 20.7894C32.8058 21.2914 32.8655 21.833 32.7992 22.3681Z" fill="white"/>
<path d="M33.947 2.10738V2.43766C33.6419 2.80757 33.0582 2.97271 32.6138 2.74812C32.4546 2.66886 32.2954 2.44427 32.2821 2.27913C32.2689 2.11399 32.4082 1.86958 32.5541 1.7705C32.9587 1.50627 33.6883 1.70444 33.947 2.10738Z" fill="white"/>
<path d="M9.55806 3.58715C9.74378 3.40879 9.86317 3.20402 9.77031 2.9398C9.68408 2.67557 9.47846 2.57649 9.21315 2.54346C8.58966 2.4708 7.96617 2.39814 7.34268 2.30566C7.22993 2.28585 7.084 2.18676 7.03094 2.08768C6.75899 1.57244 6.50694 1.044 6.2549 0.522154C6.12887 0.257931 5.97632 0.0399468 5.65131 0.0333413C5.31303 0.0267357 5.15384 0.257931 5.02119 0.535366C4.7824 1.044 4.52372 1.53941 4.28494 2.04804C4.20534 2.22639 4.10585 2.31227 3.8936 2.33208C3.30991 2.38493 2.73285 2.4642 2.14916 2.53686C1.87721 2.56989 1.61853 2.63594 1.51241 2.93319C1.41291 3.23705 1.55884 3.45503 1.77109 3.65981C2.20222 4.06935 2.63336 4.4789 3.05123 4.90826C3.13746 5.00074 3.19052 5.17248 3.17725 5.29799C3.09103 5.9057 2.9849 6.51342 2.87214 7.12113C2.82571 7.37875 2.85224 7.60995 3.06449 7.77508C3.29664 7.95344 3.53543 7.9072 3.78084 7.78169C4.31147 7.51086 4.84873 7.25324 5.37273 6.9692C5.55845 6.87012 5.70437 6.87012 5.89672 6.9692C6.44062 7.25985 6.99114 7.54389 7.5483 7.80811C8.00597 8.0261 8.41057 7.78169 8.41057 7.22022C8.31108 6.65874 8.20496 6.01139 8.08556 5.35744C8.04577 5.15267 8.07893 5.01395 8.24475 4.86202C8.69579 4.43927 9.12692 4.0099 9.55806 3.58715ZM7.17686 4.32036C6.91818 4.55156 6.83195 4.80918 6.91155 5.14606C6.99114 5.50937 7.03757 5.87928 7.11053 6.30204C6.75236 6.11708 6.44062 5.98497 6.14877 5.81323C5.79723 5.60845 5.47222 5.61506 5.12731 5.81983C4.84873 5.98497 4.54362 6.12369 4.19208 6.30204C4.26504 5.85286 4.31147 5.45652 4.39106 5.0668C4.45076 4.78936 4.3778 4.57138 4.17218 4.38642C3.8936 4.1222 3.62165 3.85797 3.29664 3.54091C3.75431 3.48146 4.12575 3.42201 4.50382 3.38898C4.8023 3.36256 4.98139 3.21063 5.10741 2.9464C5.27323 2.5897 5.45895 2.23961 5.65131 1.84988C5.83703 2.233 6.01611 2.56328 6.16867 2.90016C6.30133 3.19742 6.50031 3.36916 6.84522 3.39558C7.20339 3.42201 7.56157 3.48146 8.0126 3.54091C7.69423 3.83155 7.44881 4.08917 7.17686 4.32036Z" fill="white"/>
<path d="M6.28074 14.7381C6.26747 15.1674 5.77664 15.4383 5.41847 15.1872C5.19958 15.0287 5.0006 14.8239 4.84804 14.606C4.60926 14.2559 4.86794 13.7935 5.29244 13.7736C5.67051 13.7604 6.294 14.3748 6.28074 14.7381Z" fill="white"/>
<path d="M6.28135 12.3205C6.28798 12.6838 5.65122 13.2981 5.28642 13.2849C4.86191 13.2651 4.58997 12.7961 4.84202 12.4526C5.00784 12.228 5.22009 12.0166 5.45224 11.8581C5.79051 11.6203 6.26808 11.9043 6.28135 12.3205Z" fill="white"/>
<path d="M4.17826 12.9815C4.11857 13.1334 3.89968 13.2193 3.82672 13.2787C3.35579 13.2787 2.72567 12.6776 2.76547 12.3275C2.78537 12.1558 2.90476 11.9312 3.04405 11.8585C3.1966 11.7792 3.46192 11.7991 3.61447 11.8849C3.82672 12.0038 4.01908 12.202 4.13847 12.4134C4.23133 12.5587 4.24459 12.8163 4.17826 12.9815Z" fill="white"/>
<path d="M4.26428 14.2221C4.25765 14.6779 3.66069 15.3055 3.32242 15.2724C3.14996 15.2526 2.92445 15.1403 2.84485 15.0016C2.76526 14.8629 2.76526 14.5921 2.84485 14.4533C2.98414 14.2288 3.19639 14.0174 3.42191 13.8787C3.5612 13.7928 3.81988 13.7928 3.97244 13.8654C4.11836 13.9315 4.20459 14.1429 4.26428 14.2221Z" fill="white"/>
<path d="M32.249 0.819715C32.2424 0.951826 32.2423 1.08394 32.2225 1.21605C32.176 1.48688 32.0036 1.64541 31.7316 1.66523C31.4464 1.69165 31.2143 1.56615 31.1612 1.2755C31.1148 1.02449 31.1081 0.753659 31.1347 0.496041C31.1678 0.185579 31.4132 -0.0125888 31.6918 0.000622331C31.9903 0.00722791 32.2026 0.225212 32.2291 0.562097C32.2357 0.647969 32.2291 0.740448 32.2291 0.82632H32.249V0.819715Z" fill="white"/>
<path d="M30.67 2.77547C30.4312 2.8151 30.1858 2.82171 29.947 2.80189C29.6087 2.76886 29.4164 2.53767 29.423 2.23381C29.4297 1.92995 29.6419 1.72518 29.9802 1.69876C30.0797 1.69215 30.1792 1.69876 30.2787 1.69876V1.68555C30.3914 1.69215 30.4975 1.69215 30.6103 1.70536C30.8955 1.745 31.068 1.91674 31.0945 2.20078C31.121 2.51124 30.9751 2.72262 30.67 2.77547Z" fill="white"/>
<path d="M32.2422 3.85735C32.2223 4.2669 32.0233 4.49149 31.6784 4.49149C31.3467 4.49149 31.1279 4.26029 31.108 3.85735C31.1013 3.6724 31.1013 3.48083 31.1345 3.30248C31.1876 2.98542 31.4131 2.81367 31.7115 2.82688C32.0034 2.84009 32.2024 3.03826 32.2355 3.36193C32.2422 3.46102 32.2355 3.5601 32.2355 3.65918H32.2422C32.2422 3.72524 32.2488 3.7913 32.2422 3.85735Z" fill="white"/>
<path d="M16.4028 23.6284C16.363 24.0049 15.8788 24.4937 15.6798 24.6852C15.3747 24.9825 15.0298 25.2335 14.6584 25.4515C13.9487 25.8743 13.1594 26.1517 12.3634 26.3763C12.0848 26.4555 11.7665 26.5216 11.5277 26.3565C11.3619 26.2442 11.2756 26.0262 11.3221 25.8346C11.4216 25.4119 11.919 25.3128 12.2772 25.2269C13.2456 24.9957 14.1742 24.5399 14.864 23.8331C15.0232 23.6746 15.1824 23.483 15.3681 23.3575C15.5604 23.2254 15.7992 23.1461 16.0247 23.2056C16.3232 23.2783 16.4161 23.4434 16.4028 23.6284Z" fill="white"/>
<path d="M31.181 23.0414C30.8692 23.0811 30.6039 22.8697 30.5575 22.5064C30.511 22.1563 30.3518 21.9515 29.9738 21.9251C29.5957 21.8921 29.3967 21.6477 29.4232 21.3174C29.4498 20.9937 29.6886 20.8022 30.0666 20.8088C30.9223 20.822 31.6386 21.5222 31.6718 22.3809C31.6917 22.731 31.4993 22.9952 31.181 23.0414Z" fill="white"/>
<path d="M16.1443 15.055C15.8856 15.2334 15.5606 15.1607 15.3351 14.8701C15.2886 14.8106 15.2555 14.738 15.2024 14.6851C14.6452 14.0972 14.1212 13.4631 13.511 12.9346C12.9273 12.4326 12.211 12.1222 11.4018 12.3467C11.1232 12.426 10.8579 12.5779 10.6058 12.7299C10.2477 12.9479 9.92265 12.9346 9.72367 12.6638C9.51805 12.3798 9.58438 12.0759 9.92928 11.8117C10.4997 11.3691 11.1365 11.1445 11.9722 11.1445C12.8942 11.1511 13.7631 11.5871 14.4861 12.2543C15.1361 12.8554 15.6999 13.5556 16.2703 14.2359C16.4958 14.52 16.4096 14.8701 16.1443 15.055Z" fill="white"/>
<path d="M23.3675 12.353C23.089 12.4455 22.7905 12.4983 22.6313 12.5379C21.7359 12.5049 21.0792 12.2275 20.5486 11.6792C20.3231 11.448 20.3231 11.1243 20.5221 10.8997C20.7343 10.6686 21.0858 10.6355 21.318 10.8799C21.8088 11.3886 22.366 11.5207 23.0359 11.3027C23.3477 11.2036 23.6329 11.3886 23.7191 11.666C23.812 11.9699 23.6793 12.2473 23.3675 12.353Z" fill="white"/>
<path d="M21.4836 8.99185C21.4968 9.30231 21.2514 9.56653 20.9397 9.57314C20.6346 9.57974 20.3626 9.30892 20.3693 9.01166C20.3759 8.72762 20.6346 8.4634 20.9264 8.4634C21.2116 8.45019 21.4703 8.6946 21.4836 8.99185Z" fill="white"/>
</svg>
