<svg width="33" height="33" viewBox="0 0 33 33" fill="none" xmlns="http://www.w3.org/2000/svg">
<path d="M3.30257 3.03435C3.30257 3.57649 3.12192 3.85402 2.75418 3.84757C2.38644 3.84757 2.20579 3.57004 2.20579 3.02789C2.20579 2.91172 2.19934 2.78909 2.22515 2.67937C2.27676 2.38893 2.52192 2.18885 2.77999 2.20176C3.06386 2.21467 3.28321 2.44057 3.30257 2.75036C3.30902 2.84718 3.30257 2.93753 3.30257 3.03435Z" fill="white"/>
<path d="M3.30278 7.13806C3.30278 7.66085 3.30924 8.19009 3.30278 8.71933C3.29633 9.10012 3.08343 9.34538 2.76085 9.34538C2.44472 9.34538 2.21246 9.10012 2.20601 8.72578C2.19956 7.68666 2.19956 6.64109 2.20601 5.60198C2.20601 5.19537 2.43182 4.95656 2.77375 4.96302C3.10278 4.96947 3.30278 5.20182 3.30278 5.59552C3.30924 6.11185 3.30278 6.62173 3.30278 7.13806Z" fill="white"/>
<path d="M17.5288 23.0994C16.845 23.0865 16.1546 23.0865 15.4708 23.0994C15.0901 23.1058 14.8579 23.3446 14.8708 23.6673C14.8837 23.9771 15.103 24.1837 15.4772 24.1966C15.8192 24.2095 16.1611 24.1966 16.503 24.1966C16.845 24.1966 17.1869 24.203 17.5288 24.1966C17.9159 24.1837 18.1482 23.9707 18.1482 23.648C18.1482 23.3317 17.9095 23.1058 17.5288 23.0994ZM17.5288 23.0994C16.845 23.0865 16.1546 23.0865 15.4708 23.0994C15.0901 23.1058 14.8579 23.3446 14.8708 23.6673C14.8837 23.9771 15.103 24.1837 15.4772 24.1966C15.8192 24.2095 16.1611 24.1966 16.503 24.1966C16.845 24.1966 17.1869 24.203 17.5288 24.1966C17.9159 24.1837 18.1482 23.9707 18.1482 23.648C18.1482 23.3317 17.9095 23.1058 17.5288 23.0994ZM17.5288 23.0994C16.845 23.0865 16.1546 23.0865 15.4708 23.0994C15.0901 23.1058 14.8579 23.3446 14.8708 23.6673C14.8837 23.9771 15.103 24.1837 15.4772 24.1966C15.8192 24.2095 16.1611 24.1966 16.503 24.1966C16.845 24.1966 17.1869 24.203 17.5288 24.1966C17.9159 24.1837 18.1482 23.9707 18.1482 23.648C18.1482 23.3317 17.9095 23.1058 17.5288 23.0994ZM17.5288 23.0994C16.845 23.0865 16.1546 23.0865 15.4708 23.0994C15.0901 23.1058 14.8579 23.3446 14.8708 23.6673C14.8837 23.9771 15.103 24.1837 15.4772 24.1966C15.8192 24.2095 16.1611 24.1966 16.503 24.1966C16.845 24.1966 17.1869 24.203 17.5288 24.1966C17.9159 24.1837 18.1482 23.9707 18.1482 23.648C18.1482 23.3317 17.9095 23.1058 17.5288 23.0994ZM17.5288 23.0994C16.845 23.0865 16.1546 23.0865 15.4708 23.0994C15.0901 23.1058 14.8579 23.3446 14.8708 23.6673C14.8837 23.9771 15.103 24.1837 15.4772 24.1966C15.8192 24.2095 16.1611 24.1966 16.503 24.1966C16.845 24.1966 17.1869 24.203 17.5288 24.1966C17.9159 24.1837 18.1482 23.9707 18.1482 23.648C18.1482 23.3317 17.9095 23.1058 17.5288 23.0994ZM17.5288 23.0994C16.845 23.0865 16.1546 23.0865 15.4708 23.0994C15.0901 23.1058 14.8579 23.3446 14.8708 23.6673C14.8837 23.9771 15.103 24.1837 15.4772 24.1966C15.8192 24.2095 16.1611 24.1966 16.503 24.1966C16.845 24.1966 17.1869 24.203 17.5288 24.1966C17.9159 24.1837 18.1482 23.9707 18.1482 23.648C18.1482 23.3317 17.9095 23.1058 17.5288 23.0994ZM12.6321 4.96323C12.5353 4.76315 12.3546 4.6728 12.103 4.65989C12.045 4.67925 11.9482 4.69861 11.8643 4.74379C10.8385 5.27948 10.1933 6.77684 10.4966 7.88696C10.5611 8.11285 10.6837 8.26775 10.9224 8.31938C11.3095 8.39683 11.6127 8.1193 11.5611 7.69333C11.4579 6.83493 11.7095 6.15725 12.4385 5.66673C12.4901 5.63446 12.5353 5.58283 12.5804 5.53765C12.7095 5.36339 12.7288 5.16331 12.6321 4.96323ZM17.5288 23.0994C16.845 23.0865 16.1546 23.0865 15.4708 23.0994C15.0901 23.1058 14.8579 23.3446 14.8708 23.6673C14.8837 23.9771 15.103 24.1837 15.4772 24.1966C15.8192 24.2095 16.1611 24.1966 16.503 24.1966C16.845 24.1966 17.1869 24.203 17.5288 24.1966C17.9159 24.1837 18.1482 23.9707 18.1482 23.648C18.1482 23.3317 17.9095 23.1058 17.5288 23.0994ZM24.7288 15.832C24.6514 15.5222 24.3611 15.3479 24.0321 15.4318C23.774 15.4964 23.5159 15.5738 23.2643 15.6706C21.7611 16.2451 20.8192 17.5746 20.8256 19.1365C20.7869 19.3237 20.8708 19.5496 20.8901 19.7884C20.8966 19.84 20.9159 19.8917 20.9288 19.9433C21.0127 20.2337 21.2256 20.3628 21.5095 20.3499C21.7804 20.337 21.9804 20.0917 21.9869 19.7948C21.9869 19.6335 21.9675 19.4721 21.9546 19.3108C21.903 18.3362 22.2256 17.5488 23.0643 17.0002C23.445 16.7485 23.8643 16.6 24.303 16.4903C24.6321 16.4064 24.7998 16.116 24.7288 15.832ZM24.7288 15.832C24.6514 15.5222 24.3611 15.3479 24.0321 15.4318C23.774 15.4964 23.5159 15.5738 23.2643 15.6706C21.7611 16.2451 20.8192 17.5746 20.8256 19.1365C20.7869 19.3237 20.8708 19.5496 20.8901 19.7884C20.8966 19.84 20.9159 19.8917 20.9288 19.9433C21.0127 20.2337 21.2256 20.3628 21.5095 20.3499C21.7804 20.337 21.9804 20.0917 21.9869 19.7948C21.9869 19.6335 21.9675 19.4721 21.9546 19.3108C21.903 18.3362 22.2256 17.5488 23.0643 17.0002C23.445 16.7485 23.8643 16.6 24.303 16.4903C24.6321 16.4064 24.7998 16.116 24.7288 15.832ZM12.6321 4.96323C12.5353 4.76315 12.3546 4.6728 12.103 4.65989C12.045 4.67925 11.9482 4.69861 11.8643 4.74379C10.8385 5.27948 10.1933 6.77684 10.4966 7.88696C10.5611 8.11285 10.6837 8.26775 10.9224 8.31938C11.3095 8.39683 11.6127 8.1193 11.5611 7.69333C11.4579 6.83493 11.7095 6.15725 12.4385 5.66673C12.4901 5.63446 12.5353 5.58283 12.5804 5.53765C12.7095 5.36339 12.7288 5.16331 12.6321 4.96323ZM17.5288 23.0994C16.845 23.0865 16.1546 23.0865 15.4708 23.0994C15.0901 23.1058 14.8579 23.3446 14.8708 23.6673C14.8837 23.9771 15.103 24.1837 15.4772 24.1966C15.8192 24.2095 16.1611 24.1966 16.503 24.1966C16.845 24.1966 17.1869 24.203 17.5288 24.1966C17.9159 24.1837 18.1482 23.9707 18.1482 23.648C18.1482 23.3317 17.9095 23.1058 17.5288 23.0994ZM12.6321 4.96323C12.5353 4.76315 12.3546 4.6728 12.103 4.65989C12.045 4.67925 11.9482 4.69861 11.8643 4.74379C10.8385 5.27948 10.1933 6.77684 10.4966 7.88696C10.5611 8.11285 10.6837 8.26775 10.9224 8.31938C11.3095 8.39683 11.6127 8.1193 11.5611 7.69333C11.4579 6.83493 11.7095 6.15725 12.4385 5.66673C12.4901 5.63446 12.5353 5.58283 12.5804 5.53765C12.7095 5.36339 12.7288 5.16331 12.6321 4.96323ZM17.5288 23.0994C16.845 23.0865 16.1546 23.0865 15.4708 23.0994C15.0901 23.1058 14.8579 23.3446 14.8708 23.6673C14.8837 23.9771 15.103 24.1837 15.4772 24.1966C15.8192 24.2095 16.1611 24.1966 16.503 24.1966C16.845 24.1966 17.1869 24.203 17.5288 24.1966C17.9159 24.1837 18.1482 23.9707 18.1482 23.648C18.1482 23.3317 17.9095 23.1058 17.5288 23.0994ZM24.7288 15.832C24.6514 15.5222 24.3611 15.3479 24.0321 15.4318C23.774 15.4964 23.5159 15.5738 23.2643 15.6706C21.7611 16.2451 20.8192 17.5746 20.8256 19.1365C20.7869 19.3237 20.8708 19.5496 20.8901 19.7884C20.8966 19.84 20.9159 19.8917 20.9288 19.9433C21.0127 20.2337 21.2256 20.3628 21.5095 20.3499C21.7804 20.337 21.9804 20.0917 21.9869 19.7948C21.9869 19.6335 21.9675 19.4721 21.9546 19.3108C21.903 18.3362 22.2256 17.5488 23.0643 17.0002C23.445 16.7485 23.8643 16.6 24.303 16.4903C24.6321 16.4064 24.7998 16.116 24.7288 15.832ZM24.7288 15.832C24.6514 15.5222 24.3611 15.3479 24.0321 15.4318C23.774 15.4964 23.5159 15.5738 23.2643 15.6706C21.7611 16.2451 20.8192 17.5746 20.8256 19.1365C20.7869 19.3237 20.8708 19.5496 20.8901 19.7884C20.8966 19.84 20.9159 19.8917 20.9288 19.9433C21.0127 20.2337 21.2256 20.3628 21.5095 20.3499C21.7804 20.337 21.9804 20.0917 21.9869 19.7948C21.9869 19.6335 21.9675 19.4721 21.9546 19.3108C21.903 18.3362 22.2256 17.5488 23.0643 17.0002C23.445 16.7485 23.8643 16.6 24.303 16.4903C24.6321 16.4064 24.7998 16.116 24.7288 15.832ZM12.6321 4.96323C12.5353 4.76315 12.3546 4.6728 12.103 4.65989C12.045 4.67925 11.9482 4.69861 11.8643 4.74379C10.8385 5.27948 10.1933 6.77684 10.4966 7.88696C10.5611 8.11285 10.6837 8.26775 10.9224 8.31938C11.3095 8.39683 11.6127 8.1193 11.5611 7.69333C11.4579 6.83493 11.7095 6.15725 12.4385 5.66673C12.4901 5.63446 12.5353 5.58283 12.5804 5.53765C12.7095 5.36339 12.7288 5.16331 12.6321 4.96323ZM17.5288 23.0994C16.845 23.0865 16.1546 23.0865 15.4708 23.0994C15.0901 23.1058 14.8579 23.3446 14.8708 23.6673C14.8837 23.9771 15.103 24.1837 15.4772 24.1966C15.8192 24.2095 16.1611 24.1966 16.503 24.1966C16.845 24.1966 17.1869 24.203 17.5288 24.1966C17.9159 24.1837 18.1482 23.9707 18.1482 23.648C18.1482 23.3317 17.9095 23.1058 17.5288 23.0994ZM32.9998 25.0743V1.35537C32.9288 0.632506 32.3675 0.0774497 31.645 0H1.36753C0.644954 0.0709955 0.0836631 0.632506 0.0126953 1.35537V25.0743C0.225599 25.9779 0.612696 26.3329 1.56108 26.4878C1.77399 26.5201 1.98689 26.5265 2.20624 26.5265H9.58044C10.2772 26.5265 10.974 26.533 11.6772 26.5265C11.9353 26.5265 12.045 26.6169 12.0385 26.8879C12.0256 27.2881 12.0385 27.6818 12.0321 28.082C12.0321 28.4821 12.0256 28.4821 11.645 28.5596C10.6708 28.7661 9.94173 29.2953 9.52883 30.2183C9.19334 30.9605 9.23851 31.7479 9.29012 32.5353C9.30947 32.7999 9.49657 32.9484 9.74818 33.0129H23.2772C23.6192 32.9161 23.7482 32.6773 23.7482 32.3417C23.7482 32.0642 23.7546 31.7866 23.7482 31.5026C23.7353 29.9537 22.7934 28.8242 21.2708 28.5531C21.0579 28.5144 20.974 28.4305 20.9804 28.2239C20.9869 27.7592 20.9869 27.301 20.9804 26.8363C20.974 26.6233 21.045 26.5201 21.2772 26.5201C22.7933 26.5265 24.303 26.4942 25.8127 26.5394C26.3417 26.5523 26.8127 26.7201 27.1159 27.2945C27.9869 28.9081 28.9353 30.4829 29.8514 32.0706C30.1546 32.5934 30.5417 32.9936 31.1998 33.0129H31.6514C32.4321 32.929 32.8772 32.4966 33.0063 31.7221V31.1412C32.974 30.825 32.845 30.5474 32.6901 30.2764C32.1934 29.4244 31.7095 28.566 31.2063 27.7141C30.9804 27.3333 30.7546 26.9525 30.5417 26.5265C31.6579 26.5007 32.7288 26.4555 32.9998 25.0743ZM22.5611 31.735C22.5417 31.9867 22.3804 31.8963 22.2643 31.8963C20.3417 31.9028 18.4256 31.8963 16.503 31.8963C14.5804 31.8963 12.6643 31.8899 10.7417 31.9028C10.4966 31.9028 10.445 31.8383 10.445 31.5995C10.4579 30.6055 10.8772 29.973 11.7095 29.7471C11.903 29.6955 12.0901 29.7019 12.2837 29.7019C15.0966 29.7019 17.9095 29.7213 20.7159 29.689C21.6772 29.6826 22.6643 30.2957 22.5611 31.735ZM19.7998 28.3659C19.7998 28.5337 19.7804 28.6112 19.5804 28.6112C17.5288 28.6047 15.4837 28.6047 13.4321 28.6112C13.2708 28.6112 13.2063 28.5725 13.2127 28.3982C13.2256 27.8044 13.2256 27.2171 13.2127 26.6233C13.2063 26.4297 13.2772 26.3974 13.4514 26.3974C14.4708 26.4039 15.4901 26.4039 16.5095 26.4039C17.5159 26.4039 18.5288 26.4103 19.5353 26.3974C19.7353 26.3974 19.8127 26.4297 19.8063 26.6556C19.7869 27.2236 19.7933 27.798 19.7998 28.3659ZM1.98044 25.3002C1.88366 25.3002 1.78689 25.3067 1.69012 25.2938C1.31592 25.2615 1.11592 25.0679 1.10947 24.6935C1.09657 23.8545 1.10947 23.0155 1.10302 22.1829C1.10302 22.0215 1.16753 21.9763 1.30947 21.9892C1.36108 21.9957 1.41915 21.9892 1.47076 21.9892C7.32238 21.9892 13.174 21.9892 19.0256 21.9828C19.2579 21.9828 19.3933 22.0473 19.5224 22.241C20.6063 23.8803 22.1482 24.7129 24.0901 24.8355C24.2514 24.842 24.4192 24.842 24.574 24.8097C24.9611 24.7193 25.0966 24.9517 25.2192 25.2938H1.98044V25.3002ZM19.2256 7.11246C18.8256 6.09916 18.2192 5.22785 17.3869 4.47917C18.8643 3.57559 20.7095 3.6595 21.9675 4.6728C22.7934 5.33757 23.0643 6.26051 23.0901 7.26736C23.1159 8.51946 22.7804 9.68121 22.1417 10.759C21.574 11.7207 20.9546 12.6566 20.7353 13.7667C20.6063 14.425 20.3804 14.9736 19.8901 15.4641C19.3417 16.0127 19.0256 16.7356 18.7869 17.5617C18.5804 16.8388 18.4127 16.187 18.303 15.5157C18.2127 14.9671 18.1675 14.4056 17.9675 13.8829C17.7095 13.1793 17.1095 12.7147 16.4966 12.7147C15.8643 12.7211 15.2837 13.1729 15.0256 13.8829C14.7869 14.5347 14.7675 15.2253 14.6256 15.8965C14.4643 16.6969 14.2966 17.4907 13.974 18.2458C13.903 18.4137 13.8514 18.6654 13.6385 18.6718C13.4062 18.6783 13.2901 18.4395 13.2062 18.2458C12.8385 17.3874 12.6643 16.4839 12.574 15.5674C12.4192 14.0377 12.0062 12.6114 11.1675 11.3076C10.6321 10.4751 10.1933 9.5973 10.0192 8.60337C9.83206 7.54489 9.7998 6.49286 10.3288 5.52474C11.0192 4.26618 12.1804 3.83376 13.5482 3.86603C14.5095 3.88539 15.374 4.18874 16.1095 4.8277C16.9933 5.59574 17.7998 6.40896 18.2192 7.53843C18.3482 7.88696 18.645 8.00959 18.9353 7.89341C19.2579 7.76433 19.3675 7.46744 19.2256 7.11246ZM24.2385 23.7512C21.645 23.719 19.6127 21.5697 19.6643 18.9042C19.7095 16.4064 21.8901 14.4056 24.5095 14.4637C26.9675 14.5218 28.9998 16.6775 28.9482 19.1752C28.8901 21.7569 26.8063 23.7835 24.2385 23.7512ZM26.6514 25.5261C26.4901 25.2486 26.3353 24.9775 26.174 24.7129C26.1095 24.6096 26.103 24.5451 26.2321 24.4999C26.9417 24.274 27.5675 23.8803 28.1417 23.3898C28.3224 23.706 28.6514 24.0158 28.6192 24.2934C28.5869 24.5838 28.103 24.6677 27.8256 24.842C27.445 25.0743 27.0514 25.2938 26.6514 25.5261ZM31.7224 30.967C31.7998 31.1089 31.8837 31.2445 31.903 31.4058C31.8837 31.6124 31.7934 31.7673 31.5934 31.8576C31.3998 31.9415 31.2321 31.8963 31.0901 31.7608C31.0063 31.6834 30.9417 31.5801 30.8837 31.4768C29.903 29.7794 28.9288 28.0755 27.9353 26.3845C27.8127 26.1715 27.8385 26.0941 28.045 25.9779C28.6514 25.6423 28.645 25.6358 28.9934 26.2296C29.903 27.8109 30.8127 29.3857 31.7224 30.967ZM31.9095 22.241C31.8966 22.6476 31.903 23.0542 31.903 23.4672C31.903 23.8674 31.9095 24.2611 31.903 24.6613C31.8966 25.0872 31.6966 25.2938 31.2708 25.3067C30.8063 25.3196 30.3482 25.3131 29.8837 25.3067C29.645 25.3002 29.5224 25.1066 29.6321 24.8936C29.8643 24.4612 29.7998 24.0481 29.5611 23.6415C29.3869 23.3446 29.2192 23.0477 29.045 22.7508C28.8708 22.441 29.1288 21.9957 29.4901 21.9957C30.2127 21.9957 30.9288 22.0022 31.645 21.9892C31.845 21.9892 31.9159 22.0344 31.9095 22.241ZM31.5611 20.8985C31.0579 20.8727 30.5546 20.8856 30.045 20.8985C29.8192 20.905 29.7546 20.8727 29.8256 20.621C30.1417 19.485 30.1288 18.3491 29.7224 17.239C28.974 15.1866 27.5224 13.9345 25.3998 13.4827C24.4256 13.2762 23.2966 13.2891 21.845 13.9216C22.0127 13.3149 22.2514 12.7921 22.5417 12.2887C23.0256 11.4432 23.5611 10.6235 23.845 9.68121C24.1933 8.51301 24.3482 7.32545 24.0643 6.12498C23.6127 4.19519 22.0192 2.89145 20.0385 2.77528C18.8256 2.70428 17.6901 2.94309 16.6772 3.62723C16.4966 3.74985 16.4062 3.65304 16.2837 3.56914C14.574 2.45903 12.1933 2.47839 10.5804 3.64013C9.41915 4.47917 8.89657 5.66028 8.83851 7.06728C8.77399 8.60982 9.16754 10.0362 9.94818 11.3593C10.4772 12.25 11.0321 13.1342 11.2643 14.1668C11.4385 14.9284 11.4643 15.7223 11.6192 16.4839C11.7611 17.168 11.8708 17.8521 12.1417 18.504C12.2837 18.8396 12.4643 19.1559 12.7417 19.4076C13.4579 20.0401 14.3159 19.8981 14.7869 19.0591C15.3288 18.0974 15.5417 17.0389 15.7417 15.974C15.8321 15.5028 15.903 15.0252 15.9998 14.5541C16.0966 14.07 16.2901 13.7989 16.5288 13.8377C16.9095 13.9022 16.9675 14.2378 17.0321 14.5412C17.2256 15.4964 17.3288 16.471 17.6063 17.4133C17.8192 18.1426 18.0192 18.8784 18.5482 19.4657C18.6192 19.5431 18.6256 19.6464 18.6321 19.7368C18.6514 20.0466 18.703 20.3563 18.8063 20.6532C18.8837 20.8791 18.8063 20.8985 18.6063 20.8985C17.8643 20.892 17.1224 20.8985 16.3804 20.8985C11.4127 20.8985 6.4385 20.8985 1.46431 20.905C1.19334 20.905 1.10947 20.8533 1.10947 20.5629C1.12237 14.3411 1.11592 8.12576 1.11592 1.90397C1.11592 1.27147 1.28366 1.10366 1.92237 1.10366H31.0966C31.7288 1.10366 31.903 1.27147 31.903 1.90397C31.903 8.12576 31.903 14.3411 31.9095 20.5629C31.9095 20.8469 31.8321 20.9114 31.5611 20.8985ZM24.0321 15.4318C23.774 15.4964 23.5159 15.5738 23.2643 15.6706C21.7611 16.2451 20.8192 17.5746 20.8256 19.1365C20.7869 19.3237 20.8708 19.5496 20.8901 19.7884C20.8966 19.84 20.9159 19.8917 20.9288 19.9433C21.0127 20.2337 21.2256 20.3628 21.5095 20.3499C21.7804 20.337 21.9804 20.0917 21.9869 19.7948C21.9869 19.6335 21.9675 19.4721 21.9546 19.3108C21.903 18.3362 22.2256 17.5488 23.0643 17.0002C23.445 16.7485 23.8643 16.6 24.303 16.4903C24.6256 16.4064 24.7998 16.116 24.7224 15.832C24.6514 15.5222 24.3611 15.3479 24.0321 15.4318ZM17.5288 23.0994C16.845 23.0865 16.1546 23.0865 15.4708 23.0994C15.0901 23.1058 14.8579 23.3446 14.8708 23.6673C14.8837 23.9771 15.103 24.1837 15.4772 24.1966C15.8192 24.2095 16.1611 24.1966 16.503 24.1966C16.845 24.1966 17.1869 24.203 17.5288 24.1966C17.9159 24.1837 18.1482 23.9707 18.1482 23.648C18.1482 23.3317 17.9095 23.1058 17.5288 23.0994ZM12.0966 4.66634C12.0385 4.6857 11.9417 4.70507 11.8579 4.75025C10.8321 5.28594 10.1869 6.7833 10.4901 7.89341C10.5546 8.11931 10.6772 8.2742 10.9159 8.32584C11.303 8.40329 11.6062 8.12576 11.5546 7.69979C11.4514 6.84139 11.703 6.1637 12.4321 5.67319C12.4837 5.64092 12.5288 5.58928 12.574 5.5441C12.7159 5.36339 12.7288 5.16976 12.6321 4.96969C12.5288 4.76315 12.3546 4.67925 12.0966 4.66634ZM17.5288 23.0994C16.845 23.0865 16.1546 23.0865 15.4708 23.0994C15.0901 23.1058 14.8579 23.3446 14.8708 23.6673C14.8837 23.9771 15.103 24.1837 15.4772 24.1966C15.8192 24.2095 16.1611 24.1966 16.503 24.1966C16.845 24.1966 17.1869 24.203 17.5288 24.1966C17.9159 24.1837 18.1482 23.9707 18.1482 23.648C18.1482 23.3317 17.9095 23.1058 17.5288 23.0994ZM12.6321 4.96323C12.5353 4.76315 12.3546 4.6728 12.103 4.65989C12.045 4.67925 11.9482 4.69861 11.8643 4.74379C10.8385 5.27948 10.1933 6.77684 10.4966 7.88696C10.5611 8.11285 10.6837 8.26775 10.9224 8.31938C11.3095 8.39683 11.6127 8.1193 11.5611 7.69333C11.4579 6.83493 11.7095 6.15725 12.4385 5.66673C12.4901 5.63446 12.5353 5.58283 12.5804 5.53765C12.7095 5.36339 12.7288 5.16331 12.6321 4.96323ZM24.7288 15.832C24.6514 15.5222 24.3611 15.3479 24.0321 15.4318C23.774 15.4964 23.5159 15.5738 23.2643 15.6706C21.7611 16.2451 20.8192 17.5746 20.8256 19.1365C20.7869 19.3237 20.8708 19.5496 20.8901 19.7884C20.8966 19.84 20.9159 19.8917 20.9288 19.9433C21.0127 20.2337 21.2256 20.3628 21.5095 20.3499C21.7804 20.337 21.9804 20.0917 21.9869 19.7948C21.9869 19.6335 21.9675 19.4721 21.9546 19.3108C21.903 18.3362 22.2256 17.5488 23.0643 17.0002C23.445 16.7485 23.8643 16.6 24.303 16.4903C24.6321 16.4064 24.7998 16.116 24.7288 15.832ZM24.7288 15.832C24.6514 15.5222 24.3611 15.3479 24.0321 15.4318C23.774 15.4964 23.5159 15.5738 23.2643 15.6706C21.7611 16.2451 20.8192 17.5746 20.8256 19.1365C20.7869 19.3237 20.8708 19.5496 20.8901 19.7884C20.8966 19.84 20.9159 19.8917 20.9288 19.9433C21.0127 20.2337 21.2256 20.3628 21.5095 20.3499C21.7804 20.337 21.9804 20.0917 21.9869 19.7948C21.9869 19.6335 21.9675 19.4721 21.9546 19.3108C21.903 18.3362 22.2256 17.5488 23.0643 17.0002C23.445 16.7485 23.8643 16.6 24.303 16.4903C24.6321 16.4064 24.7998 16.116 24.7288 15.832ZM17.5288 23.0994C16.845 23.0865 16.1546 23.0865 15.4708 23.0994C15.0901 23.1058 14.8579 23.3446 14.8708 23.6673C14.8837 23.9771 15.103 24.1837 15.4772 24.1966C15.8192 24.2095 16.1611 24.1966 16.503 24.1966C16.845 24.1966 17.1869 24.203 17.5288 24.1966C17.9159 24.1837 18.1482 23.9707 18.1482 23.648C18.1482 23.3317 17.9095 23.1058 17.5288 23.0994ZM12.6321 4.96323C12.5353 4.76315 12.3546 4.6728 12.103 4.65989C12.045 4.67925 11.9482 4.69861 11.8643 4.74379C10.8385 5.27948 10.1933 6.77684 10.4966 7.88696C10.5611 8.11285 10.6837 8.26775 10.9224 8.31938C11.3095 8.39683 11.6127 8.1193 11.5611 7.69333C11.4579 6.83493 11.7095 6.15725 12.4385 5.66673C12.4901 5.63446 12.5353 5.58283 12.5804 5.53765C12.7095 5.36339 12.7288 5.16331 12.6321 4.96323ZM12.6321 4.96323C12.5353 4.76315 12.3546 4.6728 12.103 4.65989C12.045 4.67925 11.9482 4.69861 11.8643 4.74379C10.8385 5.27948 10.1933 6.77684 10.4966 7.88696C10.5611 8.11285 10.6837 8.26775 10.9224 8.31938C11.3095 8.39683 11.6127 8.1193 11.5611 7.69333C11.4579 6.83493 11.7095 6.15725 12.4385 5.66673C12.4901 5.63446 12.5353 5.58283 12.5804 5.53765C12.7095 5.36339 12.7288 5.16331 12.6321 4.96323ZM17.5288 23.0994C16.845 23.0865 16.1546 23.0865 15.4708 23.0994C15.0901 23.1058 14.8579 23.3446 14.8708 23.6673C14.8837 23.9771 15.103 24.1837 15.4772 24.1966C15.8192 24.2095 16.1611 24.1966 16.503 24.1966C16.845 24.1966 17.1869 24.203 17.5288 24.1966C17.9159 24.1837 18.1482 23.9707 18.1482 23.648C18.1482 23.3317 17.9095 23.1058 17.5288 23.0994ZM17.5288 23.0994C16.845 23.0865 16.1546 23.0865 15.4708 23.0994C15.0901 23.1058 14.8579 23.3446 14.8708 23.6673C14.8837 23.9771 15.103 24.1837 15.4772 24.1966C15.8192 24.2095 16.1611 24.1966 16.503 24.1966C16.845 24.1966 17.1869 24.203 17.5288 24.1966C17.9159 24.1837 18.1482 23.9707 18.1482 23.648C18.1482 23.3317 17.9095 23.1058 17.5288 23.0994ZM12.6321 4.96323C12.5353 4.76315 12.3546 4.6728 12.103 4.65989C12.045 4.67925 11.9482 4.69861 11.8643 4.74379C10.8385 5.27948 10.1933 6.77684 10.4966 7.88696C10.5611 8.11285 10.6837 8.26775 10.9224 8.31938C11.3095 8.39683 11.6127 8.1193 11.5611 7.69333C11.4579 6.83493 11.7095 6.15725 12.4385 5.66673C12.4901 5.63446 12.5353 5.58283 12.5804 5.53765C12.7095 5.36339 12.7288 5.16331 12.6321 4.96323ZM17.5288 23.0994C16.845 23.0865 16.1546 23.0865 15.4708 23.0994C15.0901 23.1058 14.8579 23.3446 14.8708 23.6673C14.8837 23.9771 15.103 24.1837 15.4772 24.1966C15.8192 24.2095 16.1611 24.1966 16.503 24.1966C16.845 24.1966 17.1869 24.203 17.5288 24.1966C17.9159 24.1837 18.1482 23.9707 18.1482 23.648C18.1482 23.3317 17.9095 23.1058 17.5288 23.0994ZM17.5288 23.0994C16.845 23.0865 16.1546 23.0865 15.4708 23.0994C15.0901 23.1058 14.8579 23.3446 14.8708 23.6673C14.8837 23.9771 15.103 24.1837 15.4772 24.1966C15.8192 24.2095 16.1611 24.1966 16.503 24.1966C16.845 24.1966 17.1869 24.203 17.5288 24.1966C17.9159 24.1837 18.1482 23.9707 18.1482 23.648C18.1482 23.3317 17.9095 23.1058 17.5288 23.0994ZM17.5288 23.0994C16.845 23.0865 16.1546 23.0865 15.4708 23.0994C15.0901 23.1058 14.8579 23.3446 14.8708 23.6673C14.8837 23.9771 15.103 24.1837 15.4772 24.1966C15.8192 24.2095 16.1611 24.1966 16.503 24.1966C16.845 24.1966 17.1869 24.203 17.5288 24.1966C17.9159 24.1837 18.1482 23.9707 18.1482 23.648C18.1482 23.3317 17.9095 23.1058 17.5288 23.0994ZM17.5288 23.0994C16.845 23.0865 16.1546 23.0865 15.4708 23.0994C15.0901 23.1058 14.8579 23.3446 14.8708 23.6673C14.8837 23.9771 15.103 24.1837 15.4772 24.1966C15.8192 24.2095 16.1611 24.1966 16.503 24.1966C16.845 24.1966 17.1869 24.203 17.5288 24.1966C17.9159 24.1837 18.1482 23.9707 18.1482 23.648C18.1482 23.3317 17.9095 23.1058 17.5288 23.0994ZM17.5288 23.0994C16.845 23.0865 16.1546 23.0865 15.4708 23.0994C15.0901 23.1058 14.8579 23.3446 14.8708 23.6673C14.8837 23.9771 15.103 24.1837 15.4772 24.1966C15.8192 24.2095 16.1611 24.1966 16.503 24.1966C16.845 24.1966 17.1869 24.203 17.5288 24.1966C17.9159 24.1837 18.1482 23.9707 18.1482 23.648C18.1482 23.3317 17.9095 23.1058 17.5288 23.0994ZM17.5288 23.0994C16.845 23.0865 16.1546 23.0865 15.4708 23.0994C15.0901 23.1058 14.8579 23.3446 14.8708 23.6673C14.8837 23.9771 15.103 24.1837 15.4772 24.1966C15.8192 24.2095 16.1611 24.1966 16.503 24.1966C16.845 24.1966 17.1869 24.203 17.5288 24.1966C17.9159 24.1837 18.1482 23.9707 18.1482 23.648C18.1482 23.3317 17.9095 23.1058 17.5288 23.0994Z" fill="white"/>
<path d="M7.70932 31.6383C7.71577 31.4769 7.70286 31.3156 7.69641 31.1542C7.59964 29.3987 6.34157 27.9207 4.66415 27.5851C2.88351 27.2366 1.17383 28.0885 0.386734 29.7021C0.264153 29.9538 0.148024 30.2184 0.0770566 30.4895C-0.00681437 30.8122 -0.000362762 31.1542 0.0125405 31.4834C0.0189921 31.8126 -0.0197176 32.1934 0.135121 32.5032C0.270605 32.7807 0.560928 32.942 0.857702 33.0001H6.85125C7.48351 32.7678 7.68351 32.3095 7.70932 31.6383ZM5.76093 31.9029H3.86415C3.02544 31.9029 2.19319 31.8965 1.35448 31.9094C1.15448 31.9094 1.10931 31.8513 1.10931 31.6577C1.08351 30.3668 1.59964 29.3987 2.78028 28.8307C3.28996 28.5855 3.30931 28.6049 3.30931 29.1599C3.30931 29.3406 3.29641 29.5278 3.31577 29.7085C3.34802 30.0441 3.58028 30.2507 3.88351 30.2442C4.19319 30.2378 4.39319 30.0248 4.40609 29.6698C4.41254 29.4052 4.41899 29.1341 4.40609 28.863C4.39964 28.6952 4.45125 28.6694 4.60609 28.7081C5.59319 28.9534 6.47706 29.9602 6.58028 30.9735C6.67706 31.9029 6.67706 31.9029 5.76093 31.9029Z" fill="white"/>
<path d="M3.30257 3.03435C3.30257 3.57649 3.12192 3.85402 2.75418 3.84757C2.38644 3.84757 2.20579 3.57004 2.20579 3.02789C2.20579 2.91172 2.19934 2.78909 2.22515 2.67937C2.27676 2.38893 2.52192 2.18885 2.77999 2.20176C3.06386 2.21467 3.28321 2.44057 3.30257 2.75036C3.30902 2.84718 3.30257 2.93753 3.30257 3.03435Z" fill="#FEFEFE"/>
<path d="M3.30278 7.13806C3.30278 7.66085 3.30924 8.19009 3.30278 8.71933C3.29633 9.10012 3.08343 9.34538 2.76085 9.34538C2.44472 9.34538 2.21246 9.10012 2.20601 8.72578C2.19956 7.68666 2.19956 6.64109 2.20601 5.60198C2.20601 5.19537 2.43182 4.95656 2.77375 4.96302C3.10278 4.96947 3.30278 5.20182 3.30278 5.59552C3.30924 6.11185 3.30278 6.62173 3.30278 7.13806Z" fill="#FEFEFE"/>
<path d="M12.5741 5.53792C12.5354 5.58955 12.4903 5.63473 12.4322 5.667C11.7032 6.15106 11.4451 6.8352 11.5548 7.6936C11.6064 8.11957 11.3032 8.39065 10.9161 8.31965C10.6774 8.27447 10.5548 8.11312 10.4903 7.88722C10.187 6.77066 10.8322 5.27975 11.858 4.74406C11.9419 4.69888 12.0386 4.67952 12.0967 4.66016C12.3548 4.67306 12.529 4.76342 12.6257 4.9635C12.729 5.16358 12.7096 5.36366 12.5741 5.53792Z" fill="#FEFEFE"/>
<path d="M18.1481 23.6481C18.1481 23.9708 17.9158 24.1838 17.5287 24.1967C17.1868 24.2096 16.8448 24.1967 16.5029 24.1967C16.161 24.1967 15.819 24.2096 15.4771 24.1967C15.1029 24.1838 14.8835 23.9773 14.8706 23.6675C14.8577 23.3448 15.09 23.1124 15.4706 23.0995C16.1545 23.0866 16.8384 23.0866 17.5287 23.0995C17.9093 23.106 18.1481 23.3319 18.1481 23.6481Z" fill="#FEFEFE"/>
<path d="M24.3098 16.4838C23.8711 16.5935 23.4517 16.742 23.0711 16.9937C22.2323 17.5423 21.9098 18.3297 21.9614 19.3042C21.9678 19.4656 21.9936 19.627 21.9936 19.7883C21.9936 20.0852 21.7936 20.3305 21.5162 20.3434C21.2323 20.3563 21.0194 20.2272 20.9356 19.9368C20.9227 19.8851 20.9033 19.8335 20.8969 19.7819C20.8775 19.5495 20.7936 19.3172 20.8323 19.13C20.8259 17.5681 21.7743 16.2385 23.2711 15.6641C23.5227 15.5673 23.7743 15.4898 24.0388 15.4253C24.3678 15.3414 24.6582 15.5157 24.7356 15.8255C24.8001 16.1159 24.6323 16.4063 24.3098 16.4838Z" fill="white"/>
<path d="M3.30278 7.13806C3.30278 7.66085 3.30924 8.19009 3.30278 8.71933C3.29633 9.10012 3.08343 9.34538 2.76085 9.34538C2.44472 9.34538 2.21246 9.10012 2.20601 8.72578C2.19956 7.68666 2.19956 6.64109 2.20601 5.60198C2.20601 5.19537 2.43182 4.95656 2.77375 4.96302C3.10278 4.96947 3.30278 5.20182 3.30278 5.59552C3.30924 6.11185 3.30278 6.62173 3.30278 7.13806Z" fill="white"/>
<path d="M3.30257 3.03435C3.30257 3.57649 3.12192 3.85402 2.75418 3.84757C2.38644 3.84757 2.20579 3.57004 2.20579 3.02789C2.20579 2.91172 2.19934 2.78909 2.22515 2.67937C2.27676 2.38893 2.52192 2.18885 2.77999 2.20176C3.06386 2.21467 3.28321 2.44057 3.30257 2.75036C3.30902 2.84718 3.30257 2.93753 3.30257 3.03435Z" fill="white"/>
<path d="M12.5741 5.53792C12.5354 5.58955 12.4903 5.63473 12.4322 5.667C11.7032 6.15106 11.4451 6.8352 11.5548 7.6936C11.6064 8.11957 11.3032 8.39065 10.9161 8.31965C10.6774 8.27447 10.5548 8.11312 10.4903 7.88722C10.187 6.77066 10.8322 5.27975 11.858 4.74406C11.9419 4.69888 12.0386 4.67952 12.0967 4.66016C12.3548 4.67306 12.529 4.76342 12.6257 4.9635C12.729 5.16358 12.7096 5.36366 12.5741 5.53792Z" fill="white"/>
<path d="M18.1481 23.6481C18.1481 23.9708 17.9158 24.1838 17.5287 24.1967C17.1868 24.2096 16.8448 24.1967 16.5029 24.1967C16.161 24.1967 15.819 24.2096 15.4771 24.1967C15.1029 24.1838 14.8835 23.9773 14.8706 23.6675C14.8577 23.3448 15.09 23.1124 15.4706 23.0995C16.1545 23.0866 16.8384 23.0866 17.5287 23.0995C17.9093 23.106 18.1481 23.3319 18.1481 23.6481Z" fill="white"/>
<path d="M24.3098 16.4838C23.8711 16.5935 23.4517 16.742 23.0711 16.9937C22.2323 17.5423 21.9098 18.3297 21.9614 19.3042C21.9678 19.4656 21.9936 19.627 21.9936 19.7883C21.9936 20.0852 21.7936 20.3305 21.5162 20.3434C21.2323 20.3563 21.0194 20.2272 20.9356 19.9368C20.9227 19.8851 20.9033 19.8335 20.8969 19.7819C20.8775 19.5495 20.7936 19.3172 20.8323 19.13C20.8259 17.5681 21.7743 16.2385 23.2711 15.6641C23.5227 15.5673 23.7743 15.4898 24.0388 15.4253C24.3678 15.3414 24.6582 15.5157 24.7356 15.8255C24.8001 16.1159 24.6323 16.4063 24.3098 16.4838Z" fill="white"/>
</svg>
