<svg width="33" height="32" viewBox="0 0 33 32" fill="none" xmlns="http://www.w3.org/2000/svg">
<g clip-path="url(#clip0_483_25312)">
<path d="M0 16.127C0.0861619 15.5243 0.163708 14.9132 0.258486 14.3105C0.844387 10.6861 2.01619 7.29089 4.29948 4.33704C5.52298 2.75826 7.00496 1.46807 8.87467 0.670196C11.1493 -0.297443 13.4154 -0.161634 15.6728 0.721124C16.0175 0.856933 16.3621 1.01821 16.6982 1.17948C17.017 1.33226 17.1376 1.63784 17.0084 1.91794C16.8705 2.20654 16.5517 2.30839 16.2157 2.14712C15.3024 1.70574 14.3546 1.35773 13.3551 1.18797C11.3303 0.848445 9.49504 1.34075 7.83212 2.46967C5.91932 3.76834 4.59243 5.55083 3.54125 7.55402C2.27467 9.9816 1.58538 12.5789 1.2235 15.2697C0.887467 17.7652 1.51645 20.0994 2.61071 22.2978C4.70444 26.5248 8.10783 29.241 12.7175 30.4463C19.059 32.11 26.0554 29.3514 29.5277 23.8681C30.9321 21.6527 31.7593 19.2421 31.8799 16.6362C31.923 15.7705 31.7334 14.8877 31.5869 14.0219C31.1389 11.3736 30.3031 8.8442 28.8987 6.52696C27.7527 4.64261 26.3397 3.02139 24.3493 1.96038C22.9018 1.18797 21.3681 0.907862 19.7397 1.17099C19.6794 1.17948 19.6104 1.18797 19.5501 1.18797C19.1796 1.21343 18.9298 1.04367 18.8953 0.729612C18.8608 0.415554 19.0504 0.152424 19.4123 0.118472C20.0585 0.0590554 20.7219 -0.0258252 21.3681 0.00812706C23.7721 0.135448 25.7366 1.22192 27.4167 2.86012C29.3898 4.77842 30.6822 7.12112 31.6042 9.66754C32.3796 11.815 32.8621 14.0304 32.9914 16.2967C33.0431 17.188 32.8708 18.1132 32.6898 18.9959C31.3802 25.2177 26.4862 30.2002 20.1705 31.5413C14.0013 32.8484 8.69374 31.1423 4.35118 26.6437C2.0248 24.2331 0.672063 21.3132 0.163708 18.0198C0.103394 17.6548 0.0603133 17.2898 0.0172324 16.9248C0 16.6787 0 16.3986 0 16.127Z" fill="white"/>
<path d="M26.2186 22.7401C25.5638 22.8504 24.9176 22.9692 24.2628 23.0711C21.3591 23.5294 18.4382 23.6992 15.4915 23.6483C13.4495 23.6143 11.416 23.4531 9.39123 23.1729C9.24476 23.156 9.08967 23.122 8.96042 23.0541C8.7364 22.9183 8.65024 22.7061 8.72779 22.4515C8.82256 22.1714 9.02935 22.044 9.3223 22.078C9.97713 22.1459 10.6233 22.2308 11.2782 22.3072C13.7683 22.5873 16.2756 22.6297 18.7829 22.5279C21.4194 22.4175 24.0301 22.1035 26.5978 21.5348C27.7868 21.2716 27.8126 21.2801 28.4675 20.2615C28.9241 19.557 29.3119 18.8186 29.7168 18.0801C29.9236 17.6981 30.1821 17.5454 30.5009 17.6897C30.8111 17.834 30.9059 18.1395 30.7163 18.53C28.95 22.2817 26.1325 24.9639 22.2294 26.5003C14.7936 29.4287 6.30664 26.2881 2.63614 19.2854C2.59306 19.209 2.54998 19.1326 2.52413 19.0562C2.41212 18.7676 2.51551 18.4875 2.78262 18.3517C3.04972 18.2159 3.33405 18.3008 3.50638 18.5724C3.68732 18.8695 3.84241 19.1836 3.9975 19.4637C5.18653 19.0987 6.33249 18.7252 7.49567 18.4027C9.46016 17.8594 11.4764 17.5369 13.5098 17.3501C14.5265 17.2568 15.4743 17.469 16.31 18.0716C16.4479 18.1735 16.5427 18.165 16.6719 18.0631C17.5594 17.4265 18.5589 17.2228 19.6359 17.3671C20.7646 17.5199 21.8847 17.6812 23.0134 17.8255C23.1254 17.8424 23.3064 17.8 23.3667 17.7151C24.616 16.1533 23.6941 13.505 21.7296 13.0042C20.98 12.809 20.3252 12.9958 19.7651 13.505C19.5411 13.7088 19.3429 13.9549 19.1706 14.2096C17.7662 16.2382 15.2244 16.2552 13.8113 14.235C13.6476 13.9974 13.4667 13.7682 13.2599 13.5729C12.5017 12.843 11.5108 12.7241 10.6061 13.2674C9.7445 13.7852 9.22753 14.5576 9.0552 15.5337C9.02935 15.661 9.02074 15.7883 9.0035 15.9157C8.96042 16.2212 8.72779 16.4334 8.44345 16.4165C8.14189 16.408 7.90063 16.1618 7.91786 15.8478C8.00403 13.6409 9.93405 11.6886 12.0364 11.8584C13.1393 11.9517 13.9233 12.5459 14.5609 13.3862C14.6557 13.5135 14.7419 13.6493 14.8367 13.7767C15.7069 14.9395 17.2406 14.948 18.1194 13.7852C18.2056 13.6748 18.2831 13.556 18.3607 13.4456C19.791 11.4255 22.3155 11.2981 23.9612 13.1655C25.1589 14.5321 25.3829 16.2806 24.5557 17.8934C24.5213 17.9613 24.4954 18.0292 24.4609 18.1056C25.0468 18.2584 25.6155 18.4111 26.1842 18.5639C26.6064 18.6828 26.7787 18.9374 26.6839 19.2769C26.5978 19.591 26.2962 19.7183 25.8999 19.608C23.7889 19.0138 21.6348 18.6233 19.4549 18.4111C17.9902 18.2668 16.8098 18.9544 16.2756 20.304C16.1291 20.6775 15.8534 20.8387 15.5346 20.7284C15.2244 20.618 15.0951 20.3125 15.2416 19.939C15.3709 19.6164 15.5346 19.3024 15.6983 18.9459C15.2244 18.5809 14.6643 18.3517 14.0354 18.3942C13.0445 18.4621 12.045 18.5639 11.0628 18.7167C8.93457 19.0478 6.86669 19.591 4.84189 20.321C4.79019 20.3379 4.74711 20.3634 4.62648 20.4058C6.98732 23.5549 10.0719 25.5666 13.9664 26.2371C18.6019 27.035 22.6774 25.7788 26.2186 22.7825C26.2359 22.791 26.2273 22.7655 26.2186 22.7401Z" fill="white"/>
<path d="M25.7105 8.20857C24.4267 7.21547 23.2032 6.25632 21.5748 6.06958C20.8768 5.9847 20.1962 6.07807 19.5499 6.33271C17.5165 7.13908 15.5003 7.13059 13.4669 6.33271C12.2779 5.86587 11.0889 5.94226 9.93428 6.49398C7.53037 7.64836 5.7899 9.47329 4.52332 11.7566C3.94603 12.8006 3.50661 13.9041 3.16196 15.0415C3.04995 15.398 2.84316 15.5423 2.53298 15.5083C2.17972 15.4659 1.99016 15.1518 2.09355 14.7698C2.67945 12.7836 3.54969 10.9332 4.8335 9.27807C6.12593 7.6229 7.70269 6.30725 9.64133 5.43297C11.0113 4.82183 12.4244 4.76242 13.8116 5.30565C15.621 6.01016 17.3959 6.01016 19.2053 5.30565C20.6614 4.74544 22.1348 4.83032 23.5479 5.50937C26.2792 6.81653 28.2351 8.90459 29.6137 11.5359C30.0272 12.3338 30.346 13.1826 30.6821 14.0144C30.8372 14.4049 30.6993 14.7104 30.3719 14.8208C30.0445 14.9226 29.786 14.7698 29.6481 14.3709C29.0191 12.5375 28.1144 10.8568 26.8392 9.37993C26.6669 9.17621 26.5118 9.12528 26.2361 9.20168C22.4622 10.2542 18.6108 10.6956 14.699 10.4664C12.9586 10.3645 11.2267 10.0675 9.48624 9.84677C9.08128 9.79584 8.89173 9.53271 8.95204 9.19319C9.00374 8.87064 9.27945 8.71786 9.69303 8.77727C10.7442 8.93006 11.7868 9.12528 12.8466 9.24412C15.2936 9.51573 17.7405 9.49876 20.1789 9.24412C21.9797 9.05738 23.746 8.74332 25.4951 8.27648C25.5468 8.25101 25.5899 8.24252 25.7105 8.20857Z" fill="white"/>
</g>
<defs>
<clipPath id="clip0_483_25312">
<rect width="33" height="32" fill="white"/>
</clipPath>
</defs>
</svg>
