<svg width="34" height="28" viewBox="0 0 34 28" fill="none" xmlns="http://www.w3.org/2000/svg">
<path d="M33.8546 20.1338C33.6688 18.674 33.3237 17.2576 32.545 15.9716C32.4831 15.8673 32.4654 15.7283 32.4654 15.5979C32.4565 14.4596 32.4742 13.3213 32.4565 12.183C32.4388 11.314 32.0583 10.5928 31.3858 10.028C31.0584 9.7499 30.5718 9.89762 30.5541 10.2886C30.5452 10.4537 30.6514 10.671 30.7753 10.7926C31.2443 11.2445 31.4832 11.7745 31.4743 12.4176C31.4655 12.9737 31.4832 13.5211 31.4743 14.0773C31.4566 14.7898 31.5009 15.511 31.3947 16.2149C31.0938 18.2656 29.1294 19.821 27.0412 19.7254C24.8025 19.6298 22.9797 17.9701 22.8558 15.8325C22.785 14.6942 22.8204 13.5559 22.8292 12.4176C22.8381 11.1315 23.6787 10.3147 24.9971 10.306C26.2271 10.306 27.4482 10.306 28.6693 10.306C29.0852 10.306 29.3064 10.1149 29.2887 9.79334C29.2799 9.48052 29.0763 9.3328 28.6605 9.3328C27.404 9.3328 26.1386 9.3328 24.8821 9.3328C23.8999 9.3328 23.1124 9.71514 22.4841 10.4537C22.4311 10.5146 22.378 10.5754 22.3072 10.6536C21.6878 9.84548 20.9091 9.35887 19.8827 9.34149C18.2811 9.32411 16.6795 9.32411 15.0779 9.34149C13.7948 9.35887 12.6799 10.2191 12.2994 11.4357C12.264 11.5573 12.2286 11.6703 12.1667 11.8614C11.8835 11.5747 11.6446 11.3227 11.3969 11.0707C11.1491 10.8274 10.9013 10.5928 10.6093 10.3234C10.8836 10.2018 11.0872 10.1062 11.2995 10.0106C12.2198 9.61087 12.6445 8.63764 12.2729 7.75132C11.9012 6.86499 10.9013 6.43052 9.97223 6.81285C9.37052 7.06485 8.78652 7.37767 8.22021 7.71656C7.69814 8.02938 7.21147 8.41172 6.76019 8.72454C6.41509 8.39434 6.08769 8.08152 5.7426 7.76001C5.77799 7.71656 5.82224 7.67311 5.86648 7.62097C6.30891 7.09092 6.29121 6.47396 5.80454 5.97866C5.58332 5.75274 5.36211 5.52681 5.1232 5.31826C4.63652 4.88379 3.97288 4.8751 3.51275 5.32695C2.44207 6.361 1.38024 7.40374 0.327258 8.45517C-0.132869 8.91571 -0.12402 9.56742 0.31841 10.0367C0.557322 10.2886 0.796234 10.558 1.07054 10.7666C1.26521 10.9143 1.50412 11.0273 1.74303 11.0707C2.17661 11.1489 2.52171 10.923 2.80487 10.6449C3.14996 10.9838 3.47736 11.2966 3.82245 11.6268C3.72512 11.7485 3.62778 11.8788 3.5216 12.0092C2.84911 12.8694 2.22086 13.7644 1.82267 14.7811C1.45103 15.7283 1.87576 16.7102 2.78717 17.0664C3.69857 17.4227 4.68077 17.0056 5.07895 16.0932C5.16744 15.8934 5.26477 15.6935 5.37981 15.4589C5.49484 15.5632 5.57448 15.6327 5.65411 15.7109C7.26456 17.2924 8.86615 18.8739 10.4854 20.4466C10.6536 20.6117 10.7155 20.7768 10.7244 21.0115C10.7775 23.2707 11.795 24.9912 13.7506 26.173C14.4142 26.5727 15.1487 26.816 15.9185 26.929C16.2016 26.9724 16.4406 26.816 16.4936 26.564C16.5556 26.286 16.4052 26.0601 16.1043 25.9818C16.0424 25.9645 15.9716 25.9471 15.9096 25.9384C14.4496 25.6603 13.3081 24.8957 12.5029 23.6704C11.9986 22.9058 11.7419 22.0542 11.7154 21.1679C12.0693 21.0723 12.3967 20.9854 12.7241 20.8985C14.1311 22.1498 14.2726 22.1585 15.715 21.1418C15.7946 21.2113 15.8742 21.2895 15.945 21.359C16.4759 21.8804 17.0069 22.4018 17.5378 22.9231C17.759 23.1317 18.051 23.1404 18.2545 22.9666C18.458 22.7754 18.458 22.48 18.2457 22.2454C18.1749 22.1672 18.0952 22.089 18.0156 22.0108C17.5732 21.585 17.1219 21.1592 16.6795 20.7334C19.2279 20.8811 21.0949 19.8905 22.316 17.7268C23.4309 19.6733 25.0591 20.7595 27.3332 20.6726C29.6161 20.5944 31.1646 19.3865 32.1557 17.388C32.3592 17.9875 32.5538 18.5697 32.6777 19.1693C32.9078 20.2642 33.0405 21.3677 32.6866 22.48C31.9964 24.6263 30.0143 26.034 27.6163 26.0427C24.5901 26.0514 21.5639 26.0427 18.5465 26.0427C18.1395 26.0427 17.9271 26.2078 17.9271 26.5119C17.9183 26.816 18.1395 27.0159 18.5288 27.0159C21.6524 27.0159 24.7759 27.0593 27.8995 26.9985C30.7664 26.9464 33.0759 25.0695 33.7484 22.3931C33.8103 22.1411 33.8634 21.8891 33.9165 21.6371V20.4032C33.8988 20.3163 33.8634 20.2294 33.8546 20.1338ZM2.15007 9.92369C2.07043 10.0019 1.99079 10.0627 1.90231 10.1322C1.84037 10.1062 1.80497 10.0975 1.76958 10.0714C1.73418 10.0453 1.69879 10.0193 1.67224 9.98451C0.778536 9.07212 0.796234 9.4197 1.63685 8.57682C2.43322 7.7687 3.26499 6.98664 4.06137 6.17852C4.27373 5.96128 4.41531 5.96128 4.62768 6.17852C5.30017 6.84761 5.30017 6.83892 4.63652 7.49063C3.80476 8.30744 2.98184 9.11557 2.15007 9.92369ZM3.63663 9.89762C4.07906 9.46314 4.54804 9.0026 5.01701 8.54206C5.30017 8.8375 5.60987 9.14163 5.88418 9.42839C5.44175 9.85417 4.96392 10.3234 4.5038 10.7666C4.23834 10.5146 3.93749 10.2104 3.63663 9.89762ZM4.16755 15.7891C4.00827 16.1454 3.64548 16.3105 3.30039 16.2236C2.93759 16.1367 2.70753 15.8586 2.69868 15.3981C2.74292 15.2851 2.79602 15.0765 2.89335 14.8854C3.75166 13.1736 4.94623 11.7137 6.35315 10.4103C7.43268 9.41101 8.61839 8.55944 9.95453 7.89904C10.0873 7.82952 10.2377 7.7687 10.3793 7.71656C10.7951 7.56884 11.211 7.74263 11.3703 8.11628C11.5384 8.49861 11.3792 8.9244 10.981 9.09819C9.56519 9.68907 8.38833 10.6188 7.29995 11.6442C6.01691 12.8434 4.88428 14.1642 4.16755 15.7891ZM12.4233 19.8297C11.9809 20.2642 11.6977 20.2642 11.2464 19.8297C9.55634 18.1613 7.86626 16.5016 6.16733 14.8332C6.10539 14.7724 6.04345 14.7116 5.97266 14.6247C7.03449 13.1475 8.29984 11.9049 9.79526 10.8708C9.89259 10.9577 9.97223 11.0273 10.043 11.1055C11.7243 12.7565 13.3966 14.3988 15.0779 16.0411C15.5203 16.4756 15.5291 16.7623 15.0867 17.1968C14.2019 18.0831 13.317 18.9521 12.4233 19.8297ZM16.0158 19.4387C15.5734 19.8818 15.131 20.3163 14.6885 20.7421C14.4762 20.9419 14.2284 20.9419 14.0072 20.7508C13.8214 20.5857 13.6532 20.4032 13.4763 20.2207C14.1576 19.5516 14.8124 18.9086 15.5291 18.2135C15.6973 18.3959 15.8742 18.5784 16.0424 18.7783C16.2282 18.9955 16.2282 19.2301 16.0158 19.4387ZM21.6878 16.4147C21.4135 18.3525 19.4845 19.7515 17.4847 19.7254C17.3431 19.7254 17.2015 19.6994 17.0423 19.6907C17.3431 18.9086 17.0688 18.309 16.4848 17.8224C16.2547 17.6313 16.1751 17.4662 16.3078 17.1446C16.5644 16.5277 16.3875 15.9542 15.9096 15.4763C15.1487 14.7203 14.4142 13.9382 13.609 13.2344C13.1754 12.852 13.1312 12.4436 13.2108 11.957C13.3701 11.0186 14.1753 10.3147 15.1487 10.306C16.7237 10.2886 18.3076 10.2886 19.8827 10.306C20.8206 10.3147 21.732 11.0099 21.7763 11.9049C21.8382 13.4169 21.9001 14.9462 21.6878 16.4147Z" fill="white"/>
<path d="M28.2796 5.1181C27.262 5.13548 26.2533 5.13548 25.2357 5.1181C24.7933 5.10942 24.6163 4.67494 24.8906 4.28391C25.5719 3.302 26.2621 2.32009 26.9523 1.34687C27.0231 1.25129 27.085 1.14701 27.2001 0.981911C26.563 0.981911 26.0055 0.981911 25.4481 0.981911C25.041 0.981911 24.8375 0.816811 24.8375 0.50399C24.8375 0.191169 25.041 0.00868948 25.4392 0.00868948C26.3064 0 27.1824 -0.00868948 28.0495 0.017379C28.2265 0.0260684 28.492 0.139032 28.5628 0.278063C28.6335 0.434474 28.5893 0.712537 28.492 0.868948C27.8195 1.85955 27.1293 2.83277 26.4391 3.81468C26.3683 3.91027 26.3152 4.00585 26.2179 4.15357C26.9169 4.15357 27.5629 4.13619 28.2088 4.16226C28.3858 4.17095 28.6158 4.2926 28.7132 4.43164C28.899 4.71839 28.6512 5.1181 28.2796 5.1181Z" fill="white"/>
<path d="M22.1918 7.16013C22.1918 7.4382 21.9883 7.64674 21.652 7.65543C20.9441 7.66412 20.2363 7.67281 19.5284 7.65543C19.0417 7.64674 18.8382 7.22965 19.1036 6.83862C19.5372 6.1956 19.9885 5.56996 20.4398 4.93563C20.5017 4.84873 20.546 4.76184 20.6344 4.61411C20.254 4.61411 19.9266 4.61411 19.5992 4.61411C19.2541 4.60543 19.0417 4.43164 19.0328 4.15357C19.0152 3.86682 19.2452 3.64958 19.5903 3.64089C20.2451 3.6322 20.8911 3.62351 21.5459 3.64089C22.0325 3.64958 22.2449 4.05799 21.9706 4.4577C21.537 5.10073 21.0857 5.72637 20.6433 6.3607C20.5814 6.4476 20.5283 6.53449 20.4398 6.68221C20.8822 6.68221 21.2627 6.67352 21.6343 6.68221C21.9794 6.6909 22.1918 6.88207 22.1918 7.16013Z" fill="white"/>
<path d="M12.211 14.6852C11.8039 14.2768 11.388 13.8684 10.9722 13.4687C10.2908 12.8083 9.42365 12.8344 8.71577 13.5122C7.97249 14.2421 7.92824 15.085 8.60958 15.7714C8.99892 16.1711 9.40596 16.5535 9.80414 16.9445C10.282 17.4224 10.8483 17.5875 11.4854 17.3442C12.149 17.0922 12.6622 16.3797 12.6711 15.754C12.6799 15.337 12.5118 14.9807 12.211 14.6852ZM11.1226 16.4318C10.8925 16.5535 10.6802 16.4405 10.5032 16.2667C10.1227 15.8844 9.72451 15.5021 9.33517 15.1197C9.02547 14.8069 9.04316 14.5723 9.38826 14.2334C9.73336 13.8945 9.96342 13.8771 10.2908 14.1899C10.6802 14.5636 11.0783 14.9459 11.4588 15.337C11.565 15.4499 11.627 15.5976 11.6889 15.6932C11.6358 16.0929 11.3969 16.2928 11.1226 16.4318Z" fill="white"/>
</svg>
