<svg width="29" height="33" viewBox="0 0 29 33" fill="none" xmlns="http://www.w3.org/2000/svg">
<g clip-path="url(#clip0_483_25276)">
<path d="M18.2481 1.05616C18.2481 1.98862 18.2481 2.85891 18.2481 3.73808C18.2481 5.12344 17.5308 5.8694 16.166 5.91381C16.1223 5.91381 16.0786 5.92269 15.9998 5.93157C15.9998 6.38447 15.9823 6.83738 15.9998 7.29029C16.0611 8.5602 15.1513 9.5637 13.8391 9.46601C13.6553 9.45713 13.4716 9.46601 13.2792 9.46601C13.2792 10.2031 13.2792 10.9047 13.2792 11.6773C13.5416 11.5707 13.7953 11.5085 13.9965 11.3576C14.3114 11.1267 14.6439 10.878 14.8626 10.5583C16.446 8.32043 18.9917 7.90304 21.3362 9.04863C23.7332 10.2209 25.0279 12.2012 25.3778 14.8565C25.6752 17.1565 25.3428 19.3944 24.6255 21.5613C23.7157 24.2965 22.7359 27.005 21.7561 29.7225C21.5286 30.3441 21.2137 30.9302 20.8725 31.4986C19.6828 33.4878 16.5597 33.6121 15.5099 31.1256C15.1163 30.1843 14.8801 29.1719 14.5739 28.195C14.3989 27.6355 14.2502 27.0672 14.049 26.5255C13.8391 25.9483 13.4104 25.6019 12.798 25.5575C12.2206 25.522 11.8357 25.815 11.547 26.3124C11.3808 26.6054 11.0484 26.6942 10.786 26.5432C10.5323 26.4012 10.4798 26.117 10.646 25.7884C11.3108 24.4208 12.9555 24.0389 14.1365 24.9803C14.7051 25.4243 15.0288 26.0282 15.2213 26.712C15.4662 27.6 15.6762 28.4881 15.9561 29.3584C16.1311 29.9001 16.3498 30.4507 16.6384 30.9302C17.382 32.1469 18.8342 32.2712 19.7528 31.1878C20.1202 30.7526 20.4351 30.2198 20.6276 29.6869C21.7648 26.4811 22.9196 23.2841 23.9431 20.0427C24.538 18.16 24.6167 16.1886 24.1968 14.226C23.6807 11.8105 21.8173 9.98108 19.4116 9.59034C18.0469 9.36833 16.8659 9.79459 15.9473 10.8691C15.7024 11.1533 15.4662 11.4375 15.2213 11.7217C14.5214 12.5209 13.6291 12.9028 12.6056 13.0005C11.1446 13.1425 9.70994 12.9561 8.31024 12.5031C7.91658 12.3699 7.7941 12.1568 7.89033 11.8105C7.97782 11.4997 8.21401 11.3931 8.59018 11.4819C9.05383 11.5973 9.52623 11.7039 9.98988 11.8105C10.1036 11.8371 10.2261 11.8371 10.3573 11.8549C8.98385 9.96332 7.12925 8.81774 4.46982 10.0699C2.54524 10.9757 1.53046 12.6008 1.19803 14.6966C0.839355 16.9434 1.16304 19.1191 1.87163 21.2416C2.78144 23.9768 3.76122 26.6853 4.74976 29.3939C4.95972 29.9711 5.2659 30.5217 5.60708 31.0279C6.06198 31.7028 6.73558 31.9692 7.54041 31.8982C8.18777 31.836 8.66017 31.4719 8.90512 30.8947C9.22005 30.131 9.45625 29.3406 9.71869 28.5591C9.77118 28.417 9.78867 28.2572 9.84991 28.1151C9.95489 27.8576 10.1561 27.7332 10.4273 27.8132C10.6985 27.8842 10.8734 28.0707 10.8384 28.3726C10.7947 28.6568 10.7335 28.941 10.6372 29.2074C10.3835 29.9267 10.1823 30.6727 9.84116 31.3476C8.94886 33.1326 6.75308 33.5322 5.25715 32.2179C4.75851 31.7828 4.38234 31.2499 4.12865 30.646C2.72895 27.1826 1.46922 23.666 0.480683 20.0693C-0.0704485 18.0624 -0.175426 16.0021 0.30572 13.9507C0.883096 11.4819 2.28279 9.67915 4.63604 8.73781C6.70934 7.91192 8.81763 8.48916 10.3223 10.1676C10.6722 10.5583 11.0746 10.9047 11.4771 11.2332C11.6695 11.3931 11.932 11.473 12.2032 11.6151C12.2032 10.8691 12.2032 10.1942 12.2032 9.46601C11.9757 9.46601 11.7483 9.46601 11.5295 9.46601C10.3136 9.45713 9.53498 8.65789 9.52623 7.41461C9.52623 6.92619 9.52623 6.44664 9.52623 5.93157C9.30753 5.92269 9.11507 5.92269 8.92261 5.89605C7.99531 5.76284 7.29546 5.01687 7.26922 4.04002C7.23423 2.88555 7.25172 1.73108 7.26047 0.585496C7.26047 0.221395 7.48792 -0.00949862 7.79411 -0.000618104C8.10029 0.00826241 8.29275 0.239156 8.29275 0.612138C8.29275 1.66892 8.29275 2.71682 8.29275 3.7736C8.29275 4.53733 8.60768 4.85702 9.36876 4.85702C11.6258 4.85702 13.8915 4.85702 16.1486 4.85702C16.9009 4.85702 17.1983 4.55509 17.2071 3.79136C17.2071 2.89443 17.2071 1.9975 17.2071 1.05616C17.0671 1.05616 16.9534 1.05616 16.8397 1.05616C14.6701 1.05616 12.4918 1.05616 10.3223 1.05616C10.2173 1.05616 10.1036 1.06504 9.99863 1.04728C9.72744 1.01176 9.53498 0.798628 9.55247 0.523332C9.56122 0.230275 9.70994 0.0437845 9.99863 -0.000618104C10.1124 -0.0183791 10.2348 -0.00949862 10.3573 -0.00949862C16.0086 -0.000618104 21.6599 -0.000618104 27.3199 -0.000618104C28.4222 -0.000618104 28.9995 0.576616 28.9995 1.69556C28.9995 1.9975 29.0083 2.29056 28.9995 2.59249C28.9733 3.39174 28.3697 4.04002 27.5823 4.04002C24.9666 4.05778 22.3422 4.0489 19.7265 4.0489C19.3591 4.0489 19.1579 3.84465 19.1667 3.50719C19.1754 3.17861 19.3766 2.99212 19.7615 2.99212C22.2722 2.99212 24.7829 2.99212 27.2936 2.99212C27.8885 2.99212 27.9673 2.90331 27.976 2.29944C27.976 2.0419 27.9847 1.79325 27.976 1.53571C27.9673 1.21601 27.8273 1.07392 27.5124 1.06504C27.4074 1.05616 27.2936 1.06504 27.1887 1.06504C24.363 1.06504 21.5374 1.06504 18.703 1.06504C18.5543 1.05616 18.4231 1.05616 18.2481 1.05616ZM14.9588 5.94045C13.4716 5.94045 12.0282 5.94045 10.576 5.94045C10.576 6.49992 10.5673 7.03275 10.576 7.5567C10.5848 8.03625 10.8997 8.38259 11.3808 8.39147C12.2994 8.40923 13.2092 8.40923 14.1277 8.39147C14.6089 8.38259 14.9326 8.06289 14.9501 7.57446C14.9763 7.04163 14.9588 6.49992 14.9588 5.94045Z" fill="white"/>
<path d="M14.9589 5.94141C14.9589 6.50088 14.9764 7.04259 14.9502 7.58431C14.9239 8.07273 14.609 8.39243 14.1279 8.40131C13.2093 8.41908 12.2995 8.41908 11.381 8.40131C10.8998 8.39243 10.5936 8.04609 10.5761 7.56654C10.5586 7.03371 10.5761 6.50088 10.5761 5.95029C12.0283 5.94141 13.4718 5.94141 14.9589 5.94141Z" fill="white"/>
</g>
<defs>
<clipPath id="clip0_483_25276">
<rect width="29" height="33" fill="white"/>
</clipPath>
</defs>
</svg>
