<svg width="30" height="34" viewBox="0 0 30 34" fill="none" xmlns="http://www.w3.org/2000/svg">
<path d="M5.71487 4.14635C5.8812 4.41018 5.80136 4.75518 5.50196 4.9446C4.8832 5.33696 4.37755 5.84432 4.01826 6.49374C3.44607 7.52876 3.33962 8.63819 3.45273 9.79498C3.4993 10.255 3.61906 10.7015 3.6989 11.1615C3.76544 11.5403 3.60575 11.7906 3.27974 11.8583C2.96038 11.9259 2.72086 11.7635 2.62106 11.3847C2.42146 10.6135 2.28839 9.83557 2.3017 9.03055C2.32166 6.98081 3.06018 5.30313 4.74348 4.10576C4.80336 4.05841 4.86989 4.01782 4.93643 3.98399C5.24914 3.80811 5.54854 3.87576 5.71487 4.14635Z" fill="white"/>
<path d="M7.7573 3.43675C7.76395 3.74117 7.49782 4.01176 7.20507 4.01176C6.91897 4.005 6.66614 3.7547 6.66614 3.45705C6.65949 3.1391 6.91232 2.88204 7.21837 2.8888C7.51112 2.89557 7.7573 3.1391 7.7573 3.43675Z" fill="white"/>
<path d="M29.3677 5.73589C29.0417 4.74146 28.576 3.81468 27.9107 2.99613C26.4735 1.22375 24.2513 0.195496 22.0025 0.0263754C19.7536 -0.142745 17.4782 0.513443 15.5221 1.64993C15.3158 1.7717 15.0896 1.90023 14.8501 1.87317C14.6838 1.85288 14.5374 1.75141 14.391 1.6567C14.0584 1.43346 13.7124 1.23728 13.3531 1.06139C12.9938 0.885508 12.6279 0.736682 12.2486 0.60815C11.8694 0.479619 11.4902 0.371381 11.0976 0.290204C10.5786 0.181966 10.0597 0.114318 9.53407 0.0872589C9.33447 0.0737292 9.13487 0.0737292 8.94192 0.0737292C8.73567 0.0737292 8.53607 0.0940237 8.32981 0.0940237C8.19675 0.100789 8.07033 0.114318 7.93726 0.127848C7.87073 0.134613 7.79754 0.141377 7.73101 0.148142C7.66448 0.154907 7.59794 0.175202 7.53141 0.175202C7.13886 0.22932 6.74631 0.310498 6.36042 0.405206C5.97452 0.506678 5.59528 0.628445 5.22269 0.770506C4.85011 0.912567 4.49082 1.08169 4.1382 1.2711C3.78557 1.46052 3.44625 1.67023 3.12023 1.907C2.96055 2.022 2.80087 2.14377 2.64119 2.2723C2.56135 2.33318 2.49482 2.39406 2.42828 2.47524C2.36175 2.55642 2.28856 2.6376 2.22868 2.71878C1.9692 3.04349 1.72968 3.38173 1.52343 3.74026C1.31717 4.0988 1.13088 4.47086 0.971197 4.84969C0.811516 5.23529 0.671795 5.62765 0.558688 6.03354C0.438928 6.43943 0.345781 6.85208 0.272594 7.2715C0.192753 7.69092 0.139527 8.11711 0.092953 8.54329C0.0530328 8.97624 0.0264194 9.40242 0.0131127 9.83537C-0.000194053 10.2683 0.00645931 10.7013 0.019766 11.1342C0.0330728 11.5604 0.0596862 11.9933 0.092953 12.4195C0.092953 12.4534 0.0996064 12.4939 0.0996064 12.5278C0.22602 14.0228 0.478848 15.599 1.39701 16.7761C2.22868 17.8449 3.50613 18.447 4.77027 18.907C6.10094 19.3873 7.47153 19.7526 8.86208 19.9894C9.07499 20.0232 9.30786 20.0705 9.45423 20.2329C9.56069 20.3547 9.59395 20.5238 9.62722 20.6794C9.82682 21.667 10.0264 22.6615 10.226 23.6491C10.2526 23.7777 10.2792 23.913 10.2327 24.0347C10.1395 24.2918 9.80686 24.3392 9.54738 24.4068C8.6026 24.6571 8.03041 25.8545 8.42296 26.7677C8.81551 27.681 10.0663 28.0733 10.8914 27.5389C11.2906 27.6742 11.2639 28.2966 10.9778 28.6078C10.6918 28.9189 10.2726 29.061 9.94658 29.3316C9.40766 29.7848 9.22136 30.6169 9.51411 31.2596C9.80686 31.9022 10.552 32.3014 11.2373 32.1796C11.4702 32.139 11.7097 32.0443 11.9293 32.1322C12.1222 32.2066 12.242 32.4096 12.3617 32.5855C13.067 33.607 14.3844 34.1617 15.5886 33.9384C16.7995 33.7152 17.8375 32.7343 18.1502 31.5234C18.3032 30.9146 18.3232 30.2043 18.8022 29.8051C19.1615 29.5075 19.6605 29.4939 20.0796 29.3045C20.7782 28.9934 21.1974 28.1477 21.0377 27.3901C20.8714 26.6324 20.1395 26.0439 19.381 26.0642C19.0683 25.5433 19.5075 24.8668 20.0331 24.5759C20.5587 24.285 21.1908 24.1768 21.6498 23.7844C22.1888 23.3177 22.3751 22.4721 22.0757 21.8226C21.7763 21.1732 21.0178 20.7741 20.3192 20.8959C20.3125 20.1585 21.244 19.8811 21.9625 19.7729C23.1934 19.597 24.3977 19.2723 25.5554 18.8055C26.753 18.3252 27.9373 17.669 28.7024 16.6137C29.6073 15.3758 29.8268 13.7657 29.9333 12.2301C30.0863 10.0721 30.0331 7.7721 29.3677 5.73589ZM16.4403 32.3013C15.4622 33.1808 13.8787 32.9778 13.2001 31.8684C13.1269 31.7466 13.047 31.6655 13.2666 31.5978C14.5973 31.1649 15.9213 30.7184 17.2919 30.2651C17.1655 31.0499 17.0324 31.7737 16.4403 32.3013ZM19.2946 27.2277C19.6073 27.1804 19.8601 27.336 19.9333 27.6066C20.0198 27.9042 19.8934 28.1816 19.5873 28.2966C19.1083 28.4725 18.6226 28.6281 18.1369 28.7904C15.8614 29.5481 13.5926 30.3057 11.3172 31.0634C11.2041 31.104 11.091 31.1243 11.0178 31.1446C10.7051 31.1446 10.4589 30.9416 10.4256 30.671C10.3857 30.3666 10.5254 30.1501 10.7982 30.0487C11.2639 29.8795 11.743 29.724 12.2154 29.5684C14.4709 28.8175 16.7197 28.0666 18.9752 27.3224C19.0816 27.2819 19.1881 27.248 19.2946 27.2277ZM12.9472 26.8692C14.6638 26.301 16.387 25.7259 18.1036 25.1577C18.1701 25.1374 18.2367 25.0833 18.3431 25.1306C18.2633 25.5095 18.1768 25.8883 18.1169 26.2807C18.0903 26.4227 18.0038 26.4565 17.904 26.4904C16.1009 27.0924 14.3045 27.6877 12.5015 28.2898C12.3551 28.3372 12.3152 28.3236 12.2686 28.1545C12.0158 27.1871 12.0091 27.1871 12.9472 26.8692ZM21.1109 22.6074C21.1043 22.8915 20.8914 23.0403 20.5986 23.135C19.2946 23.568 17.9905 24.0077 16.6798 24.4406C14.584 25.1374 12.4815 25.8342 10.3857 26.531C10.2859 26.5648 10.1794 26.6054 10.073 26.6257C9.80021 26.673 9.54738 26.5107 9.46088 26.2468C9.37439 25.9695 9.47419 25.7462 9.70706 25.5974C9.80686 25.5365 9.92662 25.4959 10.0397 25.4621C13.4196 24.3324 16.8062 23.2094 20.1928 22.0865C20.7317 21.8971 21.1043 22.0865 21.1109 22.6074ZM10.9047 20.2329C11.9426 20.3073 12.9872 20.4088 14.0317 20.3953C15.7283 20.4426 17.4183 20.3817 19.1083 20.2329C19.2946 20.2194 19.3212 20.2329 19.3079 20.4494C19.2746 21.0582 18.9885 21.322 18.4097 21.5047C16.1409 22.2082 13.892 22.9794 11.6432 23.7371C11.4303 23.8115 11.3637 23.7641 11.3238 23.5544C11.1242 22.5194 10.918 21.4776 10.6984 20.4426C10.6518 20.2194 10.7184 20.2194 10.9047 20.2329ZM28.7689 12.6698C28.6957 13.3395 28.5893 14.0025 28.4429 14.6587C28.1635 15.8967 27.3119 16.6273 26.2806 17.2023C24.737 18.0614 23.067 18.5079 21.3504 18.7988C18.3099 19.3197 15.2493 19.3738 12.1888 19.1911C9.80021 19.0558 7.43826 18.7311 5.17612 17.8787C4.42429 17.5946 3.71238 17.2226 3.04039 16.7693C2.05569 16.1064 1.59661 15.139 1.41697 13.989C1.04438 11.628 0.951237 9.26713 1.47685 6.91297C1.74964 5.6953 2.14219 4.52498 2.98051 3.58467C4.0517 2.3873 5.41564 1.67023 6.96587 1.37258C9.89335 0.81786 12.5281 1.47405 14.7769 3.50349C15.9878 4.59263 17.2653 5.56677 18.7423 6.25001C19.4675 6.58149 20.226 6.80473 21.0311 6.82502C21.3904 6.83179 21.6432 6.63561 21.6765 6.3109C21.7031 6.01324 21.4968 5.74265 21.1575 5.71559C19.4143 5.58706 18.0371 4.66704 16.6931 3.64556C16.4136 3.43585 16.1542 3.20584 15.8681 2.96907C16.6266 2.367 17.4516 1.93406 18.3431 1.6567C20.419 1.00051 22.4882 1.0208 24.5307 1.83258C26.5999 2.65113 27.8441 4.20027 28.403 6.35825C28.9419 8.44182 29.0018 10.5457 28.7689 12.6698Z" fill="white"/>
<path d="M5.71487 4.14635C5.8812 4.41018 5.80136 4.75518 5.50196 4.9446C4.8832 5.33696 4.37755 5.84432 4.01826 6.49374C3.44607 7.52876 3.33962 8.63819 3.45273 9.79498C3.4993 10.255 3.61906 10.7015 3.6989 11.1615C3.76544 11.5403 3.60575 11.7906 3.27974 11.8583C2.96038 11.9259 2.72086 11.7635 2.62106 11.3847C2.42146 10.6135 2.28839 9.83557 2.3017 9.03055C2.32166 6.98081 3.06018 5.30313 4.74348 4.10576C4.80336 4.05841 4.86989 4.01782 4.93643 3.98399C5.24914 3.80811 5.54854 3.87576 5.71487 4.14635Z" fill="#FEFEFE"/>
<path d="M7.7573 3.43675C7.76395 3.74117 7.49782 4.01176 7.20507 4.01176C6.91897 4.005 6.66614 3.7547 6.66614 3.45705C6.65949 3.1391 6.91232 2.88204 7.21837 2.8888C7.51112 2.89557 7.7573 3.1391 7.7573 3.43675Z" fill="#FEFEFE"/>
<path d="M5.5088 4.93678C4.89004 5.32914 4.38438 5.8365 4.0251 6.48592C3.45291 7.52094 3.34646 8.63037 3.45956 9.78716C3.50614 10.2472 3.6259 10.6936 3.70574 11.1537C3.77227 11.5325 3.61259 11.7828 3.28658 11.8504C2.96721 11.9181 2.72769 11.7557 2.62789 11.3769C2.42829 10.6057 2.29523 9.82774 2.30853 9.02273C2.32849 6.97299 3.06702 5.29531 4.75032 4.09794C4.8102 4.05059 4.87673 4.01 4.94326 3.97617C5.24932 3.81382 5.54872 3.88147 5.71505 4.14529C5.88139 4.40912 5.80155 4.75413 5.5088 4.93678Z" fill="white"/>
<path d="M7.7573 3.43675C7.76395 3.74117 7.49782 4.01176 7.20507 4.01176C6.91897 4.005 6.66614 3.7547 6.66614 3.45705C6.65949 3.1391 6.91232 2.88204 7.21837 2.8888C7.51112 2.89557 7.7573 3.1391 7.7573 3.43675Z" fill="white"/>
</svg>
