<svg width="33" height="33" viewBox="0 0 33 33" fill="none" xmlns="http://www.w3.org/2000/svg">
<path d="M24.5234 -0.0921875L24.5519 -0.0664022C24.734 0.0980213 24.916 0.271045 25.0893 0.444068M24.5234 -0.0921875L32.7431 8.09251L32.743 8.0924C30.1948 5.54019 27.6464 2.98784 25.0893 0.444068M24.5234 -0.0921875H24.4849M24.5234 -0.0921875H24.4849M25.0893 0.444068L25.0187 0.514844L25.0892 0.44395C25.0893 0.443989 25.0893 0.444029 25.0893 0.444068ZM24.4849 -0.0921875H24.1664H24.1255M24.4849 -0.0921875H24.1255M24.1255 -0.0921875L24.0963 -0.0635796M24.1255 -0.0921875L24.0963 -0.0635796M24.0963 -0.0635796C23.8969 0.132024 23.6974 0.327325 23.498 0.522525C22.7081 1.29594 21.9198 2.06776 21.1425 2.85046C21.029 2.96383 20.9761 3.10286 20.9843 3.24483C20.9924 3.38521 21.0596 3.5191 21.1685 3.62781C21.2324 3.69157 21.3044 3.7414 21.3749 3.78497C21.4085 3.80575 21.4428 3.82568 21.4758 3.84492L21.4806 3.8477C21.4918 3.85418 21.5028 3.86059 21.5137 3.86699C21.509 3.87974 21.5042 3.8929 21.4994 3.90664C21.4849 3.91681 21.4696 3.92726 21.4538 3.93805C21.3812 3.98763 21.298 4.04446 21.2288 4.1136L21.2287 4.11367M24.0963 -0.0635796L21.2287 4.11367M21.2287 4.11367C18.93 6.41247 16.6291 8.71129 14.3272 11.0112M21.2287 4.11367L14.3272 11.0112M18.6219 10.5266C18.4325 10.3375 18.3464 10.1398 18.355 9.87344C18.3677 9.55476 18.3663 9.23608 18.3647 8.88234C18.3644 8.80184 18.364 8.71953 18.3638 8.63499M18.6219 10.5266L18.3638 8.63499M18.6219 10.5266C19.9047 11.7984 21.1789 13.0703 22.4445 14.3508L18.6219 10.5266ZM18.3638 8.63499C18.3637 8.59012 18.3636 8.54462 18.3636 8.49844C18.327 8.53272 18.294 8.56335 18.2637 8.59147C18.2638 8.63755 18.2639 8.6829 18.2641 8.72761C18.2816 8.71124 18.3001 8.6941 18.3198 8.67582C18.3338 8.66283 18.3484 8.64926 18.3638 8.63499ZM14.3272 11.0112C12.0253 13.3111 9.72223 15.612 7.41921 17.9152L14.3272 11.0112ZM5.75651 19.5749L5.82823 19.6445L5.75759 19.5738L5.75651 19.5749ZM5.33114 23.6133C5.33108 23.6132 5.33103 23.6132 5.33097 23.6131C5.33094 23.6131 5.33091 23.6131 5.33089 23.613L5.26001 23.6836L5.33114 23.6133ZM9.3166 27.6001C9.31653 27.6 9.31646 27.5999 9.31638 27.5999L9.24618 27.6711L9.3166 27.6001ZM24.3468 14.6363C24.3102 14.6759 24.2813 14.7072 24.256 14.7333C24.3009 14.7337 24.3464 14.734 24.3925 14.7342C24.4021 14.7239 24.4121 14.713 24.4227 14.7016C24.4416 14.6811 24.4622 14.6588 24.4849 14.6344C24.439 14.6344 24.3937 14.6342 24.349 14.634C24.3482 14.6348 24.3475 14.6355 24.3468 14.6363ZM18.1243 8.8614C18.1243 8.86137 18.1244 8.86134 18.1244 8.86131L18.0536 8.79062L18.1243 8.8614ZM9.56117 29.1076C9.64247 29.1462 9.72418 29.1851 9.80685 29.2261C9.61895 29.4071 9.43448 29.5924 9.24996 29.7776C8.78769 30.2418 8.32514 30.7062 7.80779 31.1066C6.06951 32.4393 3.56318 32.1308 2.12398 30.4842L2.12391 30.4841C0.659952 28.8129 0.719198 26.3195 2.25822 24.7329L2.25874 24.7324C2.61029 24.3645 2.97219 24.0087 3.34904 23.6382C3.49997 23.4898 3.6533 23.3391 3.80933 23.1842C3.91184 23.6442 4.13873 24.0056 4.41032 24.3223C4.56387 24.5014 4.73236 24.667 4.90048 24.8277C4.93544 24.8611 4.97034 24.8943 5.00508 24.9273C5.13848 25.054 5.26975 25.1787 5.3946 25.3084L5.39491 25.3087C5.98604 25.9172 6.5863 26.5129 7.18517 27.1071C7.42434 27.3445 7.66328 27.5816 7.90134 27.8192C7.975 27.8927 8.04922 27.9697 8.12454 28.0478C8.34137 28.2727 8.56731 28.507 8.81538 28.696L8.8171 28.6972C8.98349 28.8184 9.16619 28.916 9.35389 29.008C9.42293 29.0419 9.4919 29.0747 9.56117 29.1076ZM23.2063 13.5548L23.2063 13.5547H23.2022C23.2022 13.5547 23.1977 13.5544 23.1876 13.5494C23.1768 13.544 23.1634 13.535 23.1477 13.5219C23.1157 13.4954 23.0838 13.4601 23.0534 13.4255L23.0536 13.4253L23.0489 13.4206L23.0486 13.4203C21.895 12.2688 20.7417 11.1176 19.597 9.95788L19.5965 9.95735C19.5147 9.87571 19.4524 9.71217 19.4449 9.58396L19.4448 9.58216C19.4268 9.34913 19.4301 9.11403 19.4335 8.86351C19.4339 8.8361 19.4343 8.80851 19.4346 8.78071C21.0414 10.3845 22.6197 11.9602 24.2188 13.5639C24.1884 13.5641 24.1581 13.5642 24.1279 13.5644C23.8096 13.566 23.506 13.5675 23.2063 13.5548ZM28.1924 10.7414C27.3677 11.5723 26.5134 12.4253 25.6732 13.264C24.6891 12.2776 23.6989 11.2872 22.7078 10.2958L22.7061 10.294C21.7154 9.30309 20.7238 8.31117 19.7361 7.32123C20.1562 6.90167 20.5781 6.47853 20.9989 6.05644L21.0029 6.05243C21.4223 5.63186 21.8405 5.21235 22.2551 4.79833C24.2317 6.77139 26.2242 8.76039 28.1924 10.7414ZM29.8055 10.497C28.5935 9.28707 27.3774 8.07109 26.1613 6.85507C24.9452 5.63914 23.7292 4.42317 22.5171 3.21328L24.3212 1.41251C25.5249 2.61819 26.7389 3.83201 27.9548 5.04786L27.9643 5.05736C29.1773 6.27024 30.3923 7.48511 31.6013 8.69599C31.3053 8.99167 31.0043 9.29415 30.7034 9.59651L30.7032 9.59665L30.7029 9.59695C30.402 9.89932 30.1012 10.2016 29.8055 10.497Z" fill="white" stroke="white" stroke-width="0.2"/>
</svg>
