<svg width="29" height="33" viewBox="0 0 29 33" fill="none" xmlns="http://www.w3.org/2000/svg">
<path d="M28.9998 26.6516C28.9568 25.5178 28.9654 24.3754 28.9052 23.2416C28.8708 22.5631 28.8019 21.8673 28.6471 21.1974C28.3546 19.9176 27.2965 19.5311 26.2555 20.3299C25.8942 20.6047 25.6103 20.9912 25.2834 21.3005C25.12 21.4551 24.9221 21.6612 24.7242 21.687C24.2769 21.7471 23.8123 21.7041 23.3306 21.7041C23.3306 21.3005 23.3392 20.9311 23.3306 20.5532C23.322 20.1495 23.1585 19.9863 22.7628 19.9863C20.9906 19.9863 19.2184 19.9863 17.4463 19.9863C17.0247 19.9863 16.8613 20.1495 16.8613 20.5704C16.8527 20.9483 16.8613 21.3176 16.8613 21.7213C16.6978 21.7213 16.5774 21.7041 16.4483 21.7213C16.1644 21.7557 15.9838 21.6698 15.8289 21.4121C15.5795 21.017 15.1837 20.7937 14.7278 20.6992C14.5385 20.6563 14.3321 20.6563 14.2116 20.6391C14.4095 19.6513 14.6762 18.6807 14.7794 17.7015C14.9343 16.2242 14.3579 14.9959 13.1277 14.1542C11.9147 13.3296 10.5898 13.2437 9.28222 13.9137C8.52517 14.3088 7.84555 14.3174 7.09711 13.9137C5.69486 13.1664 3.9829 13.4155 2.82152 14.4892C1.67735 15.5542 1.39346 16.8856 1.66015 18.3715C1.74618 18.8525 1.86661 19.3249 1.96985 19.8059C0.903102 20.0207 0.429949 20.5102 0.266496 21.5667C-0.0173963 23.4564 -0.000190675 25.3546 0.0170149 27.2528C0.0170149 27.3301 0.0342205 27.3988 0.0428233 27.4761C0.283701 28.7903 1.13538 29.6492 2.19352 30.3535C2.4344 30.5082 2.64947 30.4137 2.80432 30.1989C2.95917 29.9756 2.95057 29.7523 2.72689 29.5719C2.443 29.34 2.1419 29.1339 1.88382 28.8848C1.36765 28.3866 0.963322 27.8025 0.980527 27.0639C1.00634 25.4834 1.06656 23.9116 1.12677 22.3312C1.13538 22.0134 1.2128 21.6956 1.29023 21.3863C1.37626 21.0685 1.68596 20.8366 1.96985 20.828C2.31396 20.8195 2.40859 21.0771 2.50322 21.3348C2.69248 21.8158 2.87314 22.2968 3.0624 22.7778C3.58717 24.1006 4.13775 25.4233 4.37863 26.8405C4.41304 27.0295 4.49047 27.2099 4.57649 27.3817C4.97222 28.1375 5.75507 28.2835 6.40889 27.7338C6.78741 27.4246 7.01108 27.0037 7.14873 26.5485C7.31218 26.0246 7.45843 25.5006 7.61328 24.9767C7.6735 24.7705 7.73372 24.5644 7.79394 24.3582C7.85416 24.1521 7.95739 23.9202 8.18966 23.9803C8.34451 24.0147 8.46495 24.2294 8.57679 24.3754C8.6198 24.4269 8.6198 24.5128 8.64561 24.5901C8.83487 25.2515 9.02413 25.9043 9.222 26.5657C9.36825 27.0467 9.60912 27.4761 10.0221 27.7854C10.6501 28.2664 11.3899 28.1203 11.7684 27.4246C11.8889 27.2099 11.9749 26.9694 12.0179 26.7375C12.2846 25.1656 12.947 23.7312 13.5234 22.271C13.6782 21.8845 13.9707 21.6784 14.3923 21.6612C14.788 21.6526 15.0289 21.8588 15.1837 22.2109C15.3386 22.5631 15.6225 22.7177 16.001 22.7177C16.6118 22.7091 17.2226 22.7177 17.8334 22.7177C17.9366 22.7177 18.0399 22.7263 18.1517 22.7349C18.2291 23.2588 18.2979 23.757 18.3668 24.2552C18.556 25.5693 18.7453 26.8921 18.9345 28.2062C18.9862 28.5412 19.141 28.8075 19.4335 28.9964C20.2508 29.5204 21.2315 29.0566 21.3691 28.0602C21.5154 26.9951 21.6444 25.9301 21.7821 24.865C21.8767 24.1521 21.9713 23.4478 22.066 22.7177C22.823 22.7177 23.5542 22.7005 24.2769 22.7263C25.1028 22.752 25.7221 22.4428 26.1867 21.7557C26.3588 21.498 26.5738 21.2661 26.8061 21.06C27.1244 20.7851 27.4427 20.8452 27.6234 21.2231C27.7352 21.4551 27.8126 21.7299 27.8212 21.9876C27.9073 23.5423 27.9503 25.0969 28.0363 26.6516C28.0879 27.6307 27.7008 28.4038 26.9782 29.0308C26.6513 29.3142 26.2899 29.5805 25.9114 29.8038C24.1478 30.8174 22.2036 31.2898 20.2164 31.6162C17.7043 32.0285 15.1837 32.1401 12.6459 32.0113C10.0651 31.8738 7.52725 31.5303 5.06685 30.7057C4.68833 30.5769 4.44745 30.6628 4.34422 30.9462C4.23238 31.2554 4.37003 31.4787 4.75715 31.6162C6.84763 32.3463 8.99833 32.7414 11.2006 32.9132C11.6824 32.9561 12.1555 32.999 12.6373 33.0334H15.8547C16.0698 33.0162 16.2763 32.9819 16.4914 32.9733C18.9862 32.8358 21.4466 32.518 23.8295 31.7536C25.206 31.307 26.5222 30.7487 27.6234 29.7695C28.5353 28.9191 29.0514 27.9228 28.9998 26.6516ZM13.1277 20.5188C12.9298 21.0342 12.7147 21.5495 12.5083 22.0649C11.9749 23.4134 11.5189 24.7877 11.149 26.1877C11.063 26.5056 10.8823 27.2099 10.4522 26.8663C10.1855 26.6516 10.0737 26.2221 9.98765 25.9129C9.80699 25.2601 9.75537 24.5558 9.43707 23.9545C9.11876 23.3533 8.44775 22.8465 7.80254 23.0527C7.3638 23.1901 7.0713 23.6024 6.89064 24.0233C6.50352 24.9079 6.48631 25.9301 6.02176 26.7804C5.95294 26.9007 5.85831 27.0381 5.71206 27.0553C5.46258 27.081 5.34214 26.7632 5.29913 26.5141C4.82597 23.7312 3.14843 21.2661 2.67528 18.4832C2.54623 17.7015 2.51182 16.877 2.82152 16.1469C3.26887 15.0818 4.47326 14.3861 5.62603 14.5321C6.50352 14.6438 7.31218 15.1935 8.19827 15.1849C9.03274 15.1763 9.78978 14.6781 10.6157 14.5493C11.7426 14.3775 12.947 14.9702 13.4718 15.9751C13.7987 16.6193 13.8589 17.3666 13.7815 18.0881C13.6868 18.9212 13.4288 19.7286 13.1277 20.5188ZM20.7325 25.4491C20.6293 26.2565 20.5175 27.0639 20.4142 27.8712C20.3884 28.0516 20.354 28.232 20.1303 28.232C19.9067 28.232 19.8723 28.0516 19.8464 27.8712C19.6142 26.2307 19.3819 24.5901 19.1496 22.941C19.141 22.8723 19.141 22.795 19.141 22.7091H21.0766C20.9562 23.6453 20.8444 24.5472 20.7325 25.4491ZM22.3499 21.7041H17.8506V20.9741H22.3499V21.7041Z" fill="white"/>
<path d="M26.5478 2.73948C26.4446 2.42168 26.2467 2.30143 25.9714 2.37873C25.6703 2.45604 25.5413 2.67936 25.6273 2.99716C25.7993 3.61559 25.7649 4.22543 25.6531 4.84386C25.3864 6.3298 24.7842 7.71267 24.2508 9.11273C24.1648 9.33605 23.9842 9.43053 23.7347 9.42194C21.3087 9.42194 18.8827 9.42194 16.4567 9.42194C16.1642 9.42194 16.0008 9.2931 15.8975 9.03542C15.7169 8.56301 15.5276 8.09919 15.347 7.62678C14.9512 6.53594 14.5555 5.44511 14.4437 4.28555C14.3318 3.14318 14.6932 2.18118 15.6481 1.51122C16.5944 0.849843 17.6181 0.806896 18.6246 1.34802C19.6053 1.88056 20.5517 1.87197 21.5324 1.34802C22.4012 0.8842 23.2959 0.867021 24.1906 1.31366C24.5347 1.48545 24.7842 1.41673 24.9219 1.1247C25.0509 0.849843 24.9649 0.609343 24.6208 0.463325C24.01 0.205647 23.3734 -0.0348529 22.7023 0.0166828C21.9883 0.0682184 21.3775 0.411789 20.7237 0.660878C20.2936 0.824075 19.872 0.832664 19.4419 0.669468C19.0118 0.497682 18.573 0.334486 18.1343 0.17129C16.9901 -0.258174 15.6223 0.197058 14.7448 0.978682C13.5404 2.06093 13.2823 3.4438 13.5232 4.97269C13.7813 6.59607 14.4437 8.0906 15.0717 9.59373C15.2867 10.1091 15.7427 10.3582 16.3019 10.3839C16.5944 10.4011 16.8869 10.4011 17.1708 10.3839C17.3858 10.3753 17.4632 10.4441 17.4977 10.6588C17.8246 12.4282 18.1601 14.1976 18.5042 15.967C18.616 16.5596 18.9687 16.9719 19.5537 17.1609C20.5689 17.4873 21.4549 16.886 21.67 15.7436C21.9883 14.0344 22.3152 12.3337 22.6249 10.6244C22.6593 10.4355 22.7282 10.3753 22.9174 10.3839C23.2185 10.4011 23.5196 10.4011 23.8207 10.3839C24.3799 10.3582 24.8272 10.1091 25.0509 9.59373C25.6445 8.20226 26.2467 6.8108 26.5392 5.32486C26.7371 4.45734 26.8231 3.59841 26.5478 2.73948ZM18.4698 10.4011H19.9839C19.5623 10.8134 19.1408 11.2257 18.7021 11.6466C18.6332 11.2515 18.5558 10.8392 18.4698 10.4011ZM20.7839 15.4258C20.7581 15.5719 20.7323 15.7179 20.6807 15.8639C20.5947 16.1473 20.3882 16.2762 20.0957 16.2762C19.8118 16.2762 19.6053 16.1473 19.5107 15.8725C19.4075 15.589 19.4161 15.3657 19.6742 15.1338C20.1387 14.7129 20.5603 14.2491 21.0076 13.8025C21.0334 13.8196 21.0592 13.8282 21.085 13.8454C20.9732 14.3608 20.8786 14.8933 20.7839 15.4258ZM21.4291 11.9644C21.4205 12.0159 21.3775 12.0588 21.3431 12.0932C20.6463 12.7889 19.9495 13.4847 19.201 14.2319C19.115 13.7681 19.029 13.3558 18.9601 12.9435C18.9515 12.8834 19.0376 12.7975 19.0978 12.7374C19.829 11.9987 20.5689 11.26 21.3087 10.53C21.4033 10.4441 21.541 10.4011 21.7388 10.3066C21.627 10.9422 21.5324 11.449 21.4291 11.9644Z" fill="white"/>
<path d="M17.9368 2.404C17.954 2.69603 17.7733 2.87641 17.4464 2.91076C16.8098 2.97948 16.4485 3.33164 16.3711 3.98442C16.328 4.32799 16.1646 4.4826 15.8635 4.47401C15.5624 4.45683 15.3989 4.25928 15.4075 3.93289C15.4334 2.885 16.3625 1.96594 17.3948 1.95735C17.7303 1.94876 17.9282 2.11196 17.9368 2.404Z" fill="white"/>
<path d="M5.60028 16.4054C4.81743 16.5342 4.56795 16.7919 4.45611 17.5477C4.4131 17.8226 4.21523 17.9944 3.95715 17.9772C3.68186 17.96 3.5012 17.7625 3.5012 17.4618C3.484 16.4139 4.45611 15.4434 5.52286 15.4434C5.82395 15.4434 6.00461 15.598 6.03042 15.8642C6.05623 16.1563 5.90138 16.3538 5.60028 16.4054Z" fill="white"/>
</svg>
