<svg width="33" height="33" viewBox="0 0 33 33" fill="none" xmlns="http://www.w3.org/2000/svg">
<path d="M31.7517 8.22849C30.9251 7.39336 30.0902 6.55823 29.2553 5.73145C28.8963 5.37235 28.5623 5.37235 28.2033 5.7398C27.9445 6.00704 27.7023 6.28264 27.4352 6.57493C26.283 5.42245 25.1976 4.32843 24.1039 3.24277C23.9369 3.07574 23.7365 2.89201 23.5278 2.85026C23.3274 2.8085 23.0936 2.94212 22.8599 3.00058C22.8515 2.97553 22.8348 2.91707 22.8265 2.85026C22.409 0.470141 19.7623 -0.757498 17.7001 0.503546C17.2326 0.78749 16.8401 1.22176 16.431 1.60592C16.0887 1.93162 16.0887 2.23226 16.3809 2.59137C16.8652 3.18431 16.8318 3.83571 16.2891 4.38689C15.905 4.7794 15.5126 5.16356 15.1202 5.55607C13.2751 7.41006 13.2751 10.0825 15.1286 11.9365C16.0887 12.8969 17.0405 13.8489 18.0007 14.8093C18.0758 14.8845 18.151 14.968 18.2428 15.0682C17.483 15.3939 16.7316 15.5025 15.9551 15.5275C13.943 15.5776 12.2064 16.2958 10.7787 17.7323C7.59769 20.9141 4.40833 24.0876 1.21062 27.2611C0.659579 27.8039 0.158633 28.3551 0 29.1401V29.8917C0.075142 30.1172 0.141935 30.3427 0.233775 30.5598C0.567739 31.2947 1.14383 31.7457 1.92029 31.9545C1.98709 31.9712 2.05388 31.9962 2.12067 32.0213H2.87209C3.27285 31.8376 3.74875 31.729 4.05767 31.4451C5.118 30.4763 6.11989 29.4408 7.13014 28.4219C7.38061 28.1714 7.35556 27.8206 7.12179 27.5784C6.88801 27.3362 6.52065 27.3279 6.24513 27.5617C6.17834 27.6202 6.11155 27.6953 6.04475 27.7538C5.1681 28.6307 4.29144 29.5076 3.40644 30.3761C3.04742 30.7352 2.61327 30.8688 2.12067 30.7101C1.65312 30.5598 1.36925 30.2341 1.26906 29.7581C1.16887 29.2654 1.36925 28.8729 1.71992 28.5221C5.03451 25.2234 8.34911 21.9329 11.6387 18.6342C12.8409 17.4316 14.2853 16.8136 15.9718 16.7886C18.0257 16.7551 19.7456 15.9868 21.1817 14.5337C23.6029 12.0951 26.0409 9.66491 28.4705 7.23468C28.5539 7.15117 28.5957 7.0426 28.6207 6.9925C29.2636 7.63554 29.8481 8.21178 30.4742 8.82978C30.3907 8.88824 30.2822 8.95505 30.1987 9.04691C27.4268 11.8112 24.6466 14.5755 21.8914 17.3564C20.6557 18.6091 19.2113 19.2772 17.4413 19.2856C16.214 19.2939 15.0534 19.6113 13.9764 20.2126C12.4402 21.0811 11.3798 22.4758 10.1525 23.6867C10.0356 23.7953 10.0607 24.1293 10.1191 24.3214C10.1943 24.5636 10.4447 24.6889 10.7036 24.6304C10.8789 24.5887 11.0542 24.4884 11.1795 24.3715C11.8307 23.7452 12.4819 23.1105 13.1081 22.4591C14.3521 21.1563 15.88 20.5466 17.6584 20.5216C19.5286 20.4965 21.1399 19.8368 22.4591 18.5173C25.5566 15.444 28.6374 12.3457 31.7266 9.26404C32.094 8.90494 32.1023 8.58759 31.7517 8.22849ZM15.7715 6.7002C16.1639 6.26593 16.5813 5.86507 16.9988 5.45586C18.0424 4.4203 18.2178 3.52671 17.6417 2.1738C18.2678 1.43054 19.0527 1.07978 20.0212 1.34703C20.9062 1.58921 21.4405 2.19886 21.5991 3.1008C21.7244 3.7856 21.549 4.4203 21.0564 4.92138C19.228 6.76701 17.3745 8.59594 15.521 10.4499C14.7362 9.39767 14.8447 7.72741 15.7715 6.7002ZM19.5286 14.4752C18.4348 13.3812 17.4329 12.3707 16.4394 11.3769C16.9821 10.8424 17.5665 10.2662 18.1259 9.71501C19.1111 10.7005 20.1297 11.7193 21.0648 12.663C20.5639 13.256 20.0379 13.874 19.5286 14.4752ZM22.1084 11.7611L19.0694 8.72121C19.6204 8.17003 20.1965 7.59379 20.7475 7.0426C21.7578 8.05311 22.7764 9.07197 23.7866 10.0825C23.2272 10.6504 22.6511 11.2182 22.1084 11.7611ZM24.7301 9.13042C23.7282 8.12827 22.7179 7.11776 21.7327 6.13231C22.3088 5.56443 22.8849 4.98819 23.4443 4.437C24.4128 5.40575 25.4314 6.42461 26.4333 7.42676C25.8906 7.9696 25.3145 8.54583 24.7301 9.13042Z" fill="white"/>
<path d="M9.29231 26.0171C9.28396 26.3512 9.00009 26.6351 8.66613 26.6351C8.32381 26.6351 8.05664 26.3595 8.05664 26.0171C8.05664 25.6747 8.31546 25.3992 8.65778 25.3908C9.00009 25.3824 9.30066 25.6747 9.29231 26.0171Z" fill="white"/>
</svg>
