<svg width="33" height="33" viewBox="0 0 33 33" fill="none" xmlns="http://www.w3.org/2000/svg">
<g clip-path="url(#clip0_483_25192)">
<path d="M32.9917 16.4526C32.9917 16.2284 32.8625 16.0559 32.6559 15.9783C32.4579 15.9007 32.2513 15.9266 32.0877 16.0732C32.0274 16.1249 31.9758 16.1767 31.9241 16.2284C29.4446 18.7032 26.9737 21.1866 24.5028 23.6614C24.4769 23.6959 24.4425 23.7217 24.4167 23.7562C24.1584 24.0408 24.1498 24.3253 24.4081 24.6099C24.4769 24.6875 24.5544 24.7737 24.6405 24.8341C24.8041 24.9548 24.7869 25.041 24.6405 25.1876C24.0809 25.7309 23.5127 26.2741 22.9875 26.8605C22.7378 27.1364 22.557 27.1192 22.2385 26.9726C20.3702 26.1017 18.5278 26.162 16.7973 27.3175C15.084 28.4643 14.9549 30.4907 16.4702 31.8273C17.1675 32.4481 18.0371 32.7931 18.9497 32.9224C19.8365 33.0518 20.7663 33 21.6186 32.7068C22.0233 32.5689 22.4107 32.3792 22.7637 32.1377C24.2531 31.1461 24.6922 29.4129 23.5988 28.0332C23.4696 27.878 23.573 27.809 23.6677 27.7228C24.2014 27.1882 24.7266 26.6622 25.2604 26.1275C25.5876 25.7999 25.5876 25.7999 25.9233 26.1362C26.2677 26.4725 26.5518 26.4811 26.8962 26.1362C28.8505 24.1874 30.7963 22.23 32.7506 20.2812C32.8798 20.1518 33.0089 20.0052 33.0089 19.8155C33.0003 18.6946 33.0003 17.5736 32.9917 16.4526ZM25.6651 24.3253L25.6564 24.3167C25.622 24.2822 25.579 24.2391 25.5876 24.1874C25.5876 24.1443 25.622 24.1098 25.6564 24.0839C26.3969 23.3423 27.1373 22.6007 27.8777 21.8592C28.6181 21.1176 29.3585 20.376 30.0989 19.6345C30.4691 19.2637 30.8393 18.8929 31.2095 18.5221C31.3903 18.3324 31.5797 18.1513 31.7605 17.9616C31.795 17.9271 31.8294 17.8668 31.8811 17.9012C31.9155 17.9271 31.9069 17.9961 31.9155 18.0306C31.9672 18.3755 31.9155 18.7204 31.9241 19.074C31.9241 19.2378 31.9327 19.4103 31.8552 19.5655C31.8036 19.6776 31.7175 19.7638 31.6314 19.85C29.8837 21.5919 28.1446 23.3423 26.3969 25.0842C26.1472 24.8255 25.9061 24.5754 25.6651 24.3253ZM19.7848 31.9049C18.7431 31.8532 17.7357 31.629 16.9867 30.8012C16.2808 30.0165 16.3582 29.0766 17.1761 28.404C18.2351 27.5331 19.4662 27.3606 20.7749 27.6107C21.4895 27.7486 22.1438 28.0418 22.6345 28.6109C23.3233 29.4042 23.2286 30.3269 22.4193 31.0081C21.6703 31.6462 20.7663 31.8618 19.7848 31.9049Z" fill="white"/>
<path d="M12.5267 15.3994C12.3804 15.3218 12.2082 15.2959 12.0446 15.3218C11.7175 15.3735 11.442 15.5632 11.1406 15.7012C10.7962 15.8564 10.4088 15.934 10.0386 15.8564C9.66841 15.7702 9.33264 15.5029 9.23794 15.1407C9.04853 14.4595 9.70284 13.8214 9.72867 13.1229C9.7545 12.4159 9.16906 11.8554 8.64388 11.3811C8.13593 10.9241 7.64519 10.4584 7.17167 9.97556C7.07696 9.88071 6.97365 9.76861 6.95643 9.62202C6.9306 9.29435 7.3869 9.17363 7.5677 8.90632C7.70545 8.70799 7.68823 8.43206 7.57631 8.20786C7.46439 7.98366 7.28359 7.81983 7.1114 7.64737C6.77563 7.32832 6.43126 7.00927 6.09549 6.69022C5.95774 6.56088 5.81138 6.39704 5.85442 6.21596C5.88025 6.12111 5.94913 6.0435 5.99217 5.94865C6.12132 5.65547 5.88886 5.34504 5.67362 5.11222C4.21002 3.55147 2.7378 1.99934 1.2742 0.43859C1.0934 0.248885 0.895382 0.0505572 0.645708 -0.00980335C0.404644 -0.0442951 0.163579 0.0764261 0.077485 0.300622C0.0258283 0.429967 0.0258283 0.559311 0.0258283 0.697278C0.0258283 0.869737 0.0258283 1.05082 0.0258283 1.22328C0.0258283 1.92174 0.0172189 2.62019 0.0172189 3.31865C0.0172189 4.01711 0.00860945 4.71557 0.00860945 5.41403C0.00860945 5.91416 0 6.41429 0 6.91442C0 7.24209 0 7.58701 0.137751 7.88881C0.284112 8.20786 0.568223 8.44068 0.843726 8.65625C1.14506 8.89769 1.44639 9.13051 1.74772 9.36333C1.96295 9.53579 2.27289 9.70825 2.49674 9.53579C2.57422 9.47543 2.62588 9.3892 2.72058 9.36333C2.8239 9.33746 2.92721 9.42369 3.0047 9.5013C3.40073 9.90658 3.79677 10.3205 4.1928 10.7258C4.48552 11.0276 4.91599 11.3552 5.2862 11.1483C5.44978 11.0534 5.54448 10.8723 5.66502 10.7258C5.78555 10.5792 5.98356 10.4498 6.16436 10.5188C6.23324 10.5447 6.2935 10.605 6.34516 10.6568C7.02531 11.338 7.70545 12.0192 8.3856 12.7004C8.46309 12.778 8.54057 12.8556 8.57501 12.9505C8.66971 13.1919 8.49752 13.4506 8.36838 13.6748C8.01539 14.3215 8.00678 15.1493 8.35977 15.796C8.71276 16.4428 9.40151 16.8998 10.1333 16.9601C10.7962 17.0119 11.4333 16.7704 12.0532 16.5376C12.4234 16.3997 12.8625 16.141 12.8109 15.7443C12.7936 15.5977 12.6817 15.477 12.5267 15.3994ZM6.25907 8.64763C5.87164 9.03566 5.48422 9.41507 5.1054 9.81173C5.00209 9.92382 4.93321 9.92382 4.8299 9.81173C4.45108 9.41507 4.06366 9.02704 3.66762 8.65625C3.54709 8.53553 3.58153 8.48379 3.67623 8.38032C4.06366 8.00953 4.43386 7.6215 4.81268 7.25071C4.88156 7.18173 4.94182 7.06963 5.06235 7.19897C5.467 7.61288 5.88025 8.01815 6.28489 8.43206C6.31072 8.45792 6.33655 8.49242 6.36238 8.52691C6.32794 8.5614 6.30211 8.60451 6.25907 8.64763ZM2.006 8.20786C1.79076 8.10438 1.57553 7.83707 1.47222 7.70773C1.12784 7.26796 1.07618 6.74196 1.10201 6.19871C1.16228 4.76731 1.11923 3.3359 1.11923 1.90449C1.31725 2.11144 1.46361 2.26665 1.60997 2.42187C2.59144 3.46524 3.57292 4.51724 4.56301 5.56062C4.69215 5.69858 4.7438 5.77619 4.58022 5.94003C3.8312 6.66435 3.09079 7.41455 2.35038 8.16474C2.24707 8.26822 2.12653 8.26822 2.006 8.20786Z" fill="white"/>
<path d="M19.8191 25.2733C19.6986 25.3164 19.5609 25.325 19.4403 25.3595C19.2165 25.4199 18.9926 25.394 18.9152 25.1439C18.8549 24.937 18.8635 24.7042 18.8377 24.4886C18.8032 24.2299 18.7602 23.9712 18.7257 23.7211C18.6397 23.2038 18.5449 22.695 18.4589 22.1863C18.4502 22.1173 18.433 22.0569 18.4244 21.9879C18.3383 21.4792 18.2522 20.979 18.1747 20.4703C18.1317 20.2202 18.0886 19.9615 18.0542 19.7115C18.037 19.5908 18.0112 19.4614 17.9939 19.3407C17.9767 19.22 17.9337 19.0906 17.9337 18.9699C17.7701 17.961 17.0039 17.3919 16.1257 17.6592C15.6005 17.8144 15.2561 18.1766 15.1614 18.7198C14.9376 19.9788 14.731 21.2377 14.5243 22.4967C14.1627 24.6352 13.8356 26.7737 13.4309 28.9035C13.2157 30.0504 12.2342 30.7661 11.0633 30.8006C9.84081 30.8351 8.77324 29.8952 8.60105 28.619C8.14475 25.2819 7.68845 21.9362 7.24075 18.5991C7.21493 18.4267 7.16327 18.2714 7.06857 18.1249C6.07848 16.5296 5.33807 14.8309 4.89038 13.0028C4.85594 12.8476 4.94203 12.7355 5.08839 12.6838C5.30363 12.6148 5.66523 12.4596 5.87185 12.5889C6.06987 12.7096 6.04404 13.0718 6.11292 13.3305C6.49173 14.7015 7.04274 16.0036 7.80037 17.2022C8.13614 17.7368 8.30833 18.2887 8.39442 18.9095C8.79906 21.9879 9.22093 25.0577 9.63418 28.1361C9.6514 28.2654 9.66862 28.3862 9.69444 28.5155C9.79776 29.214 10.3488 29.7055 11.0375 29.7141C11.6918 29.7227 12.2687 29.2571 12.3978 28.5759C12.5442 27.8084 12.6561 27.0324 12.7852 26.2563C13.2157 23.6953 13.629 21.1343 14.0766 18.5732C14.2747 17.435 15.1528 16.6417 16.2548 16.521C17.3482 16.4089 18.3642 16.9952 18.8118 18.03C19.0271 18.5301 19.0615 19.0734 19.1562 19.5994C19.4575 21.3757 19.7503 23.152 20.0516 24.937C20.0688 25.0405 20.0946 25.1525 19.9913 25.2215C19.9311 25.2302 19.8708 25.256 19.8191 25.2733Z" fill="white"/>
<path d="M28.5914 9.40612C28.557 11.5791 28.1007 13.6659 27.257 15.6578C26.9126 16.4769 26.4993 17.2702 26.0172 18.0118C25.6987 18.5033 25.7589 19.0638 25.6642 19.5984C25.5609 20.1676 25.492 20.7453 25.4232 21.323C25.4059 21.4696 25.3629 21.53 25.2079 21.4955C24.9755 21.4437 24.743 21.4093 24.5106 21.392C24.3642 21.3748 24.3125 21.3489 24.3384 21.1764C24.4847 20.202 24.6139 19.219 24.743 18.2446C24.7774 18.0118 24.8549 17.8135 24.9841 17.6238C26.0258 15.994 26.7835 14.235 27.1709 12.3379C27.455 10.941 27.6358 9.53547 27.4205 8.11268C27.0848 5.91383 25.3112 3.99091 23.1417 3.45629C21.9277 3.15449 20.731 3.20623 19.5773 3.67186C18.4065 4.14613 17.2097 4.39619 15.9355 4.29272C15.0832 4.22373 14.2825 3.96505 13.4819 3.68049C11.1315 2.83544 9.03938 3.29246 7.22279 5.00842C7.05921 5.16363 6.96451 5.1895 6.82675 5.00842C6.76649 4.93081 6.689 4.87908 6.61152 4.81009C6.18966 4.43068 6.18105 4.42206 6.62013 4.03403C8.76388 2.16285 11.1745 1.66272 13.8521 2.63711C14.8852 3.01652 15.9183 3.27521 17.0203 3.18898C17.7694 3.12862 18.4667 2.90442 19.1555 2.64574C22.7112 1.3178 26.4477 2.86993 28.0232 6.32773C28.4623 7.30212 28.6259 8.33688 28.5914 9.40612Z" fill="white"/>
</g>
<defs>
<clipPath id="clip0_483_25192">
<rect width="33" height="33" fill="white"/>
</clipPath>
</defs>
</svg>
