<svg width="36" height="19" viewBox="0 0 36 19" fill="none" xmlns="http://www.w3.org/2000/svg">
<path d="M35.9227 5.99041C36.1266 3.99552 35.557 2.00062 33.7148 0.83693C33.1805 0.504448 32.5828 0.268939 31.9641 0.151185C30.2836 -0.174371 28.7297 0.158111 27.3164 1.10015C25.2703 -0.160518 23.1328 -0.43066 21.0023 0.767663C18.7453 2.04218 18.4078 4.17561 18.7031 6.49606H17.2969C17.5922 4.15483 17.2477 2.03525 14.9977 0.767663C12.8672 -0.43066 10.7297 -0.160518 8.67656 1.10015C7.36875 0.220452 5.92031 -0.139738 4.34531 0.102698C2.32734 0.4144 0.9 1.46034 0.260156 3.4206C0.140625 3.78079 0.084375 4.15483 0 4.52195V5.83802C0.05625 6.14973 0.1125 6.46836 0.175781 6.78006C0.386719 7.83292 0.7875 8.80266 1.35703 9.71699C1.41328 9.81396 1.46953 9.91094 1.53281 10.0356C0.991406 10.1395 0.351562 9.85552 0 10.472V10.8183C0.175781 11.1577 0.464062 11.2686 0.84375 11.2478C1.23047 11.227 1.61719 11.227 2.00391 11.2547C2.10938 11.2616 2.27813 11.3517 2.31328 11.4487C2.50313 11.9405 2.71406 12.4392 2.81953 12.9518C3.05859 14.1362 3.19922 15.3415 3.46641 16.519C3.60703 17.1355 3.85313 17.7658 4.21172 18.2853C4.93594 19.3451 6.23672 19.2412 6.77109 18.0775C7.15781 17.2463 7.41797 16.3597 7.65703 15.4731C7.88203 14.6419 7.98047 13.776 8.16328 12.9379C8.21953 12.6678 8.36719 12.3769 8.69063 12.3699C9.02812 12.3561 9.13359 12.6608 9.24609 12.9171C9.26719 12.9725 9.27422 13.028 9.28828 13.0834C9.37969 13.5821 9.47813 14.0808 9.56953 14.5726C9.80156 15.8056 10.0406 17.0385 10.6594 18.1607C11.1938 19.1235 12.1852 19.3036 12.9797 18.5416C13.2539 18.2784 13.5141 17.9252 13.6195 17.5719C13.9078 16.5883 14.1539 15.5978 14.3367 14.5934C14.5195 13.5544 14.5898 12.4877 15.075 11.5179C15.1312 11.4071 15.3 11.2755 15.4195 11.2755C17.1422 11.2616 18.8648 11.2616 20.5875 11.2755C20.7 11.2755 20.8828 11.3863 20.918 11.4833C21.1148 12.0097 21.3258 12.5431 21.4383 13.0903C21.6422 14.0808 21.7617 15.0921 21.9516 16.0826C22.1063 16.9 22.3031 17.7104 22.8516 18.3754C23.5969 19.2897 24.8062 19.2066 25.3406 18.1607C25.6219 17.6135 25.868 17.0247 26.0227 16.429C26.3039 15.3138 26.4938 14.1778 26.7328 13.0487C26.8172 12.6401 27.0844 12.3214 27.3164 12.363C27.6891 12.4184 27.8086 12.7301 27.8789 13.0349C28.0055 13.6098 28.0969 14.1847 28.2023 14.7666C28.4273 15.9441 28.6734 17.1147 29.2711 18.1814C29.7984 19.1235 30.8039 19.3105 31.5703 18.5486C31.9148 18.2022 32.2031 17.7312 32.3367 17.2602C32.618 16.3043 32.8148 15.3138 32.9766 14.3302C33.1383 13.3674 33.2438 12.3907 33.6797 11.4902C33.7641 11.324 33.8484 11.2478 34.0453 11.2547C34.418 11.2686 34.7977 11.2409 35.1703 11.2616C35.543 11.2824 35.8383 11.1785 36.0141 10.8322V10.4859C35.6555 9.8763 35.0438 10.1464 34.4813 10.0564C34.5445 9.93864 34.6008 9.82782 34.6641 9.73084C35.3109 8.63642 35.7891 7.31342 35.9227 5.99041ZM11.3695 4.86828C11.3695 4.83365 11.3695 4.80594 11.3625 4.77131C11.3555 4.59121 11.3344 4.38341 11.1867 4.27258C11.0742 4.18946 10.9195 4.18254 10.7789 4.18254C9.54141 4.17561 8.30391 4.16176 7.05938 4.15483C6.70781 4.15483 6.28594 4.18254 6.09609 4.48039C5.85703 4.86136 6.17344 5.40164 5.94141 5.78954C5.16094 5.67178 4.37344 5.56095 3.59297 5.4432C3.33984 5.40857 3.07969 5.37393 2.84063 5.4432C2.60156 5.51939 2.38359 5.74105 2.40469 5.99041C2.43984 6.34367 2.87578 6.48914 3.23438 6.5584C4.14141 6.71772 5.04141 6.88396 5.94844 7.04327C5.97656 7.68053 6.01172 8.31779 6.03984 8.95505C6.04688 9.08666 6.05391 9.22519 6.13828 9.32217C6.25078 9.45377 6.45469 9.46763 6.63047 9.46763C8.02266 9.46763 9.40781 9.46763 10.8 9.47455C10.9266 9.47455 11.0602 9.47455 11.1656 9.39836C11.3063 9.29446 11.3273 9.10744 11.3414 8.93427C11.3766 8.46325 11.4117 7.99916 11.4469 7.52814C12.8813 7.59741 14.3227 7.66668 15.757 7.73595C14.3578 9.86245 13.4016 12.2729 13.0148 14.7735C12.8461 15.8471 12.7406 17.0316 11.9461 17.7797C10.8492 16.5121 10.9688 14.6557 10.5188 13.0557C10.3711 12.5154 10.1391 11.982 9.72422 11.5941C9.30937 11.2062 8.69063 11.0054 8.15625 11.2062C7.61484 11.414 7.29844 11.9682 7.10156 12.5015C6.44766 14.2401 6.48281 16.2212 5.50547 17.8005C4.6125 17.0732 4.54922 15.7779 4.37344 14.6488C4.10625 12.9033 3.41719 11.2478 2.65781 9.64772C2.03906 8.3455 1.35703 7.02942 1.21641 5.60252C1.06875 4.07864 1.68047 2.60324 3.02344 1.78589C4.43672 0.920051 6.56016 1.17634 7.89609 2.04911C8.08594 2.17379 8.26875 2.3054 8.48672 2.35388C8.90859 2.437 9.30234 2.16686 9.675 1.94521C11.2641 0.989318 13.493 0.933904 14.8852 2.15301C16.0031 3.12968 16.3898 4.77131 16.0383 6.19821C16.0172 6.28826 15.9891 6.38523 15.9117 6.44065C15.8273 6.50299 15.7148 6.50299 15.6164 6.49606C14.2242 6.43372 12.832 6.37138 11.4398 6.30904C11.4187 5.83802 11.3906 5.35315 11.3695 4.86828ZM10.1813 7.42424V8.26238H7.21406V7.14717C8.2125 7.24415 9.18984 7.3342 10.1813 7.42424ZM7.22109 5.95578V5.36701H10.1813V6.23285C9.18984 6.1428 8.2125 6.05275 7.22109 5.95578ZM15.8836 10.0425C16.1367 9.5646 16.3758 9.10744 16.6148 8.6572C16.6852 8.52559 16.7484 8.38706 16.8047 8.24852C17.0156 7.70131 17.0156 7.70131 17.5922 7.70131C17.993 7.70131 18.3867 7.69438 18.7875 7.70131C18.8789 7.70131 19.0125 7.74287 19.0477 7.80521C19.3992 8.53944 19.7297 9.2806 20.0742 10.0356H15.8836V10.0425ZM33.6656 8.94812C33.1312 10.0218 32.5336 11.0677 32.182 12.2106C31.7953 13.4436 31.7109 14.7458 31.4297 16.0065C31.282 16.6645 31.0641 17.3572 30.5437 17.8005C30.0586 17.2186 29.8687 16.4567 29.7 15.7225C29.5031 14.8843 29.2992 14.0462 29.1023 13.2081C28.9125 12.4115 28.6172 11.4902 27.8367 11.2062C27.0914 10.9361 26.2477 11.4279 25.8398 12.0998C25.432 12.7717 25.3406 13.5752 25.207 14.344C25.0312 15.3623 24.7711 16.3666 24.4266 17.3433C24.307 17.6827 23.9203 17.9667 23.7023 17.5303C22.9289 15.9441 22.9359 14.1085 22.4719 12.4046C22.0219 10.7283 21.1219 9.21134 20.2359 7.71517C21.6844 7.65282 23.1328 7.59048 24.5813 7.52122C24.5742 7.99223 24.5953 8.47018 24.6445 8.9412C24.6586 9.0728 24.6797 9.21826 24.7711 9.32217C24.8977 9.46763 25.1227 9.48148 25.3125 9.48148C26.6063 9.48148 27.9 9.48148 29.1938 9.48148C29.4188 9.48148 29.6789 9.46763 29.8336 9.30831C29.9672 9.16285 29.9813 8.94812 29.9883 8.74725C30.0023 8.17926 30.0094 7.61126 30.0234 7.04327C30.9305 6.89088 31.8445 6.73157 32.7516 6.57918C33.1312 6.51684 33.5883 6.36445 33.6234 5.99041C33.6445 5.7272 33.4195 5.49861 33.1594 5.42242C32.9062 5.34623 32.632 5.39471 32.3648 5.43627C31.5844 5.56788 30.8039 5.69949 30.0164 5.8311C29.8617 5.36701 30.1641 4.78516 29.8406 4.41805C29.6367 4.18946 29.2922 4.17561 28.9898 4.17561C27.7594 4.18254 26.5219 4.18946 25.2914 4.18946C25.0875 4.18946 24.8555 4.20332 24.7289 4.36263C24.6375 4.47346 24.6305 4.62585 24.6234 4.76438C24.5953 5.28389 24.5742 5.80339 24.5461 6.31597C23.1469 6.42679 21.7406 6.48914 20.3414 6.50992C20.243 6.50992 20.1375 6.50992 20.0531 6.4545C19.9477 6.38523 19.9125 6.25363 19.8844 6.12895C19.6594 4.99989 19.8633 3.76693 20.468 2.77641C21.0164 1.87594 22.3172 1.35643 23.3367 1.24561C24.4266 1.12785 25.5656 1.41877 26.4516 2.05603C26.6977 2.2292 26.9508 2.437 27.2531 2.437C27.5133 2.437 27.7383 2.27076 27.9563 2.13223C28.9266 1.5019 30.0938 1.14863 31.2469 1.25253C32.4 1.35643 33.525 1.94521 34.1578 2.90109C35.0789 4.28644 34.8539 6.1428 34.2352 7.69439C34.0805 8.10306 33.8766 8.52559 33.6656 8.94812ZM28.7789 7.1541V8.2693H25.8188V7.43117C26.8102 7.3342 27.7805 7.24415 28.7789 7.1541ZM25.8328 6.23977V5.36008H28.7859V5.95578C27.8086 6.05275 26.8312 6.1428 25.8328 6.23977Z" fill="white"/>
</svg>
