<svg width="48" height="47" viewBox="0 0 48 47" fill="none" xmlns="http://www.w3.org/2000/svg">
<path fill-rule="evenodd" clip-rule="evenodd" d="M24 5.01579L18.8132 15.5753C18.2319 16.7588 17.1048 17.585 15.7939 17.7764L4.17002 19.4734L12.5897 27.7197C13.5328 28.6433 13.9601 29.9702 13.7387 31.2677L11.7537 42.8954L22.1296 37.4146C23.3001 36.7962 24.6999 36.7962 25.8704 37.4146L36.2463 42.8954L34.2613 31.2677C34.0399 29.9702 34.4672 28.6433 35.4103 27.7197L43.83 19.4734L32.2061 17.7764C30.8952 17.585 29.7681 16.7588 29.1868 15.5753L24 5.01579ZM25.2041 1.41871C24.7116 0.415933 23.2884 0.415933 22.7959 1.41871L16.4197 14.3996C16.2241 14.7978 15.846 15.0738 15.4087 15.1377L1.15116 17.2193C0.0497885 17.3801 -0.389998 18.74 0.406975 19.5205L10.7239 29.6248C11.0403 29.9348 11.1847 30.3813 11.11 30.819L8.67454 45.0864C8.4864 46.1885 9.63774 47.029 10.6228 46.5086L23.3752 39.7725C23.7664 39.5658 24.2337 39.5658 24.6248 39.7725L37.3772 46.5086C38.3623 47.029 39.5136 46.1885 39.3255 45.0864L36.89 30.819C36.8153 30.3813 36.9597 29.9348 37.2761 29.6248L47.5931 19.5205C48.39 18.74 47.9503 17.3801 46.8488 17.2193L32.5913 15.1377C32.154 15.0738 31.7759 14.7978 31.5803 14.3996L25.2041 1.41871Z" fill="#4BB9B5"/>
</svg>
