<svg width="64" height="64" viewBox="0 0 64 64" fill="none" xmlns="http://www.w3.org/2000/svg">
<path fill-rule="evenodd" clip-rule="evenodd" d="M32 13.0158L26.8132 23.5754C26.2319 24.7588 25.1048 25.5851 23.7939 25.7764L12.17 27.4735L20.5897 35.7198C21.5328 36.6434 21.9601 37.9703 21.7387 39.2678L19.7537 50.8955L30.1296 45.4147C31.3001 44.7963 32.6999 44.7963 33.8704 45.4147L44.2463 50.8955L42.2613 39.2678C42.0399 37.9703 42.4672 36.6434 43.4103 35.7198L51.83 27.4735L40.2061 25.7764C38.8952 25.5851 37.7681 24.7588 37.1868 23.5754L32 13.0158ZM33.2041 9.41877C32.7116 8.41599 31.2884 8.41599 30.7959 9.41877L24.4197 22.3996C24.2241 22.7979 23.846 23.0739 23.4087 23.1378L9.15116 25.2194C8.04979 25.3802 7.61 26.74 8.40698 27.5206L18.7239 37.6248C19.0403 37.9348 19.1847 38.3814 19.11 38.8191L16.6745 53.0864C16.4864 54.1886 17.6377 55.0291 18.6228 54.5087L31.3752 47.7726C31.7664 47.5659 32.2337 47.5659 32.6248 47.7726L45.3772 54.5087C46.3623 55.0291 47.5136 54.1886 47.3255 53.0864L44.89 38.8191C44.8153 38.3814 44.9597 37.9348 45.2761 37.6248L55.5931 27.5206C56.39 26.74 55.9503 25.3802 54.8488 25.2194L40.5913 23.1378C40.154 23.0739 39.7759 22.7979 39.5803 22.3996L33.2041 9.41877Z" fill="#4BB9B5"/>
</svg>
