<svg width="64" height="64" viewBox="0 0 64 64" fill="none" xmlns="http://www.w3.org/2000/svg">
<path d="M25.7992 21.2V24.8H22.1992V27.2H25.7992V30.8H28.1992V27.2H31.7992V24.8H28.1992V21.2H25.7992Z" fill="#4BB9B5"/>
<path d="M23.3992 34.4C22.7365 34.4 22.1992 34.9373 22.1992 35.6C22.1992 36.2628 22.7365 36.8 23.3992 36.8H40.1992C40.862 36.8 41.3992 36.2628 41.3992 35.6C41.3992 34.9373 40.862 34.4 40.1992 34.4H23.3992Z" fill="#4BB9B5"/>
<path d="M22.1992 41.6C22.1992 40.9373 22.7365 40.4 23.3992 40.4H40.1992C40.862 40.4 41.3992 40.9373 41.3992 41.6C41.3992 42.2628 40.862 42.8 40.1992 42.8H23.3992C22.7365 42.8 22.1992 42.2628 22.1992 41.6Z" fill="#4BB9B5"/>
<path d="M23.3992 46.4C22.7365 46.4 22.1992 46.9373 22.1992 47.6C22.1992 48.2628 22.7365 48.8 23.3992 48.8H40.1992C40.862 48.8 41.3992 48.2628 41.3992 47.6C41.3992 46.9373 40.862 46.4 40.1992 46.4H23.3992Z" fill="#4BB9B5"/>
<path fill-rule="evenodd" clip-rule="evenodd" d="M23.4 11.6C23.4 9.61178 25.0117 8 27 8H36.6C38.5883 8 40.2 9.61178 40.2 11.6H45C46.9883 11.6 48.6 13.2118 48.6 15.2V52.4C48.6 54.3883 46.9883 56 45 56H18.6C16.6117 56 15 54.3883 15 52.4V15.2C15 13.2118 16.6117 11.6 18.6 11.6H23.4ZM36.6 17.6C38.5883 17.6 40.2 15.9883 40.2 14H45C45.6628 14 46.2 14.5373 46.2 15.2V52.4C46.2 53.0628 45.6628 53.6 45 53.6H18.6C17.9372 53.6 17.4 53.0628 17.4 52.4V15.2C17.4 14.5373 17.9372 14 18.6 14H23.4C23.4 15.9883 25.0117 17.6 27 17.6H36.6ZM27 10.4C26.3372 10.4 25.8 10.9373 25.8 11.6V14C25.8 14.6627 26.3372 15.2 27 15.2H36.6C37.2628 15.2 37.8 14.6627 37.8 14V11.6C37.8 10.9373 37.2628 10.4 36.6 10.4H27Z" fill="#4BB9B5"/>
</svg>
