<svg width="34" height="48" viewBox="0 0 34 48" fill="none" xmlns="http://www.w3.org/2000/svg">
<path d="M10.7992 13.2001V16.8001H7.19922V19.2001H10.7992V22.8001H13.1992V19.2001H16.7992V16.8001H13.1992V13.2001H10.7992Z" fill="#4BB9B5"/>
<path d="M8.39922 26.4C7.73646 26.4 7.19922 26.9373 7.19922 27.6C7.19922 28.2628 7.73646 28.8 8.39922 28.8H25.1992C25.862 28.8 26.3992 28.2628 26.3992 27.6C26.3992 26.9373 25.862 26.4 25.1992 26.4H8.39922Z" fill="#4BB9B5"/>
<path d="M7.19922 33.6C7.19922 32.9373 7.73646 32.4 8.39922 32.4H25.1992C25.862 32.4 26.3992 32.9373 26.3992 33.6C26.3992 34.2628 25.862 34.8 25.1992 34.8H8.39922C7.73646 34.8 7.19922 34.2628 7.19922 33.6Z" fill="#4BB9B5"/>
<path d="M8.39922 38.4C7.73646 38.4 7.19922 38.9373 7.19922 39.6C7.19922 40.2628 7.73646 40.8 8.39922 40.8H25.1992C25.862 40.8 26.3992 40.2628 26.3992 39.6C26.3992 38.9373 25.862 38.4 25.1992 38.4H8.39922Z" fill="#4BB9B5"/>
<path fill-rule="evenodd" clip-rule="evenodd" d="M8.4 3.6C8.4 1.61178 10.0117 0 12 0H21.6C23.5883 0 25.2 1.61178 25.2 3.6H30C31.9883 3.6 33.6 5.21178 33.6 7.2V44.4C33.6 46.3883 31.9883 48 30 48H3.6C1.61172 48 0 46.3883 0 44.4V7.2C0 5.21178 1.61172 3.6 3.6 3.6H8.4ZM21.6 9.6C23.5883 9.6 25.2 7.98828 25.2 6H30C30.6628 6 31.2 6.53726 31.2 7.2V44.4C31.2 45.0628 30.6628 45.6 30 45.6H3.6C2.93724 45.6 2.4 45.0628 2.4 44.4V7.2C2.4 6.53726 2.93724 6 3.6 6H8.4C8.4 7.98828 10.0117 9.6 12 9.6H21.6ZM12 2.4C11.3372 2.4 10.8 2.93726 10.8 3.6V6C10.8 6.66274 11.3372 7.2 12 7.2H21.6C22.2628 7.2 22.8 6.66274 22.8 6V3.6C22.8 2.93726 22.2628 2.4 21.6 2.4H12Z" fill="#4BB9B5"/>
</svg>
