<svg width="17" height="16" viewBox="0 0 17 16" fill="none" xmlns="http://www.w3.org/2000/svg">
<path d="M12.351 0H4.82593C2.27046 0 0.191406 1.98078 0.191406 4.41535V11.5844C0.191406 14.0191 2.27046 15.9998 4.82593 15.9998H12.351C14.9067 15.9998 16.9857 14.019 16.9857 11.5844V4.41535C16.9858 1.98078 14.9067 0 12.351 0ZM15.4958 11.5844C15.4958 13.2363 14.0851 14.5802 12.3511 14.5802H4.82593C3.09208 14.5803 1.68148 13.2363 1.68148 11.5844V4.41535C1.68148 2.76353 3.09208 1.41958 4.82593 1.41958H12.351C14.085 1.41958 15.4957 2.76353 15.4957 4.41535V11.5844H15.4958Z" fill="white"/>
<path d="M8.5892 3.87939C6.20299 3.87939 4.26172 5.72882 4.26172 8.00212C4.26172 10.2753 6.20299 12.1247 8.5892 12.1247C10.9754 12.1247 12.9167 10.2753 12.9167 8.00212C12.9167 5.72882 10.9754 3.87939 8.5892 3.87939ZM8.5892 10.705C7.02472 10.705 5.75179 9.49249 5.75179 8.00203C5.75179 6.51148 7.02462 5.29887 8.5892 5.29887C10.1538 5.29887 11.4266 6.51148 11.4266 8.00203C11.4266 9.49249 10.1537 10.705 8.5892 10.705Z" fill="white"/>
<path d="M13.0966 2.67627C12.8095 2.67627 12.5275 2.787 12.3248 2.98101C12.121 3.17407 12.0039 3.44284 12.0039 3.71729C12.0039 3.99089 12.1211 4.25957 12.3248 4.45358C12.5274 4.64664 12.8095 4.75831 13.0966 4.75831C13.3847 4.75831 13.6658 4.64664 13.8695 4.45358C14.0731 4.25957 14.1893 3.9908 14.1893 3.71729C14.1893 3.44284 14.0731 3.17407 13.8695 2.98101C13.6668 2.787 13.3847 2.67627 13.0966 2.67627Z" fill="white"/>
</svg>
