<svg width="26" height="16" viewBox="0 0 26 16" fill="none" xmlns="http://www.w3.org/2000/svg">
<path d="M24.9307 13.5392C24.8627 13.4275 24.45 12.5292 22.464 10.684C20.3809 8.75147 20.6626 9.06708 23.1681 5.72153C24.6976 3.687 25.3046 2.44395 25.1152 1.90982C24.9356 1.40483 23.809 1.53594 23.809 1.53594L20.075 1.55536C20.075 1.55536 19.7983 1.51651 19.5895 1.64276C19.3904 1.76415 19.2593 2.04578 19.2593 2.04578C19.2593 2.04578 18.6669 3.61902 17.8803 4.95919C16.2148 7.78519 15.5495 7.93571 15.2776 7.76091C14.6464 7.35303 14.8018 6.11484 14.8018 5.24081C14.8018 2.50222 15.2145 1.36113 13.9909 1.06494C13.583 0.967823 13.2868 0.899843 12.2477 0.890132C10.9124 0.875565 9.78587 0.894988 9.14492 1.20575C8.71762 1.41454 8.39229 1.88069 8.59137 1.90497C8.83901 1.93896 9.39741 2.05549 9.69361 2.45851C10.0772 2.97807 10.0626 4.14829 10.0626 4.14829C10.0626 4.14829 10.2811 7.37245 9.54794 7.77548C9.04295 8.05225 8.35344 7.48899 6.86761 4.9252C6.11012 3.61416 5.5323 2.15746 5.5323 2.15746C5.5323 2.15746 5.42062 1.88555 5.22639 1.74473C4.98846 1.56993 4.65342 1.51166 4.65342 1.51166L1.09907 1.53108C1.09907 1.53108 0.564945 1.54565 0.370718 1.77872C0.195914 1.98751 0.356151 2.40996 0.356151 2.40996C0.356151 2.40996 3.13845 8.91656 6.28493 12.1941C9.17405 15.1998 12.4516 15.0056 12.4516 15.0056H13.9375C13.9375 15.0056 14.3842 14.957 14.6173 14.7094C14.8309 14.4812 14.8212 14.0587 14.8212 14.0587C14.8212 14.0587 14.7921 12.063 15.7195 11.7717C16.6324 11.4804 17.8026 13.6994 19.0456 14.5491C19.9828 15.1949 20.6966 15.0541 20.6966 15.0541L24.0178 15.0056C24.0178 15.0153 25.7562 14.9085 24.9307 13.5392Z" fill="white"/>
</svg>
