<svg width="24" height="16" viewBox="0 0 24 16" fill="none" xmlns="http://www.w3.org/2000/svg">
<path fill-rule="evenodd" clip-rule="evenodd" d="M20.8151 0.489627C21.7899 0.752245 22.5599 1.5223 22.8225 2.4971C23.3077 4.28201 23.2899 7.99873 23.2899 7.99873C23.2899 7.99873 23.2899 11.6932 22.8136 13.4781C22.551 14.4529 21.781 15.223 20.8062 15.4856C19.0257 15.9529 11.8905 15.9529 11.8905 15.9529C11.8905 15.9529 4.77756 15.9529 2.97484 15.4633C2.00004 15.2007 1.22999 14.4306 0.967371 13.4558C0.5 11.6932 0.5 7.97647 0.5 7.97647C0.5 7.97647 0.5 4.28201 0.971823 2.49265C1.23444 1.51784 2.0223 0.72999 2.97929 0.467371C4.75976 0 11.895 0 11.895 0C11.895 0 19.0302 0 20.8151 0.489627ZM15.5584 7.97654L9.625 11.395V4.5625L15.5584 7.97654Z" fill="white"/>
</svg>
