<svg width="85" height="18" viewBox="0 0 85 18" fill="none" xmlns="http://www.w3.org/2000/svg">
<path d="M74.9132 7.68389C73.8252 7.68389 72.6681 8.36263 72.6681 9.85134C72.6681 10.9494 73.4498 12.0557 74.9334 12.0557C76.4169 12.0557 77.1986 10.9484 77.1986 9.85134C77.1986 8.77172 76.4169 7.68389 74.9132 7.68389ZM74.9132 14.9768C73.2807 14.9768 71.8365 14.502 70.7283 13.5998C69.4032 12.5212 68.8789 11.1811 68.8789 8.81888C68.8789 4.931 69.265 1.66546 73.9932 1.12923L76.251 0.865735C77.3985 0.735524 77.7644 0.596085 77.9228 0.214679C77.9497 0.152599 77.9946 0.0993355 78.0522 0.0613135C78.1097 0.0232914 78.1775 0.00213436 78.2472 0.000393918C78.2773 -0.00117327 78.3075 0.00194247 78.3365 0.00962149L80.6762 0.735524C80.7647 0.756713 80.8411 0.810359 80.8892 0.885042C80.9372 0.959725 80.9532 1.04955 80.9336 1.13539C80.4986 2.83736 79.9445 3.33975 78.0356 3.55404L74.7909 3.96415C73.1786 4.15998 71.9917 4.47679 71.6844 6.51301C72.565 5.54514 73.8901 5.04378 75.5619 5.04378C76.9763 5.04378 78.3025 5.50003 79.2841 6.33666C80.3476 7.23891 80.9059 8.48976 80.9059 9.94567C80.8974 12.9026 78.4344 14.9768 74.9132 14.9768Z" fill="#686868" fill-opacity="0.35"/>
<path d="M62.9445 7.26508C61.9257 7.26508 61.0547 7.81361 60.8271 8.58565C60.8271 8.59488 60.8271 8.59488 60.8367 8.6041C60.8463 8.61333 60.8569 8.6041 60.8867 8.6041H64.7248C64.745 8.6041 64.7642 8.61333 64.7642 8.6041C64.7642 8.59488 64.7844 8.59488 64.7737 8.57642C64.66 7.74799 63.9729 7.26508 62.9445 7.26508ZM63.0232 14.9763C61.4014 14.9763 59.9168 14.5108 58.849 13.6649C57.7015 12.7534 57.0879 11.4606 57.0879 9.9257C57.0879 8.41853 57.6718 7.12564 58.7799 6.18648C59.8434 5.29346 61.3025 4.80029 62.9052 4.80029C66.202 4.80029 68.3364 6.83754 68.3364 10.0005C68.3364 10.1677 68.3364 10.345 68.3269 10.5132C68.3219 10.6262 68.2717 10.7329 68.1868 10.8109C68.1019 10.8889 67.989 10.9321 67.8717 10.9315H60.8675C60.8503 10.9289 60.8326 10.9322 60.8176 10.9407C60.8105 10.946 60.8056 10.9536 60.8038 10.9621C60.8021 10.9706 60.8036 10.9794 60.808 10.9869C61.0558 11.7405 61.9948 12.2798 63.0413 12.2798C63.8825 12.2798 64.5749 12.0193 65.062 11.5262C65.1046 11.4814 65.1566 11.4459 65.2145 11.4218C65.2724 11.3978 65.335 11.3859 65.398 11.3867C65.4775 11.3863 65.5558 11.4053 65.6256 11.4421L67.5739 12.5299C67.6306 12.5605 67.6792 12.6033 67.716 12.6548C67.7529 12.7063 67.7771 12.7653 67.7866 12.8273C67.7982 12.8882 67.7953 12.9508 67.7781 13.0104C67.761 13.0701 67.7301 13.1253 67.6877 13.1718C66.6636 14.3539 65.0417 14.9763 63.0232 14.9763Z" fill="#686868" fill-opacity="0.35"/>
<path d="M50.2034 7.3029C50.1408 7.30418 50.0809 7.3277 50.0352 7.36895C49.9895 7.4102 49.9611 7.46627 49.9556 7.52641V8.60501C49.9633 8.66114 49.9937 8.71209 50.04 8.74682C50.0864 8.78155 50.1451 8.79728 50.2034 8.79059H51.4594C51.7264 8.79059 52.5771 8.73522 52.5771 8.01855C52.5771 7.42286 51.8848 7.30085 51.3105 7.30085L50.2034 7.3029ZM50.2034 10.7448C50.1422 10.7456 50.0834 10.7677 50.0379 10.8071C49.9923 10.8465 49.9631 10.9005 49.9556 10.9591V12.2325C49.9633 12.2886 49.9937 12.3395 50.04 12.3743C50.0864 12.409 50.1451 12.4247 50.2034 12.418H51.4796C51.8061 12.418 52.8749 12.3627 52.8749 11.5712C52.8749 10.8453 51.9752 10.7438 51.4403 10.7438L50.2034 10.7448ZM46.8502 14.6511C46.5142 14.6511 46.1973 14.4184 46.1973 14.1026V5.67474C46.2079 5.51343 46.2808 5.36182 46.4017 5.24982C46.5226 5.13783 46.6826 5.07361 46.8502 5.06982H52.2124C54.8041 5.06982 56.2387 6.00899 56.2387 7.69251C56.2418 8.09817 56.1241 8.49618 55.8996 8.83929C55.6751 9.1824 55.3532 9.45622 54.9721 9.62825C56.0356 9.98197 56.7035 10.8001 56.7035 11.8326C56.7035 13.5818 55.0912 14.6511 52.4889 14.6511H46.8502Z" fill="#686868" fill-opacity="0.35"/>
<path d="M41.5822 10.6512C39.535 10.6512 38.5853 10.9957 38.5853 11.7298C38.5853 12.4475 39.6732 12.4926 39.8817 12.4926C41.1281 12.4926 41.8502 11.8774 41.8502 10.7998V10.6512H41.5822ZM39.0202 14.902C37.0421 14.902 35.0332 13.9536 35.0332 11.8323C35.0332 10.5763 35.7947 9.66484 37.2984 9.12554C38.3768 8.74413 39.821 8.5483 41.7204 8.53907C41.7109 8.17612 41.5077 7.43176 40.0391 7.43176C39.1877 7.45436 38.3669 7.74213 37.6994 8.25199C37.639 8.29891 37.5642 8.32523 37.4867 8.32684C37.4389 8.32688 37.3916 8.31785 37.3474 8.30026C37.3033 8.28267 37.2631 8.25686 37.2293 8.22431L35.716 6.78891C35.6808 6.75698 35.6537 6.71779 35.6366 6.67427C35.6194 6.63076 35.6128 6.58407 35.6171 6.53771C35.6175 6.49207 35.6281 6.44704 35.6481 6.40566C35.6681 6.36427 35.697 6.3275 35.733 6.2978C36.94 5.34941 38.6119 4.80908 40.3528 4.80908C43.8453 4.80908 45.3182 6.31625 45.3182 9.85964V14.3545C45.322 14.3958 45.3163 14.4374 45.3016 14.4763C45.2868 14.5153 45.2635 14.5507 45.2331 14.58C45.2027 14.6093 45.166 14.6318 45.1256 14.646C45.0851 14.6602 45.042 14.6657 44.9992 14.6621H42.1809C42.1378 14.6654 42.0945 14.6597 42.0538 14.6455C42.0132 14.6313 41.9761 14.6089 41.9452 14.5798C41.9143 14.5506 41.8902 14.5155 41.8745 14.4766C41.8589 14.4378 41.852 14.3961 41.8544 14.3545V13.9731C41.1568 14.539 40.1624 14.902 39.0149 14.902H39.0202Z" fill="#686868" fill-opacity="0.35"/>
<path d="M28.6376 7.68355C27.4997 7.68355 26.3224 8.50378 26.3224 9.86946C26.3223 10.1604 26.3825 10.4485 26.4994 10.7168C26.6164 10.985 26.7877 11.2281 27.0033 11.4317C27.2189 11.6353 27.4746 11.7953 27.7552 11.9024C28.0358 12.0095 28.3358 12.0615 28.6376 12.0554C30.1807 12.0554 30.8826 10.9111 30.8826 9.851C30.8837 8.80931 30.1818 7.68355 28.6376 7.68355ZM22.9798 18C22.9351 18.0002 22.8907 17.9916 22.8496 17.9745C22.8084 17.9575 22.7714 17.9325 22.7407 17.901C22.7101 17.8695 22.6865 17.8323 22.6715 17.7916C22.6564 17.751 22.6503 17.7078 22.6533 17.6647V5.43407C22.6499 5.38953 22.6556 5.34477 22.6701 5.30237C22.6847 5.25997 22.7078 5.22077 22.7382 5.18703C22.7685 5.15329 22.8055 5.12568 22.847 5.10578C22.8884 5.08589 22.9336 5.07411 22.9798 5.07112H25.9278C26.0274 5.07474 26.122 5.11388 26.1933 5.18094C26.2647 5.248 26.3076 5.33821 26.3139 5.43407V5.99183C27.1051 5.26592 28.2526 4.83838 29.4895 4.83838C30.9635 4.83838 32.2886 5.37768 33.2383 6.34555C34.1284 7.26831 34.6134 8.513 34.6134 9.85203C34.6134 12.3824 32.8224 14.9405 29.4395 14.9405C28.3368 14.9533 27.2648 14.5902 26.4128 13.9152V17.6637C26.4168 17.7063 26.4115 17.7493 26.3973 17.7899C26.383 17.8305 26.3602 17.8677 26.3301 17.8993C26.3001 17.9309 26.2635 17.956 26.2228 17.9732C26.1821 17.9904 26.1382 17.9991 26.0937 17.999L22.9798 18Z" fill="#686868" fill-opacity="0.35"/>
<path d="M17.9726 10.6512C15.9254 10.6512 14.9757 10.9957 14.9757 11.7298C14.9757 12.4475 16.0392 12.4926 16.2519 12.4926C17.4983 12.4926 18.2002 11.8774 18.2002 10.7998V10.6512H17.9726ZM15.3905 14.902C13.4124 14.902 11.4141 13.9536 11.4141 11.8323C11.4141 10.5763 12.1755 9.66484 13.6889 9.12554C14.7673 8.74413 16.221 8.5483 18.1109 8.53907C18.1013 8.17612 17.8982 7.43176 16.4295 7.43176C15.5782 7.45436 14.7573 7.74213 14.0898 8.25199C14.0294 8.29891 13.9546 8.32523 13.8771 8.32684C13.8293 8.32688 13.782 8.31785 13.7378 8.30026C13.6937 8.28267 13.6536 8.25686 13.6197 8.22431L12.1064 6.78891C12.0713 6.75698 12.0441 6.71779 12.027 6.67427C12.0099 6.63076 12.0032 6.58407 12.0075 6.53771C12.0079 6.49207 12.0185 6.44704 12.0385 6.40566C12.0585 6.36427 12.0875 6.3275 12.1234 6.2978C13.3305 5.34941 15.0214 4.80908 16.773 4.80908C20.2655 4.80908 21.7714 6.31625 21.7714 9.85964V14.3545C21.7693 14.3982 21.758 14.441 21.7383 14.4804C21.7186 14.5197 21.6908 14.5548 21.6566 14.5836C21.6224 14.6123 21.5825 14.6341 21.5394 14.6476C21.4963 14.6611 21.4507 14.666 21.4056 14.6621H18.5873C18.3895 14.6621 18.2119 14.5411 18.2119 14.3545V13.9731C17.6078 14.539 16.539 14.902 15.3915 14.902H15.3905Z" fill="#686868" fill-opacity="0.35"/>
<path d="M7.21153 14.6505C7.01373 14.6505 6.82549 14.5296 6.82549 14.343V7.76779H3.85835V14.344C3.85851 14.3867 3.84944 14.429 3.83171 14.4682C3.81397 14.5074 3.78797 14.5425 3.75535 14.5715C3.72273 14.6004 3.68421 14.6225 3.64225 14.6363C3.60029 14.6501 3.55581 14.6553 3.51165 14.6516H0.375412C0.177603 14.6516 0 14.5306 0 14.344V5.43424C0.00415609 5.33944 0.0450114 5.24958 0.114507 5.18239C0.184002 5.11521 0.277092 5.07556 0.375412 5.07129H10.3478C10.442 5.0771 10.5301 5.11844 10.593 5.18635C10.6559 5.25427 10.6885 5.34331 10.6838 5.43424V14.344C10.6852 14.3861 10.6773 14.4281 10.6606 14.4671C10.644 14.5061 10.619 14.5413 10.5873 14.5703C10.5555 14.5994 10.5178 14.6216 10.4765 14.6356C10.4352 14.6496 10.3914 14.655 10.3478 14.6516L7.21153 14.6505Z" fill="#686868" fill-opacity="0.35"/>
<path d="M82.8871 14.8671C81.7843 14.8671 80.8867 14.0541 80.8867 13.0544C80.8867 12.0548 81.7843 11.2417 82.8871 11.2417C83.99 11.2417 84.8876 12.0548 84.8876 13.0544C84.8876 14.0541 83.99 14.8671 82.8871 14.8671Z" fill="#686868" fill-opacity="0.35"/>
</svg>
