<svg width="157" height="43" viewBox="0 0 157 43" fill="none" xmlns="http://www.w3.org/2000/svg">
<g clip-path="url(#clip0_2_48)">
<path d="M54.248 35.4229C54.248 37.3104 55.3527 38.0008 56.5076 38.0008C56.9745 38.0008 57.3009 37.8866 57.6222 37.683C57.8783 37.519 58.1193 37.3303 58.1193 37.0769C58.1193 36.9478 58.0641 36.8386 57.9737 36.7441C57.8984 36.6697 57.7779 36.6101 57.6573 36.6101C57.5218 36.6101 57.4214 36.6697 57.2507 36.8038C56.9946 37.0025 56.7888 37.0869 56.5076 37.0869C56.1059 37.0869 55.7996 36.9429 55.5787 36.6498C55.3577 36.3667 55.2723 36.004 55.2723 35.4229C55.2723 34.8368 55.3577 34.4791 55.5787 34.1911C55.7996 33.903 56.1059 33.7589 56.5076 33.7589C56.7888 33.7589 56.9946 33.8335 57.2507 34.0371C57.4214 34.1762 57.5218 34.2308 57.6573 34.2308C57.7779 34.2308 57.8984 34.1762 57.9737 34.1017C58.0641 34.0073 58.1193 33.8931 58.1193 33.7689C58.1193 33.5106 57.8883 33.3318 57.6222 33.1629C57.2808 32.9444 56.9645 32.845 56.5076 32.845C55.3527 32.845 54.248 33.5354 54.248 35.4229ZM60.135 35.4229C60.135 37.3402 61.1593 38.0008 62.4296 38.0008C62.9769 38.0008 63.4388 37.8866 63.7602 37.678C64.0112 37.519 64.2724 37.3004 64.2724 37.0671C64.2724 36.8336 64.0564 36.6349 63.8506 36.6349C63.72 36.6349 63.5895 36.6945 63.4338 36.8187C63.1577 37.0372 62.8112 37.1365 62.4548 37.1365C61.6061 37.1365 61.1492 36.5753 61.1492 35.7159H63.8556C64.0062 35.7159 64.1769 35.7159 64.3075 35.5869C64.4331 35.4627 64.4531 35.2838 64.4481 35.1348C64.418 33.8036 63.6246 32.845 62.294 32.845C60.9936 32.845 60.135 33.7639 60.135 35.4229ZM63.4388 35.0107H61.1492C61.1593 34.7027 61.1794 34.5437 61.2798 34.3252C61.4505 33.9477 61.802 33.6894 62.294 33.6894C62.7761 33.6894 63.1276 33.9477 63.2983 34.3252C63.3987 34.5437 63.4188 34.7027 63.4388 35.0107ZM69.721 33.8185C69.9419 33.8185 70.0373 33.8036 70.1377 33.749C70.2632 33.6745 70.3486 33.5354 70.3486 33.3616C70.3486 33.1877 70.2632 33.0487 70.1377 32.9741C70.0373 32.9145 69.9419 32.9046 69.721 32.9046H66.7485C66.5276 32.9046 66.4321 32.9145 66.3317 32.9741C66.2062 33.0487 66.1209 33.1877 66.1209 33.3616C66.1209 33.5354 66.2062 33.6745 66.3317 33.749C66.4321 33.8036 66.5276 33.8185 66.7485 33.8185H67.7226V37.2906C67.7226 37.5339 67.7376 37.6234 67.7979 37.7426C67.8682 37.8766 68.0138 37.9809 68.2347 37.9809C68.4557 37.9809 68.6012 37.8766 68.6715 37.7426C68.7318 37.6234 68.7469 37.5339 68.7469 37.2906V33.8185H69.721ZM73.3806 37.1217V35.6216H74.5605C75.0928 35.6216 75.379 35.8997 75.379 36.3716C75.379 36.8484 75.0928 37.1217 74.5605 37.1217H73.3806ZM74.7463 37.9412C75.7304 37.9412 76.4033 37.3054 76.4033 36.3716C76.4033 35.4428 75.7354 34.807 74.7463 34.807H73.3806V33.5553C73.3806 33.3119 73.3655 33.2225 73.3053 33.1033C73.2349 32.9692 73.0894 32.8649 72.8685 32.8649C72.6475 32.8649 72.5019 32.9692 72.4316 33.1033C72.3713 33.2225 72.3563 33.3119 72.3563 33.5553V37.3203C72.3563 37.4743 72.3563 37.6531 72.5019 37.7972C72.6475 37.9412 72.8282 37.9412 72.9839 37.9412H74.7463ZM81.7606 35.4229C81.7606 37.3104 82.8652 38.0008 84.0201 38.0008C84.487 38.0008 84.8134 37.8866 85.1347 37.683C85.3911 37.519 85.6315 37.3303 85.6315 37.0769C85.6315 36.9478 85.577 36.8386 85.4866 36.7441C85.4108 36.6697 85.2906 36.6101 85.1699 36.6101C85.0343 36.6101 84.9339 36.6697 84.7632 36.8038C84.5071 37.0025 84.3012 37.0869 84.0201 37.0869C83.6184 37.0869 83.312 36.9429 83.0911 36.6498C82.8702 36.3667 82.7849 36.004 82.7849 35.4229C82.7849 34.8368 82.8702 34.4791 83.0911 34.1911C83.312 33.903 83.6184 33.7589 84.0201 33.7589C84.3012 33.7589 84.5071 33.8335 84.7632 34.0371C84.9339 34.1762 85.0343 34.2308 85.1699 34.2308C85.2906 34.2308 85.4108 34.1762 85.4866 34.1017C85.577 34.0073 85.6315 33.8931 85.6315 33.7689C85.6315 33.5106 85.4005 33.3318 85.1347 33.1629C84.7933 32.9444 84.477 32.845 84.0201 32.845C82.8652 32.845 81.7606 33.5354 81.7606 35.4229ZM90.8365 33.8185C91.0573 33.8185 91.1527 33.8036 91.2533 33.749C91.3786 33.6745 91.4638 33.5354 91.4638 33.3616C91.4638 33.1877 91.3786 33.0487 91.2533 32.9741C91.1527 32.9145 91.0573 32.9046 90.8365 32.9046H87.8645C87.6429 32.9046 87.5475 32.9145 87.4478 32.9741C87.3216 33.0487 87.2364 33.1877 87.2364 33.3616C87.2364 33.5354 87.3216 33.6745 87.4478 33.749C87.5475 33.8036 87.6429 33.8185 87.8645 33.8185H88.8379V37.2906C88.8379 37.5339 88.8532 37.6234 88.9137 37.7426C88.9836 37.8766 89.1293 37.9809 89.3501 37.9809C89.5717 37.9809 89.7166 37.8766 89.7873 37.7426C89.8478 37.6234 89.8623 37.5339 89.8623 37.2906V33.8185H90.8365ZM94.2304 35.4229C94.2304 34.8715 94.2755 34.355 94.5824 34.047C94.7733 33.8534 95.0136 33.7589 95.3256 33.7589C95.6367 33.7589 95.8779 33.8534 96.0688 34.047C96.3748 34.355 96.4199 34.8715 96.4199 35.4229C96.4199 35.9743 96.3748 36.4958 96.0688 36.7988C95.8779 36.9925 95.6367 37.0869 95.3256 37.0869C95.0136 37.0869 94.7733 36.9925 94.5824 36.7988C94.2755 36.4958 94.2304 35.9743 94.2304 35.4229ZM93.2068 35.4229C93.2068 36.2723 93.3065 36.8982 93.8042 37.4048C94.1358 37.7426 94.6327 38.0008 95.3256 38.0008C96.0185 38.0008 96.5154 37.7426 96.8469 37.4048C97.3387 36.8982 97.4444 36.2723 97.4444 35.4229C97.4444 34.5736 97.3387 33.9477 96.8469 33.4411C96.5154 33.1033 96.0185 32.845 95.3256 32.845C94.6327 32.845 94.1358 33.1033 93.8042 33.4411C93.3065 33.9477 93.2068 34.5736 93.2068 35.4229ZM102.4 37.0123C102.66 37.0123 102.806 36.8634 102.967 36.5653L103.916 34.812V37.2906C103.916 37.5339 103.931 37.6234 103.991 37.7426C104.062 37.8766 104.207 37.9809 104.428 37.9809C104.649 37.9809 104.795 37.8766 104.865 37.7426C104.925 37.6234 104.94 37.5339 104.94 37.2906V33.5155C104.94 33.2821 104.895 33.1231 104.774 33.004C104.684 32.9195 104.569 32.8649 104.413 32.8649C104.137 32.8649 103.956 33.0487 103.756 33.4014L102.4 35.8203L101.044 33.4014C100.843 33.0487 100.663 32.8649 100.387 32.8649C100.231 32.8649 100.115 32.9195 100.024 33.004C99.9041 33.1231 99.859 33.2821 99.859 33.5155V37.2906C99.859 37.5339 99.8743 37.6234 99.934 37.7426C100.005 37.8766 100.15 37.9809 100.371 37.9809C100.592 37.9809 100.738 37.8766 100.808 37.7426C100.868 37.6234 100.883 37.5339 100.883 37.2906V34.812L101.832 36.5653C101.993 36.8634 102.139 37.0123 102.4 37.0123ZM107.193 36.461C107.193 36.8882 107.339 37.2757 107.6 37.5389C107.906 37.8519 108.333 37.9959 108.97 37.9959C109.593 37.9959 109.934 37.8617 110.336 37.4743C110.347 37.6879 110.392 37.7674 110.451 37.8369C110.531 37.9213 110.658 37.9809 110.823 37.9809C111.019 37.9809 111.184 37.8866 111.26 37.7475C111.325 37.6332 111.335 37.5389 111.335 37.2906V34.5785C111.335 33.4361 110.618 32.845 109.251 32.845C108.725 32.845 108.313 32.9444 107.956 33.148C107.695 33.297 107.479 33.5007 107.479 33.7292C107.479 33.8632 107.514 33.9477 107.6 34.0421C107.675 34.1315 107.79 34.1762 107.896 34.1762C107.992 34.1762 108.137 34.1414 108.268 34.0421C108.564 33.8185 108.835 33.7043 109.241 33.7043C109.989 33.7043 110.306 34.0271 110.306 34.6878V35.0007H108.956C107.801 35.0007 107.193 35.6166 107.193 36.461ZM108.192 36.4462C108.192 35.9792 108.499 35.7209 109.1 35.7209H110.306V36.1183C110.306 36.4909 110.241 36.7194 110.08 36.8683C109.819 37.1167 109.517 37.1564 109.151 37.1564C108.503 37.1564 108.192 36.9031 108.192 36.4462ZM116.816 33.8185C117.037 33.8185 117.133 33.8036 117.233 33.749C117.358 33.6745 117.444 33.5354 117.444 33.3616C117.444 33.1877 117.358 33.0487 117.233 32.9741C117.133 32.9145 117.037 32.9046 116.816 32.9046H113.844C113.623 32.9046 113.527 32.9145 113.427 32.9741C113.301 33.0487 113.216 33.1877 113.216 33.3616C113.216 33.5354 113.301 33.6745 113.427 33.749C113.527 33.8036 113.623 33.8185 113.844 33.8185H114.818V37.2906C114.818 37.5339 114.833 37.6234 114.894 37.7426C114.963 37.8766 115.109 37.9809 115.33 37.9809C115.551 37.9809 115.696 37.8766 115.767 37.7426C115.827 37.6234 115.842 37.5339 115.842 37.2906V33.8185H116.816ZM120.21 35.4229C120.21 34.8715 120.255 34.355 120.562 34.047C120.753 33.8534 120.993 33.7589 121.305 33.7589C121.617 33.7589 121.858 33.8534 122.049 34.047C122.355 34.355 122.4 34.8715 122.4 35.4229C122.4 35.9743 122.355 36.4958 122.049 36.7988C121.858 36.9925 121.617 37.0869 121.305 37.0869C120.993 37.0869 120.753 36.9925 120.562 36.7988C120.255 36.4958 120.21 35.9743 120.21 35.4229ZM119.187 35.4229C119.187 36.2723 119.286 36.8982 119.784 37.4048C120.115 37.7426 120.613 38.0008 121.305 38.0008C121.998 38.0008 122.495 37.7426 122.827 37.4048C123.319 36.8982 123.424 36.2723 123.424 35.4229C123.424 34.5736 123.319 33.9477 122.827 33.4411C122.495 33.1033 121.998 32.845 121.305 32.845C120.613 32.845 120.115 33.1033 119.784 33.4411C119.286 33.9477 119.187 34.5736 119.187 35.4229ZM127.179 33.8185H128.651V37.2906C128.651 37.5339 128.665 37.6234 128.726 37.7426C128.795 37.8766 128.941 37.9809 129.162 37.9809C129.384 37.9809 129.529 37.8766 129.599 37.7426C129.66 37.6234 129.674 37.5339 129.674 37.2906V33.5255C129.674 33.3715 129.674 33.1927 129.529 33.0487C129.384 32.9046 129.203 32.9046 129.047 32.9046H126.817C126.662 32.9046 126.481 32.9046 126.336 33.0487C126.19 33.1927 126.19 33.3715 126.19 33.5255V35.0355C126.19 36.6597 125.818 37.0075 125.412 37.0621C125.306 37.0769 125.251 37.0919 125.2 37.1217C125.075 37.1961 125 37.3303 125 37.4992C125 37.6631 125.08 37.8021 125.206 37.8717C125.301 37.9213 125.402 37.9412 125.563 37.9412C126.562 37.9412 127.179 37.3551 127.179 35.2491V33.8185ZM133.112 35.4229C133.112 34.8715 133.158 34.355 133.464 34.047C133.654 33.8534 133.896 33.7589 134.207 33.7589C134.518 33.7589 134.759 33.8534 134.95 34.047C135.256 34.355 135.301 34.8715 135.301 35.4229C135.301 35.9743 135.256 36.4958 134.95 36.7988C134.759 36.9925 134.518 37.0869 134.207 37.0869C133.896 37.0869 133.654 36.9925 133.464 36.7988C133.158 36.4958 133.112 35.9743 133.112 35.4229ZM132.088 35.4229C132.088 36.2723 132.188 36.8982 132.685 37.4048C133.017 37.7426 133.514 38.0008 134.207 38.0008C134.9 38.0008 135.397 37.7426 135.728 37.4048C136.22 36.8982 136.326 36.2723 136.326 35.4229C136.326 34.5736 136.22 33.9477 135.728 33.4411C135.397 33.1033 134.9 32.845 134.207 32.845C133.514 32.845 133.017 33.1033 132.685 33.4411C132.188 33.9477 132.088 34.5736 132.088 35.4229ZM139.765 37.2906V33.8185H141.467C141.687 33.8185 141.783 33.8036 141.883 33.749C142.009 33.6745 142.095 33.5354 142.095 33.3616C142.095 33.1877 142.009 33.0487 141.883 32.9741C141.783 32.9145 141.687 32.9046 141.467 32.9046H139.368C139.212 32.9046 139.032 32.9046 138.886 33.0487C138.74 33.1927 138.74 33.3715 138.74 33.5255V37.2906C138.74 37.5339 138.755 37.6234 138.816 37.7426C138.886 37.8766 139.032 37.9809 139.252 37.9809C139.473 37.9809 139.619 37.8766 139.69 37.7426C139.749 37.6234 139.765 37.5339 139.765 37.2906ZM147.246 34.5636V37.2906C147.246 37.5339 147.261 37.6234 147.321 37.7426C147.392 37.8766 147.538 37.9809 147.758 37.9809C147.979 37.9809 148.125 37.8766 148.195 37.7426C148.255 37.6234 148.271 37.5339 148.271 37.2906V33.5155C148.271 33.2821 148.23 33.1231 148.109 32.999C148.024 32.9145 147.899 32.8599 147.743 32.8599C147.492 32.8599 147.326 33.0138 147.105 33.3466L145.122 36.2773V33.5553C145.122 33.3119 145.107 33.2225 145.046 33.1033C144.976 32.9692 144.831 32.8649 144.61 32.8649C144.389 32.8649 144.243 32.9692 144.173 33.1033C144.113 33.2225 144.098 33.3119 144.098 33.5553V37.3253C144.098 37.5588 144.138 37.7227 144.263 37.8419C144.349 37.9263 144.469 37.9809 144.63 37.9809C144.881 37.9809 145.046 37.827 145.268 37.4992L147.246 34.5636ZM154.064 34.5636V37.2906C154.064 37.5339 154.08 37.6234 154.14 37.7426C154.21 37.8766 154.356 37.9809 154.577 37.9809C154.797 37.9809 154.943 37.8766 155.013 37.7426C155.074 37.6234 155.089 37.5339 155.089 37.2906V33.5155C155.089 33.2821 155.049 33.1231 154.928 32.999C154.843 32.9145 154.717 32.8599 154.561 32.8599C154.311 32.8599 154.145 33.0138 153.924 33.3466L151.941 36.2773V33.5553C151.941 33.3119 151.925 33.2225 151.866 33.1033C151.795 32.9692 151.649 32.8649 151.428 32.8649C151.208 32.8649 151.062 32.9692 150.992 33.1033C150.931 33.2225 150.916 33.3119 150.916 33.5553V37.3253C150.916 37.5588 150.956 37.7227 151.082 37.8419C151.168 37.9263 151.288 37.9809 151.449 37.9809C151.699 37.9809 151.866 37.827 152.086 37.4992L154.064 34.5636ZM153.005 31.2406C152.684 31.2406 152.427 31.0916 152.187 30.883C152.086 30.7986 152.001 30.7588 151.916 30.7538C151.805 30.7489 151.704 30.7886 151.619 30.883C151.544 30.9675 151.508 31.0668 151.514 31.1611C151.519 31.2853 151.579 31.3946 151.739 31.5337C152.102 31.8615 152.483 32.0404 153.005 32.0404C153.528 32.0404 153.909 31.8615 154.271 31.5337C154.431 31.3946 154.492 31.2853 154.497 31.1611C154.502 31.0668 154.466 30.9675 154.391 30.883C154.306 30.7886 154.205 30.7489 154.094 30.7538C154.009 30.7588 153.924 30.7986 153.823 30.883C153.582 31.0916 153.326 31.2406 153.005 31.2406Z" fill="#313033"/>
<path fill-rule="evenodd" clip-rule="evenodd" d="M147.576 21.0783C146.542 21.0783 145.647 21.0349 144.89 20.9483V8.58733C145.889 8.48329 146.775 8.43127 147.55 8.43127C151.458 8.43127 153.413 10.5131 153.413 14.6768C153.413 18.9444 151.467 21.0783 147.576 21.0783ZM154.452 8.23368C152.871 6.67913 150.528 5.90186 147.42 5.90186C145.609 5.90186 144.117 6.02549 142.946 6.27278C141.969 6.44937 141.48 7.059 141.48 8.10127V22.49C141.48 23.444 141.977 24.0092 142.972 24.1859C144.019 24.3627 145.511 24.4509 147.447 24.4509C150.5 24.4509 152.827 23.6206 154.425 21.9602C156.023 20.2995 156.822 18.0117 156.822 15.0969C156.822 12.0761 156.032 9.78821 154.452 8.23368ZM137.464 21.5745H130.064V16.3591H135.774C136.235 16.3591 136.598 16.2248 136.863 15.956C137.127 15.6871 137.259 15.3377 137.259 14.9075C137.259 14.4595 137.127 14.1101 136.863 13.8592C136.598 13.6082 136.235 13.4828 135.774 13.4828H130.064V8.77822H137.208C137.652 8.77822 138.006 8.64846 138.271 8.38853C138.535 8.12878 138.668 7.7837 138.668 7.35348C138.668 6.90549 138.535 6.55153 138.271 6.29177C138.006 6.03183 137.652 5.90186 137.208 5.90186H128.554C128.058 5.90186 127.674 6.0587 127.401 6.37237C127.128 6.68604 126.991 7.08465 126.991 7.56859V22.7842C126.991 23.2681 127.132 23.6669 127.414 23.9804C127.695 24.2941 128.084 24.4509 128.579 24.4509H137.464C137.908 24.4509 138.262 24.3209 138.526 24.0609C138.791 23.8012 138.924 23.4561 138.924 23.0261C138.924 22.5781 138.791 22.2241 138.526 21.9642C138.262 21.7044 137.908 21.5745 137.464 21.5745ZM122.084 5.90186C121.459 5.90186 120.933 6.24239 120.504 6.92347L115.153 15.6066L109.694 6.95033C109.266 6.25148 108.713 5.90186 108.034 5.90186C107.589 5.90186 107.227 6.04072 106.951 6.31864C106.674 6.59636 106.536 7.02203 106.536 7.59546V22.811C106.536 23.9044 107.036 24.4509 108.034 24.4509C109.033 24.4509 109.534 23.9044 109.534 22.811V12.0042L113.493 18.241C113.886 18.8684 114.386 19.1819 114.992 19.1819C115.581 19.1819 116.072 18.8593 116.464 18.2141L120.371 11.8699V22.811C120.371 23.2949 120.514 23.6892 120.799 23.9938C121.085 24.2986 121.477 24.4509 121.976 24.4509C122.494 24.4509 122.891 24.2986 123.167 23.9938C123.444 23.6892 123.582 23.2949 123.582 22.811V7.56859C123.582 7.06687 123.453 6.66352 123.194 6.35894C122.935 6.05415 122.565 5.90186 122.084 5.90186ZM94.6038 16.8626L97.1207 10.1175L99.7177 16.8626H94.6038ZM98.6335 7.04035C98.3224 6.28142 97.8204 5.90186 97.1292 5.90186C96.403 5.90186 95.8755 6.33433 95.5465 7.1993L89.7099 22.1324C89.2949 23.2445 89.4679 23.9682 90.2281 24.3034C91.2142 24.7095 91.9234 24.2769 92.3555 23.0062L93.7047 19.2727H100.371L101.825 23.1914C102.015 23.7034 102.296 24.0608 102.667 24.2637C103.039 24.4668 103.468 24.48 103.952 24.3034C104.384 24.1446 104.657 23.8357 104.769 23.3768C104.881 22.9179 104.843 22.4941 104.652 22.106L98.6335 7.04035ZM84.6006 5.90186C84.0294 5.90186 83.5274 6.20664 83.0945 6.81582L74.7077 18.8324V7.56859C74.7077 7.08465 74.5736 6.68604 74.3052 6.37237C74.0369 6.0587 73.6517 5.90186 73.1497 5.90186C72.6304 5.90186 72.241 6.0587 71.9813 6.37237C71.7216 6.68604 71.5917 7.08465 71.5917 7.56859V22.811C71.5917 23.3307 71.7216 23.734 71.9813 24.0206C72.241 24.3075 72.6044 24.4509 73.0719 24.4509C73.5738 24.4509 74.0586 24.1372 74.5259 23.51L82.9648 11.5741V22.811C82.9648 23.277 83.099 23.6669 83.3674 23.9804C83.6357 24.2941 84.0294 24.4509 84.5487 24.4509C85.0507 24.4509 85.4314 24.2986 85.6913 23.9938C85.9513 23.6892 86.0808 23.2949 86.0808 22.811V7.56859C86.0808 6.4575 85.5873 5.90186 84.6006 5.90186ZM59.7887 21.0783C58.7555 21.0783 57.8602 21.0349 57.1026 20.9483V8.58733C58.1012 8.48329 58.988 8.43127 59.7629 8.43127C63.6713 8.43127 65.6256 10.5131 65.6256 14.6768C65.6256 18.9444 63.68 21.0783 59.7887 21.0783ZM59.633 5.90186C57.8217 5.90186 56.3303 6.02549 55.1584 6.27278C54.1818 6.44937 53.6934 7.059 53.6934 8.10127V22.49C53.6934 23.444 54.1907 24.0092 55.185 24.1859C56.2326 24.3627 57.7241 24.4509 59.6596 24.4509C62.7135 24.4509 65.0397 23.6206 66.6378 21.9602C68.2358 20.2995 69.0348 18.0117 69.0348 15.0969C69.0348 12.0761 68.2447 9.78821 66.6645 8.23368C65.0841 6.67913 62.7402 5.90186 59.633 5.90186Z" fill="#313033"/>
<mask id="mask0_2_48" style="mask-type:alpha" maskUnits="userSpaceOnUse" x="0" y="0" width="44" height="43">
<path fill-rule="evenodd" clip-rule="evenodd" d="M43.4674 43H0V0H43.4674V43Z" fill="white"/>
</mask>
<g mask="url(#mask0_2_48)">
<path fill-rule="evenodd" clip-rule="evenodd" d="M22.1758 17.7202C24.2786 17.7202 26.3819 17.7528 28.4837 17.7092C29.9873 17.6781 30.5763 18.3294 30.6609 19.7628C30.972 25.0191 27.9513 27.8543 21.9657 27.8232C16.1982 27.793 13.3368 24.9414 13.6616 19.6964C13.754 18.2055 14.3996 17.6731 15.8679 17.7074C17.9694 17.7566 20.0731 17.72 22.1758 17.7202Z" fill="#4BB9B5"/>
<path fill-rule="evenodd" clip-rule="evenodd" d="M20.7079 42.9761C33.56 43.5668 44.0984 33.0996 43.438 20.3678C42.8766 9.54195 34.056 0.715475 23.1237 0.0445982C17.8795 -0.276998 12.0699 1.16222 9.54109 3.66502C8.31155 4.98212 7.47807 7.05031 7.93045 8.8333C8.60492 11.491 10.4895 12.8718 13.6742 12.8896C19.7819 12.9242 25.8899 12.9005 31.9979 12.901C32.571 12.901 33.1442 12.901 33.8552 12.901C34.9378 12.901 35.7922 13.8125 35.7132 14.8813C35.4346 18.6534 35.3778 22.274 34.4553 25.6638C32.9248 31.2878 26.5795 34.0947 19.4562 33.0666C13.2506 32.171 9.27304 27.7713 8.8555 21.2573C8.74683 19.5634 8.83939 17.8577 8.79857 16.1586C8.74419 13.8979 7.32268 12.6728 5.28861 12.3256C3.60307 12.0377 1.54965 13.1271 1.10705 14.7817C0.084261 17.4653 -0.108684 19.537 0.0484309 22.6092C0.608873 33.5708 9.62939 42.4669 20.7079 42.9761Z" fill="#4BB9B5"/>
</g>
</g>
<defs>
<clipPath id="clip0_2_48">
<rect width="156.824" height="43" fill="white"/>
</clipPath>
</defs>
</svg>
