<svg width="146" height="28" viewBox="0 0 146 28" fill="none" xmlns="http://www.w3.org/2000/svg">
<path d="M88.6247 23.5138C89.0273 23.7151 89.497 23.7151 89.9668 23.5809C90.4365 23.4467 90.7049 23.1112 90.8391 22.6414C90.9733 22.1717 90.9062 21.702 90.7049 21.2993L84.2628 5.52967C83.9273 4.72441 83.3905 4.32178 82.6523 4.32178C81.8471 4.32178 81.3102 4.79151 80.9747 5.66388L74.7339 21.2322C74.2642 22.373 74.4655 23.1783 75.2708 23.5138C76.3445 23.9164 77.0826 23.5138 77.5524 22.1717L78.9616 18.2796H86.0747L87.6181 22.373C87.8865 22.9098 88.222 23.3125 88.6247 23.5138ZM79.901 15.7296L82.5181 8.7507L85.2023 15.7296H79.901Z" fill="#313033"/>
<path d="M38.2961 23.5136C39.3697 23.7149 40.9132 23.782 42.9263 23.782C46.0802 23.782 48.496 22.9096 50.1736 21.1649C51.8513 19.4202 52.6565 17.0715 52.6565 13.9847C52.6565 10.8307 51.8513 8.48207 50.1736 6.80445C48.496 5.19393 46.0802 4.38867 42.8592 4.38867C40.9803 4.38867 39.4368 4.52288 38.229 4.7913C37.2224 4.99262 36.6855 5.59656 36.6855 6.67024V21.6346C36.7527 22.7754 37.2224 23.3794 38.2961 23.5136ZM40.0408 7.60971C41.1145 7.4755 42.0539 7.4755 42.9263 7.4755C47.1539 7.4755 49.2342 9.68996 49.2342 14.1189C49.2342 18.6149 47.1539 20.8965 42.9934 20.8965C41.8526 20.8965 40.9132 20.8294 40.1079 20.7623V7.60971H40.0408Z" fill="#313033"/>
<path d="M57.6235 23.6481C58.1603 23.6481 58.6972 23.3126 59.1669 22.7087L68.159 10.4285V21.9705C68.159 22.4402 68.2932 22.8429 68.5616 23.1784C68.83 23.5139 69.2997 23.6481 69.8366 23.6481C70.3734 23.6481 70.7761 23.5139 71.0445 23.1784C71.3129 22.8429 71.4471 22.4402 71.4471 21.9705V6.33506C71.4471 5.19428 70.9103 4.59033 69.8366 4.59033C69.2326 4.59033 68.6958 4.92586 68.2261 5.5298L59.3682 17.8771V6.33506C59.3682 5.86533 59.234 5.39559 58.9656 5.12717C58.6972 4.79165 58.2945 4.65744 57.7577 4.65744C57.2209 4.65744 56.8182 4.79165 56.4827 5.12717C56.2143 5.4627 56.0801 5.86533 56.0801 6.33506V21.9705C56.0801 22.5073 56.2143 22.91 56.4827 23.2455C56.7511 23.5139 57.0866 23.6481 57.6235 23.6481Z" fill="#313033"/>
<path d="M146 14.0521C146 10.8981 145.195 8.54946 143.517 6.87183C141.84 5.26131 139.424 4.45605 136.203 4.45605C134.324 4.45605 132.781 4.59026 131.573 4.85868C130.566 5.06 130.029 5.66394 130.029 6.73762V21.702C130.029 22.7086 130.566 23.3125 131.573 23.4468C132.646 23.6481 134.19 23.7152 136.203 23.7152C139.357 23.7152 141.773 22.8428 143.45 21.0981C145.128 19.4876 146 17.1389 146 14.0521ZM136.203 20.8297C135.062 20.8297 134.123 20.7626 133.317 20.6954V7.60999C134.391 7.47578 135.331 7.47578 136.203 7.47578C140.431 7.47578 142.511 9.69024 142.511 14.1192C142.444 18.6152 140.363 20.8297 136.203 20.8297Z" fill="#313033"/>
<path d="M127.346 22.2387C127.346 21.769 127.212 21.4335 126.943 21.165C126.675 20.8966 126.272 20.7624 125.802 20.7624H117.817V15.394H123.991C124.46 15.394 124.863 15.2598 125.198 14.9914C125.467 14.723 125.601 14.3874 125.601 13.9177C125.601 13.448 125.467 13.1124 125.198 12.844C124.93 12.5756 124.527 12.4414 123.991 12.4414H117.817V7.60984H125.534C126.004 7.60984 126.406 7.47563 126.675 7.20721C126.943 6.93879 127.077 6.60327 127.077 6.13353C127.077 5.6638 126.943 5.32828 126.675 5.05986C126.406 4.79144 126.004 4.65723 125.534 4.65723H116.139C115.602 4.65723 115.2 4.79144 114.864 5.12696C114.596 5.46249 114.395 5.86512 114.395 6.33485V21.9703C114.395 22.44 114.529 22.9098 114.864 23.1782C115.2 23.5137 115.602 23.6479 116.139 23.6479H125.735C126.205 23.6479 126.608 23.5137 126.876 23.2453C127.212 22.9769 127.346 22.6413 127.346 22.2387Z" fill="#313033"/>
<path d="M109.83 23.1784C110.098 22.8429 110.233 22.4402 110.233 21.9705V6.33506C110.233 5.79822 110.098 5.39559 109.83 5.06007C109.562 4.72454 109.159 4.59033 108.689 4.59033C108.018 4.59033 107.481 4.92586 107.079 5.66401L101.509 14.589L95.8721 5.73112C95.4024 4.99296 94.8656 4.65744 94.1274 4.65744C93.6577 4.65744 93.3221 4.79165 92.9866 5.06007C92.7182 5.32849 92.584 5.79822 92.584 6.40217V22.0376C92.584 23.1784 93.1208 23.7152 94.1274 23.7152C95.134 23.7152 95.6708 23.1784 95.6708 22.0376V10.8982L99.7642 17.2732C100.167 17.9442 100.704 18.2126 101.308 18.2126C101.912 18.2126 102.448 17.8771 102.851 17.2061L106.877 10.6969V21.9034C106.877 22.3731 107.012 22.7758 107.347 23.1113C107.615 23.4468 108.018 23.581 108.555 23.581C109.159 23.6481 109.562 23.5139 109.83 23.1784Z" fill="#313033"/>
<path d="M19.9769 12.9112C19.9098 11.9717 19.5071 11.502 18.5677 11.502C17.2256 11.502 15.8164 11.502 14.4743 11.502C13.1322 11.502 11.723 11.502 10.3809 11.502C9.4414 11.502 8.97167 11.8375 8.97167 12.8441C8.77035 16.4006 10.6493 18.2796 14.4072 18.3467C18.165 18.3467 20.1782 16.4677 19.9769 12.9112Z" fill="#4BB9B5"/>
<path d="M13.4007 27.9426C21.7217 28.3453 28.4993 21.5006 28.0966 13.2466C27.7611 6.20063 22.0572 0.496711 14.9441 0.0269764C11.5888 -0.174338 7.83094 0.765131 6.15332 2.37565C5.34806 3.24801 4.81122 4.59011 5.07964 5.7309C5.54937 7.47562 6.75726 8.34799 8.77041 8.34799C12.7296 8.34799 16.6888 8.34799 20.648 8.34799H21.923C22.594 8.34799 23.198 8.95193 23.1309 9.62298C22.9296 12.1059 22.9296 14.4545 22.3256 16.669C21.319 20.3598 17.2256 22.1716 12.5954 21.5006C8.5691 20.8966 6.01911 18.0782 5.75069 13.8506C5.68358 12.7769 5.75069 11.6361 5.68358 10.5625C5.61648 9.08614 4.74411 8.28088 3.40202 8.07957C2.32834 7.87825 0.986237 8.61641 0.717817 9.69009C0.046768 11.4348 -0.0874419 12.7769 0.046768 14.7901C0.382293 21.8361 6.22042 27.6071 13.4007 27.9426Z" fill="#4BB9B5"/>
</svg>
