<svg display="none" xmlns="http://www.w3.org/2000/svg">

    <symbol id="time" viewBox="0 0 20 20">
        <path d="M9.99935 18.3334C14.6017 18.3334 18.3327 14.6025 18.3327 10.0001C18.3327 5.39771 14.6017 1.66675 9.99935 1.66675C5.39698 1.66675 1.66602 5.39771 1.66602 10.0001C1.66602 14.6025 5.39698 18.3334 9.99935 18.3334Z" stroke="#4BB9B5" stroke-linecap="round" stroke-linejoin="round"/>
        <path d="M10 5V10L13.3333 11.6667" stroke="#4BB9B5" stroke-linecap="round" stroke-linejoin="round"/>
    </symbol>

    <symbol id="eye" viewBox="0 0 20 20">
        <path d="M0.833984 9.99999C0.833984 9.99999 4.16732 3.33333 10.0007 3.33333C15.834 3.33333 19.1673 9.99999 19.1673 9.99999C19.1673 9.99999 15.834 16.6667 10.0007 16.6667C4.16732 16.6667 0.833984 9.99999 0.833984 9.99999Z" stroke="#313033" stroke-linecap="round" stroke-linejoin="round"/>
        <path d="M10 12.5C11.3807 12.5 12.5 11.3807 12.5 10C12.5 8.61929 11.3807 7.5 10 7.5C8.61929 7.5 7.5 8.61929 7.5 10C7.5 11.3807 8.61929 12.5 10 12.5Z" stroke="#313033" stroke-linecap="round" stroke-linejoin="round"/>
    </symbol>

    <symbol id="search_icon" viewBox="0 0 20 20">
        <path d="M16.4742 9.10162C16.4742 13.1207 13.2161 16.3787 9.19704 16.3787C5.178 16.3787 1.91992 13.1207 1.91992 9.10162C1.91992 5.08258 5.178 1.82451 9.19704 1.82451C13.2161 1.82451 16.4742 5.08258 16.4742 9.10162ZM2.93872 9.10162C2.93872 12.558 5.74066 15.3599 9.19704 15.3599C12.6534 15.3599 15.4554 12.558 15.4554 9.10162C15.4554 5.64525 12.6534 2.8433 9.19704 2.8433C5.74066 2.8433 2.93872 5.64525 2.93872 9.10162Z" fill="#313033"/>
        <path d="M13.7969 14.4985L14.5012 13.8133L17.7356 17.1381C17.9248 17.3326 17.9205 17.6437 17.726 17.8329C17.5315 18.0221 17.2204 18.0178 17.0312 17.8233L13.7969 14.4985Z" fill="#313033"/>
    </symbol>

    <symbol id="search-form_icon" viewBox="0 0 16 16">
        <path d="M13.4395 7.29918C13.4395 9.00652 12.7263 10.5473 11.5817 11.6399C10.5048 12.6679 9.04583 13.2992 7.43945 13.2992C4.12574 13.2992 1.43945 10.6129 1.43945 7.29918C1.43945 3.98547 4.12574 1.29918 7.43945 1.29918C10.7532 1.29918 13.4395 3.98547 13.4395 7.29918ZM2.63945 7.29918C2.63945 9.95015 4.78849 12.0992 7.43945 12.0992C10.0904 12.0992 12.2395 9.95015 12.2395 7.29918C12.2395 4.64822 10.0904 2.49918 7.43945 2.49918C4.78849 2.49918 2.63945 4.64822 2.63945 7.29918Z" fill="#4BB9B5"/>
        <path d="M14.4194 13.8522L11.9184 11.2917C11.8109 11.4122 11.6985 11.5284 11.5817 11.6399C11.4607 11.7554 11.3348 11.866 11.2045 11.9711L13.7027 14.5495C13.8952 14.7474 14.2118 14.7518 14.4097 14.5592C14.6076 14.3667 14.612 14.0501 14.4194 13.8522Z" fill="#4BB9B5"/>
    </symbol>

    <symbol id="facebook" viewBox="0 0 24 24">
        <path d="M16.2488 6.65597L14.7083 6.65663C13.5004 6.65663 13.2666 7.2178 13.2666 8.04134V9.85718H16.1473L16.1462 12.7014H13.2666V19.9999H10.2619V12.7014H7.75V9.85718H10.2619V7.75984C10.2619 5.32563 11.7829 4.00012 14.004 4.00012L16.249 4.00361L16.2488 6.65597Z"/>
    </symbol>

    <symbol id="youtube" viewBox="0 0 25 24">
        <path fill-rule="evenodd" clip-rule="evenodd" d="M21.4205 4.51319C22.3953 4.7758 23.1654 5.54586 23.428 6.52066C23.9132 8.30557 23.8954 12.0223 23.8954 12.0223C23.8954 12.0223 23.8954 15.7167 23.4191 17.5017C23.1565 18.4765 22.3864 19.2465 21.4116 19.5091C19.6312 19.9765 12.496 19.9765 12.496 19.9765C12.496 19.9765 5.38303 19.9765 3.58031 19.4869C2.60551 19.2243 1.83546 18.4542 1.57284 17.4794C1.10547 15.7167 1.10547 12 1.10547 12C1.10547 12 1.10547 8.30557 1.57729 6.51621C1.83991 5.5414 2.62776 4.75355 3.58476 4.49093C5.36523 4.02356 12.5004 4.02356 12.5004 4.02356C12.5004 4.02356 19.6356 4.02356 21.4205 4.51319ZM16.1639 12.0001L10.2305 15.4186V8.58606L16.1639 12.0001Z"/>
    </symbol>

    <symbol id="vk" viewBox="0 0 25 24">
        <path d="M24.2853 17.369C24.2197 17.2612 23.8213 16.3941 21.9044 14.613C19.8937 12.7476 20.1655 13.0523 22.584 9.82299C24.0604 7.85916 24.6462 6.6593 24.4634 6.14374C24.29 5.6563 23.2027 5.78285 23.2027 5.78285L19.5984 5.80159C19.5984 5.80159 19.3313 5.7641 19.1297 5.88596C18.9375 6.00313 18.811 6.27497 18.811 6.27497C18.811 6.27497 18.2392 7.79354 17.4799 9.08714C15.8723 11.8149 15.2302 11.9602 14.9677 11.7915C14.3584 11.3978 14.5084 10.2026 14.5084 9.35898C14.5084 6.71555 14.9068 5.61412 13.7257 5.32821C13.332 5.23447 13.0461 5.16886 12.0431 5.15948C10.7542 5.14542 9.66679 5.16417 9.04811 5.46413C8.63566 5.66567 8.32164 6.11562 8.5138 6.13905C8.75284 6.17186 9.29183 6.28435 9.57774 6.67336C9.94801 7.17487 9.93394 8.30442 9.93394 8.30442C9.93394 8.30442 10.1449 11.4165 9.43713 11.8056C8.94969 12.0727 8.28414 11.529 6.84994 9.05433C6.11878 7.78886 5.56103 6.38277 5.56103 6.38277C5.56103 6.38277 5.45323 6.12031 5.26575 5.98438C5.03609 5.81565 4.7127 5.75941 4.7127 5.75941L1.28186 5.77816C1.28186 5.77816 0.766296 5.79222 0.578818 6.01719C0.410089 6.21873 0.564758 6.6265 0.564758 6.6265C0.564758 6.6265 3.25037 12.907 6.28751 16.0707C9.07623 18.9719 12.2399 18.7844 12.2399 18.7844H13.6741C13.6741 18.7844 14.1053 18.7375 14.3303 18.4985C14.5365 18.2782 14.5271 17.8705 14.5271 17.8705C14.5271 17.8705 14.499 15.9441 15.3942 15.6629C16.2754 15.3817 17.4049 17.5236 18.6048 18.3438C19.5094 18.9672 20.1983 18.8313 20.1983 18.8313L23.4042 18.7844C23.4042 18.7938 25.0821 18.6907 24.2853 17.369Z"/>
    </symbol>

    <symbol id="instagram" viewBox="0 0 24 24">
        <path d="M15.7612 4.00012H8.23609C5.68061 4.00012 3.60156 5.9809 3.60156 8.41547V15.5845C3.60156 18.0192 5.68061 19.9999 8.23609 19.9999H15.7612C18.3168 19.9999 20.3959 18.0191 20.3959 15.5845V8.41547C20.396 5.9809 18.3168 4.00012 15.7612 4.00012ZM18.9059 15.5845C18.9059 17.2364 17.4952 18.5803 15.7613 18.5803H8.23609C6.50224 18.5804 5.09164 17.2364 5.09164 15.5845V8.41547C5.09164 6.76366 6.50224 5.4197 8.23609 5.4197H15.7612C17.4951 5.4197 18.9058 6.76366 18.9058 8.41547L18.9059 15.5845Z"/>
        <path d="M11.9994 7.87952C9.61315 7.87952 7.67188 9.72894 7.67188 12.0022C7.67188 14.2755 9.61315 16.1248 11.9994 16.1248C14.3856 16.1248 16.3268 14.2755 16.3268 12.0022C16.3268 9.72894 14.3856 7.87952 11.9994 7.87952ZM11.9994 14.7051C10.4349 14.7051 9.16195 13.4926 9.16195 12.0022C9.16195 10.5116 10.4348 9.299 11.9994 9.299C13.5639 9.299 14.8368 10.5116 14.8368 12.0022C14.8368 13.4926 13.5638 14.7051 11.9994 14.7051Z"/>
        <path d="M16.5068 6.67639C16.2197 6.67639 15.9377 6.78712 15.7349 6.98113C15.5312 7.17419 15.4141 7.44296 15.4141 7.71741C15.4141 7.99101 15.5313 8.25969 15.7349 8.4537C15.9376 8.64676 16.2197 8.75843 16.5068 8.75843C16.7949 8.75843 17.076 8.64676 17.2796 8.4537C17.4833 8.25969 17.5995 7.99092 17.5995 7.71741C17.5995 7.44296 17.4833 7.17419 17.2796 6.98113C17.077 6.78712 16.7949 6.67639 16.5068 6.67639Z"/>
    </symbol>

    <!-- Стрелки -->
    <symbol id="link-arrow" viewBox="28 28">
        <path d="M10 18L18 10" stroke="white" stroke-width="1.5" stroke-linecap="round" stroke-linejoin="round"/>
        <path d="M10 10H18V18" stroke="white" stroke-width="1.5" stroke-linecap="round" stroke-linejoin="round"/>
    </symbol>
</svg>






