<svg display="none" xmlns="http://www.w3.org/2000/svg">

    <symbol id="time" viewBox="0 0 20 20">
        <path d="M9.99935 18.3334C14.6017 18.3334 18.3327 14.6025 18.3327 10.0001C18.3327 5.39771 14.6017 1.66675 9.99935 1.66675C5.39698 1.66675 1.66602 5.39771 1.66602 10.0001C1.66602 14.6025 5.39698 18.3334 9.99935 18.3334Z" stroke="#4BB9B5" stroke-linecap="round" stroke-linejoin="round"/>
        <path d="M10 5V10L13.3333 11.6667" stroke="#4BB9B5" stroke-linecap="round" stroke-linejoin="round"/>
    </symbol>

    <symbol id="eye" viewBox="0 0 20 20">
        <path d="M0.833984 9.99999C0.833984 9.99999 4.16732 3.33333 10.0007 3.33333C15.834 3.33333 19.1673 9.99999 19.1673 9.99999C19.1673 9.99999 15.834 16.6667 10.0007 16.6667C4.16732 16.6667 0.833984 9.99999 0.833984 9.99999Z" stroke="#313033" stroke-linecap="round" stroke-linejoin="round"/>
        <path d="M10 12.5C11.3807 12.5 12.5 11.3807 12.5 10C12.5 8.61929 11.3807 7.5 10 7.5C8.61929 7.5 7.5 8.61929 7.5 10C7.5 11.3807 8.61929 12.5 10 12.5Z" stroke="#313033" stroke-linecap="round" stroke-linejoin="round"/>
    </symbol>

    <symbol id="search_icon" viewBox="0 0 20 20">
        <path d="M16.4742 9.10162C16.4742 13.1207 13.2161 16.3787 9.19704 16.3787C5.178 16.3787 1.91992 13.1207 1.91992 9.10162C1.91992 5.08258 5.178 1.82451 9.19704 1.82451C13.2161 1.82451 16.4742 5.08258 16.4742 9.10162ZM2.93872 9.10162C2.93872 12.558 5.74066 15.3599 9.19704 15.3599C12.6534 15.3599 15.4554 12.558 15.4554 9.10162C15.4554 5.64525 12.6534 2.8433 9.19704 2.8433C5.74066 2.8433 2.93872 5.64525 2.93872 9.10162Z" fill="#313033"/>
        <path d="M13.7969 14.4985L14.5012 13.8133L17.7356 17.1381C17.9248 17.3326 17.9205 17.6437 17.726 17.8329C17.5315 18.0221 17.2204 18.0178 17.0312 17.8233L13.7969 14.4985Z" fill="#313033"/>
    </symbol>

    <symbol id="search-form_icon" viewBox="0 0 16 16">
        <path d="M13.4395 7.29918C13.4395 9.00652 12.7263 10.5473 11.5817 11.6399C10.5048 12.6679 9.04583 13.2992 7.43945 13.2992C4.12574 13.2992 1.43945 10.6129 1.43945 7.29918C1.43945 3.98547 4.12574 1.29918 7.43945 1.29918C10.7532 1.29918 13.4395 3.98547 13.4395 7.29918ZM2.63945 7.29918C2.63945 9.95015 4.78849 12.0992 7.43945 12.0992C10.0904 12.0992 12.2395 9.95015 12.2395 7.29918C12.2395 4.64822 10.0904 2.49918 7.43945 2.49918C4.78849 2.49918 2.63945 4.64822 2.63945 7.29918Z" fill="#4BB9B5"/>
        <path d="M14.4194 13.8522L11.9184 11.2917C11.8109 11.4122 11.6985 11.5284 11.5817 11.6399C11.4607 11.7554 11.3348 11.866 11.2045 11.9711L13.7027 14.5495C13.8952 14.7474 14.2118 14.7518 14.4097 14.5592C14.6076 14.3667 14.612 14.0501 14.4194 13.8522Z" fill="#4BB9B5"/>
    </symbol>

    <symbol id="facebook" viewBox="0 0 9 16">
        <path d="M8.49878 2.65585L6.95828 2.65651C5.75044 2.65651 5.51659 3.21767 5.51659 4.04121V5.85706H8.39725L8.39623 8.70129H5.51659V15.9998H2.51195V8.70129H0V5.85706H2.51195V3.75972C2.51195 1.32551 4.03289 0 6.25402 0L8.49895 0.00349169L8.49878 2.65585Z" />
    </symbol>

    <symbol id="youtube" viewBox="0 0 24 16">
        <path d="M20.8151 0.489627C21.7899 0.752245 22.5599 1.5223 22.8225 2.4971C23.3077 4.28201 23.2899 7.99873 23.2899 7.99873C23.2899 7.99873 23.2899 11.6932 22.8136 13.4781C22.551 14.4529 21.781 15.223 20.8062 15.4856C19.0257 15.9529 11.8905 15.9529 11.8905 15.9529C11.8905 15.9529 4.77756 15.9529 2.97484 15.4633C2.00004 15.2007 1.22999 14.4306 0.967371 13.4558C0.5 11.6932 0.5 7.97647 0.5 7.97647C0.5 7.97647 0.5 4.28201 0.971823 2.49265C1.23444 1.51784 2.0223 0.72999 2.97929 0.467371C4.75976 0 11.895 0 11.895 0C11.895 0 19.0302 0 20.8151 0.489627ZM15.5584 7.97654L9.625 11.395V4.5625L15.5584 7.97654Z"/>
    </symbol>

    <symbol id="vk" viewBox="0 0 26 16">
        <path d="M24.9307 13.5392C24.8627 13.4275 24.45 12.5292 22.464 10.684C20.3809 8.75147 20.6626 9.06708 23.1681 5.72153C24.6976 3.687 25.3046 2.44395 25.1152 1.90982C24.9356 1.40483 23.809 1.53594 23.809 1.53594L20.075 1.55536C20.075 1.55536 19.7983 1.51651 19.5895 1.64276C19.3904 1.76415 19.2593 2.04578 19.2593 2.04578C19.2593 2.04578 18.6669 3.61902 17.8803 4.95919C16.2148 7.78519 15.5495 7.93571 15.2776 7.76091C14.6464 7.35303 14.8018 6.11484 14.8018 5.24081C14.8018 2.50222 15.2145 1.36113 13.9909 1.06494C13.583 0.967823 13.2868 0.899843 12.2477 0.890132C10.9124 0.875565 9.78587 0.894988 9.14492 1.20575C8.71762 1.41454 8.39229 1.88069 8.59137 1.90497C8.83901 1.93896 9.39741 2.05549 9.69361 2.45851C10.0772 2.97807 10.0626 4.14829 10.0626 4.14829C10.0626 4.14829 10.2811 7.37245 9.54794 7.77548C9.04295 8.05225 8.35344 7.48899 6.86761 4.9252C6.11012 3.61416 5.5323 2.15746 5.5323 2.15746C5.5323 2.15746 5.42062 1.88555 5.22639 1.74473C4.98846 1.56993 4.65342 1.51166 4.65342 1.51166L1.09907 1.53108C1.09907 1.53108 0.564945 1.54565 0.370718 1.77872C0.195914 1.98751 0.356151 2.40996 0.356151 2.40996C0.356151 2.40996 3.13845 8.91656 6.28493 12.1941C9.17405 15.1998 12.4516 15.0056 12.4516 15.0056H13.9375C13.9375 15.0056 14.3842 14.957 14.6173 14.7094C14.8309 14.4812 14.8212 14.0587 14.8212 14.0587C14.8212 14.0587 14.7921 12.063 15.7195 11.7717C16.6324 11.4804 17.8026 13.6994 19.0456 14.5491C19.9828 15.1949 20.6966 15.0541 20.6966 15.0541L24.0178 15.0056C24.0178 15.0153 25.7562 14.9085 24.9307 13.5392Z"/>
    </symbol>

    <symbol id="instagram" viewBox="0 0 17 16">
        <path d="M12.351 0H4.82593C2.27046 0 0.191406 1.98078 0.191406 4.41535V11.5844C0.191406 14.0191 2.27046 15.9998 4.82593 15.9998H12.351C14.9067 15.9998 16.9857 14.019 16.9857 11.5844V4.41535C16.9858 1.98078 14.9067 0 12.351 0ZM15.4958 11.5844C15.4958 13.2363 14.0851 14.5802 12.3511 14.5802H4.82593C3.09208 14.5803 1.68148 13.2363 1.68148 11.5844V4.41535C1.68148 2.76353 3.09208 1.41958 4.82593 1.41958H12.351C14.085 1.41958 15.4957 2.76353 15.4957 4.41535V11.5844H15.4958Z" />
        <path d="M8.5892 3.87939C6.20299 3.87939 4.26172 5.72882 4.26172 8.00212C4.26172 10.2753 6.20299 12.1247 8.5892 12.1247C10.9754 12.1247 12.9167 10.2753 12.9167 8.00212C12.9167 5.72882 10.9754 3.87939 8.5892 3.87939ZM8.5892 10.705C7.02472 10.705 5.75179 9.49249 5.75179 8.00203C5.75179 6.51148 7.02462 5.29887 8.5892 5.29887C10.1538 5.29887 11.4266 6.51148 11.4266 8.00203C11.4266 9.49249 10.1537 10.705 8.5892 10.705Z" />
        <path d="M13.0966 2.67627C12.8095 2.67627 12.5275 2.787 12.3248 2.98101C12.121 3.17407 12.0039 3.44284 12.0039 3.71729C12.0039 3.99089 12.1211 4.25957 12.3248 4.45358C12.5274 4.64664 12.8095 4.75831 13.0966 4.75831C13.3847 4.75831 13.6658 4.64664 13.8695 4.45358C14.0731 4.25957 14.1893 3.9908 14.1893 3.71729C14.1893 3.44284 14.0731 3.17407 13.8695 2.98101C13.6668 2.787 13.3847 2.67627 13.0966 2.67627Z" />
    </symbol>

</svg>






